SplineFontDB: 3.2
FontName: mono5by7ascii
FullName: mono5by7ascii
FamilyName: mono5by7ascii
Weight: Book
Copyright: Copyright (c) 2013 by Peter Wiegel. All rights reserved.
Version: 1.0
ItalicAngle: 0
UnderlinePosition: -100
UnderlineWidth: 50
Ascent: 800
Descent: 200
InvalidEm: 0
sfntRevision: 0x00010000
LayerCount: 2
Layer: 0 1 "Back" 1
Layer: 1 1 "Fore" 0
XUID: [1021 362 -792500644 16850]
StyleMap: 0x0040
FSType: 0
OS2Version: 3
OS2_WeightWidthSlopeOnly: 0
OS2_UseTypoMetrics: 0
CreationTime: 1364308095
ModificationTime: 1584913580
PfmFamily: 81
TTFWeight: 400
TTFWidth: 5
LineGap: 0
VLineGap: 0
Panose: 0 0 0 0 0 0 0 0 0 0
OS2TypoAscent: 700
OS2TypoAOffset: 0
OS2TypoDescent: 0
OS2TypoDOffset: 0
OS2TypoLinegap: 50
OS2WinAscent: 750
OS2WinAOffset: 0
OS2WinDescent: 250
OS2WinDOffset: 0
HheadAscent: 700
HheadAOffset: 0
HheadDescent: 0
HheadDOffset: 0
OS2SubXSize: 700
OS2SubYSize: 650
OS2SubXOff: 0
OS2SubYOff: 140
OS2SupXSize: 700
OS2SupYSize: 650
OS2SupXOff: 0
OS2SupYOff: 477
OS2StrikeYSize: 50
OS2StrikeYPos: 250
OS2CapHeight: 700
OS2XHeight: 500
OS2Vendor: 'pyrs'
OS2CodePages: 0000000d.00000000
OS2UnicodeRanges: a00002af.4000104a.00000000.00000000
MarkAttachClasses: 1
DEI: 91125
TtTable: prep
PUSHW_1
 10
CALL
PUSHW_1
 0
CALL
EndTTInstrs
TtTable: fpgm
PUSHW_1
 0
FDEF
MPPEM
PUSHW_1
 9
LT
IF
PUSHB_2
 1
 1
INSTCTRL
EIF
PUSHW_1
 511
SCANCTRL
PUSHW_1
 68
SCVTCI
PUSHW_2
 9
 3
SDS
SDB
ENDF
PUSHW_1
 1
FDEF
DUP
DUP
RCVT
ROUND[Black]
WCVTP
PUSHB_1
 1
ADD
ENDF
PUSHW_1
 2
FDEF
PUSHW_1
 1
LOOPCALL
POP
ENDF
PUSHW_1
 3
FDEF
DUP
GC[cur]
PUSHB_1
 3
CINDEX
GC[cur]
GT
IF
SWAP
EIF
DUP
ROLL
DUP
ROLL
MD[grid]
ABS
ROLL
DUP
GC[cur]
DUP
ROUND[Grey]
SUB
ABS
PUSHB_1
 4
CINDEX
GC[cur]
DUP
ROUND[Grey]
SUB
ABS
GT
IF
SWAP
NEG
ROLL
EIF
MDAP[rnd]
DUP
PUSHB_1
 0
GTEQ
IF
ROUND[Black]
DUP
PUSHB_1
 0
EQ
IF
POP
PUSHB_1
 64
EIF
ELSE
ROUND[Black]
DUP
PUSHB_1
 0
EQ
IF
POP
PUSHB_1
 64
NEG
EIF
EIF
MSIRP[no-rp0]
ENDF
PUSHW_1
 4
FDEF
DUP
GC[cur]
PUSHB_1
 4
CINDEX
GC[cur]
GT
IF
SWAP
ROLL
EIF
DUP
GC[cur]
DUP

StartChar: four
Encoding: 52 52 1
Width: 600
VWidth: 1024
Flags: W
LayerCount: 2
Fore
SplineSet
351 154 m 256,0,1
 351 174 351 174 365 188 c 0,2,3
 377 201 377 201 397 205 c 1,4,5
 378 207 378 207 365.5 219 c 128,-1,6
 353 231 353 231 351 251 c 1,7,8
 348 231 348 231 335 218 c 0,9,10
 321 205 321 205 300 205 c 0,11,12
 280 205 280 205 265 218 c 0,13,14
 251 230 251 230 249 251 c 1,15,16
 246 231 246 231 233 218 c 0,17,18
 219 205 219 205 198 205 c 0,19,20
 178 205 178 205 163 218 c 0,21,22
 149 230 149 230 147 251 c 1,23,24
 144 231 144 231 130 218 c 128,-1,25
 116 205 116 205 95 205 c 0,26,27
 73 205 73 205 58.5 219.5 c 128,-1,28
 44 234 44 234 44 256 c 0,29,30
 44 276 44 276 58 291 c 0,31,32
 70 304 70 304 90 307 c 1,33,34
 70 309 70 309 58 324 c 0,35,36
 45 338 45 338 44 358 c 0,37,38
 44 380 44 380 59 395 c 128,-1,39
 74 410 74 410 95 410 c 0,40,41
 117 410 117 410 132 395 c 128,-1,42
 147 380 147 380 147 358 c 0,43,44
 147 338 147 338 133.5 323.5 c 128,-1,45
 120 309 120 309 101 307 c 1,46,47
 118 304 118 304 131 292 c 0,48,49
 144 279 144 279 147 260 c 1,50,51
 149 280 149 280 163 293.5 c 128,-1,52
 177 307 177 307 198 307 c 0,53,54
 220 307 220 307 234.5 292.5 c 128,-1,55
 249 278 249 278 249 256 c 1,56,57
 249 278 249 278 264 292.5 c 128,-1,58
 279 307 279 307 300 307 c 0,59,60
 322 307 322 307 336 292 c 0,61,62
 349 279 349 279 351 260 c 1,63,64
 352 277 352 277 365 291 c 0,65,66
 377 304 377 304 397 307 c 1,67,68
 377 309 377 309 365 324 c 0,69,70
 352 338 352 338 351 358 c 0,71,72
 351 378 351 378 365 393 c 0,73,74
 377 406 377 406 397 410 c 1,75,76
 377 412 377 412 365 426 c 0,77,78
 352 440 352 440 351 461 c 0,79,80
 351 481 351 481 365 496 c 0,81,82
 377 509 377 509 397 512 c 1,83,84
 378 514 378 514 365.5 526.5 c 128,-1,85
 353 539 353 539 351 558 c 1,86,87
 348 538 348 538 335 525 c 0,88,89
 321 512 321 512 300 512 c 0,90,91
 278 512 278 512 263.5 527 c 128,-1,92
 249 542 249 542 249 563 c 0,93,94
 249 585 249 585 264 599.5 c 128,-1,95
 279 614 279 614 300 614 c 0,96,97
 320 614 320 614 334.5 601 c 128,-1,98
 349 588 349 588 351 567 c 1,99,100
 353 585 353 585 366 599 c 0,101,102
 378 611 378 611 397 614 c 1,103,104
 377 616 377 616 365 631 c 0,105,106
 352 645 352 645 351 666 c 0,107,108
 351 688 351 688 366 702.5 c 128,-1,109
 381 717 381 717 403 717 c 256,110,111
 425 717 425 717 439.5 702 c 128,-1,112
 454 687 454 687 454 666 c 0,113,114
 454 646 454 646 440.5 631 c 128,-1,115
 427 616 427 616 408 614 c 1,116,117
 427 611 427 611 440 598 c 0,118,119
 453 584 453 584 454 563 c 0,120,121
 454 543 454 543 440.5 528.5 c 128,-1,122
 427 514 427 514 408 512 c 1,123,124
 427 509 427 509 440 496 c 0,125,126
 453 482 453 482 454 461 c 0,127,128
 454 441 454 441 440.5 426.5 c 128,-1,129
 427 412 427 412 408 410 c 1,130,131
 427 407 427 407 440 393 c 128,-1,132
 453 379 453 379 454 358 c 0,133,134
 454 338 454 338 440.5 323.5 c 128,-1,135
 427 309 427 309 408 307 c 1,136,137
 425 304 425 304 438 291.5 c 128,-1,138
 451 279 451 279 454 261 c 1,139,140
 456 280 456 280 470.5 293.5 c 128,-1,141
 485 307 485 307 505 307 c 0,142,143
 527 307 527 307 541.5 292.5 c 128,-1,144
 556 278 556 278 556 256 c 256,145,146
 556 234 556 234 541.5 219.5 c 128,-1,147
 527 205 527 205 505 205 c 0,148,149
 485 205 485 205 470 218 c 0,150,151
 456 230 456 230 454 251 c 1,152,153
 451 232 451 232 438 219.5 c 128,-1,154
 425 207 425 207 408 205 c 1,155,156
 427 202 427 202 440 188 c 128,-1,157
 453 174 453 174 454 154 c 0,158,159
 454 134 454 134 440.5 119 c 128,-1,160
 427 104 427 104 408 102 c 1,161,162
 427 99 427 99 440 86 c 0,163,164
 453 72 453 72 454 51 c 0,165,166
 454 29 454 29 439 14.5 c 128,-1,167
 424 0 424 0 403 0 c 0,168,169
 381 0 381 0 366 15 c 128,-1,170
 351 30 351 30 351 51 c 0,171,172
 351 71 351 71 365 86 c 0,173,174
 377 99 377 99 397 102 c 1,175,176
 377 104 377 104 365 119 c 0,177,178
 351 134 351 134 351 154 c 256,0,1
147 461 m 256,179,180
 147 483 147 483 161.5 497.5 c 128,-1,181
 176 512 176 512 198 512 c 256,182,183
 220 512 220 512 234.5 497 c 128,-1,184
 249 482 249 482 249 461 c 0,185,186
 249 439 249 439 234 424.5 c 128,-1,187
 219 410 219 410 198 410 c 0,188,189
 176 410 176 410 161.5 424.5 c 128,-1,190
 147 439 147 439 147 461 c 256,179,180
EndSplineSet
EndChar

StartChar: five
Encoding: 53 53 2
Width: 600
VWidth: 1024
Flags: W
LayerCount: 2
Fore
SplineSet
44 666 m 0,0,1
 44 688 44 688 59 702.5 c 128,-1,2
 74 717 74 717 95 717 c 0,3,4
 115 717 115 717 130 703.5 c 128,-1,5
 145 690 145 690 147 670 c 1,6,7
 149 690 149 690 163 703.5 c 128,-1,8
 177 717 177 717 198 717 c 0,9,10
 220 717 220 717 234.5 702 c 128,-1,11
 249 687 249 687 249 666 c 1,12,13
 249 688 249 688 264 702.5 c 128,-1,14
 279 717 279 717 300 717 c 0,15,16
 320 717 320 717 335 703 c 0,17,18
 348 690 348 690 351 671 c 1,19,20
 353 690 353 690 367.5 703.5 c 128,-1,21
 382 717 382 717 403 717 c 0,22,23
 425 717 425 717 439.5 702 c 128,-1,24
 454 687 454 687 454 666 c 1,25,26
 454 688 454 688 468.5 702.5 c 128,-1,27
 483 717 483 717 505 717 c 256,28,29
 527 717 527 717 541.5 702 c 128,-1,30
 556 687 556 687 556 666 c 0,31,32
 556 644 556 644 541.5 629 c 128,-1,33
 527 614 527 614 505 614 c 0,34,35
 485 614 485 614 470 628 c 0,36,37
 456 640 456 640 454 660 c 1,38,39
 451 640 451 640 437 628 c 0,40,41
 423 615 423 615 403 614 c 0,42,43
 383 614 383 614 368 628 c 0,44,45
 354 640 354 640 351 660 c 1,46,47
 348 640 348 640 335 628 c 0,48,49
 321 615 321 615 300 614 c 0,50,51
 280 614 280 614 265 628 c 0,52,53
 251 640 251 640 249 660 c 1,54,55
 246 640 246 640 233 628 c 0,56,57
 219 615 219 615 198 614 c 0,58,59
 178 614 178 614 163 628 c 0,60,61
 149 640 149 640 147 660 c 1,62,63
 144 641 144 641 131 628.5 c 128,-1,64
 118 616 118 616 101 614 c 1,65,66
 120 611 120 611 133 598 c 0,67,68
 146 584 146 584 147 563 c 0,69,70
 147 543 147 543 133.5 528.5 c 128,-1,71
 120 514 120 514 101 512 c 1,72,73
 118 509 118 509 131 496 c 128,-1,74
 144 483 144 483 147 466 c 1,75,76
 149 485 149 485 163 498.5 c 128,-1,77
 177 512 177 512 198 512 c 0,78,79
 220 512 220 512 234 497 c 0,80,81
 247 484 247 484 249 465 c 1,82,83
 250 483 250 483 263 497 c 0,84,85
 278 512 278 512 300 512 c 256,86,87
 322 512 322 512 336.5 497 c 128,-1,88
 351 482 351 482 351 461 c 1,89,90
 351 483 351 483 366 497.5 c 128,-1,91
 381 512 381 512 403 512 c 256,92,93
 425 512 425 512 439.5 497 c 128,-1,94
 454 482 454 482 454 461 c 0,95,96
 454 439 454 439 439 424.5 c 128,-1,97
 424 410 424 410 403 410 c 0,98,99
 383 410 383 410 368 423 c 0,100,101
 354 435 354 435 351 456 c 1,102,103
 348 436 348 436 335 423 c 0,104,105
 321 410 321 410 300 410 c 0,106,107
 280 410 280 410 265 423 c 0,108,109
 251 435 251 435 249 456 c 1,110,111
 246 436 246 436 233 423 c 0,112,113
 219 410 219 410 198 410 c 0,114,115
 178 410 178 410 163 423 c 0,116,117
 149 435 149 435 147 456 c 1,118,119
 144 436 144 436 130 423 c 128,-1,120
 116 410 116 410 95 410 c 0,121,122
 73 410 73 410 58.5 424.5 c 128,-1,123
 44 439 44 439 44 461 c 0,124,125
 44 481 44 481 58 496 c 0,126,127
 70 509 70 509 90 512 c 1,128,129
 70 514 70 514 58 528 c 0,130,131
 45 542 45 542 44 563 c 0,132,133
 44 583 44 583 58 598 c 0,134,135
 70 611 70 611 90 614 c 1,136,137
 70 616 70 616 58 631 c 0,138,139
 44 646 44 646 44 666 c 0,0,1
147 51 m 256,140,141
 147 73 147 73 161.5 87.5 c 128,-1,142
 176 102 176 102 198 102 c 0,143,144
 218 102 218 102 233 89 c 0,145,146
 246 76 246 76 249 56 c 1,147,148
 251 75 251 75 265.5 88.5 c 128,-1,149
 280 102 280 102 300 102 c 256,150,151
 320 102 320 102 334.5 89 c 128,-1,152
 349 76 349 76 351 55 c 1,153,154
 353 75 353 75 367.5 88.5 c 128,-1,155
 382 102 382 102 403 102 c 0,156,157
 425 102 425 102 439.5 87.5 c 128,-1,158
 454 73 454 73 454 51 c 256,159,160
 454 29 454 29 439 14.5 c 128,-1,161
 424 0 424 0 403 0 c 0,162,163
 383 0 383 0 368 13 c 0,164,165
 354 25 354 25 351 46 c 1,166,167
 348 26 348 26 335 13 c 0,168,169
 321 0 321 0 300 0 c 0,170,171
 280 0 280 0 265 13 c 0,172,173
 251 25 251 25 249 46 c 1,174,175
 246 26 246 26 233 13 c 0,176,177
 219 0 219 0 198 0 c 0,178,179
 176 0 176 0 161.5 14.5 c 128,-1,180
 147 29 147 29 147 51 c 256,140,141
454 256 m 256,181,182
 454 276 454 276 467 291 c 0,183,184
 479 304 479 304 500 307 c 1,185,186
 480 309 480 309 467 324 c 0,187,188
 454 338 454 338 454 358 c 0,189,190
 454 380 454 380 468.5 395 c 128,-1,191
 483 410 483 410 505 410 c 256,192,193
 527 410 527 410 541.5 395 c 128,-1,194
 556 380 556 380 556 358 c 0,195,196
 556 338 556 338 543 323.5 c 128,-1,197
 530 309 530 309 510 307 c 1,198,199
 529 304 529 304 543 291 c 0,200,201
 556 277 556 277 556 256 c 0,202,203
 556 236 556 236 543 221.5 c 128,-1,204
 530 207 530 207 510 205 c 1,205,206
 529 202 529 202 543 188 c 0,207,208
 556 174 556 174 556 154 c 0,209,210
 556 132 556 132 541.5 117 c 128,-1,211
 527 102 527 102 505 102 c 256,212,213
 483 102 483 102 468.5 117 c 128,-1,214
 454 132 454 132 454 154 c 0,215,216
 454 174 454 174 467 188 c 0,217,218
 479 201 479 201 500 205 c 1,219,220
 480 207 480 207 467 221 c 0,221,222
 454 236 454 236 454 256 c 256,181,182
44 154 m 256,223,224
 44 176 44 176 59 190.5 c 128,-1,225
 74 205 74 205 95 205 c 0,226,227
 117 205 117 205 132 190 c 128,-1,228
 147 175 147 175 147 154 c 0,229,230
 147 132 147 132 132 117 c 128,-1,231
 117 102 117 102 95 102 c 256,232,233
 73 102 73 102 58.5 117 c 128,-1,234
 44 132 44 132 44 154 c 256,223,224
EndSplineSet
EndChar

StartChar: six
Encoding: 54 54 3
Width: 600
VWidth: 1024
Flags: W
LayerCount: 2
Fore
SplineSet
44 461 m 0,0,1
 44 483 44 483 59 497.5 c 128,-1,2
 74 512 74 512 95 512 c 0,3,4
 117 512 117 512 132 497 c 128,-1,5
 147 482 147 482 147 461 c 0,6,7
 147 441 147 441 133.5 426.5 c 128,-1,8
 120 412 120 412 101 410 c 1,9,10
 120 407 120 407 133 393 c 128,-1,11
 146 379 146 379 147 358 c 1,12,13
 147 380 147 380 161.5 395 c 128,-1,14
 176 410 176 410 198 410 c 0,15,16
 218 410 218 410 233 396 c 0,17,18
 246 383 246 383 249 364 c 1,19,20
 251 383 251 383 265.5 396.5 c 128,-1,21
 280 410 280 410 300 410 c 0,22,23
 322 410 322 410 336 394 c 0,24,25
 349 381 349 381 351 362 c 1,26,27
 352 380 352 380 366 394 c 0,28,29
 381 409 381 409 403 410 c 0,30,31
 425 410 425 410 439.5 395 c 128,-1,32
 454 380 454 380 454 358 c 256,33,34
 454 336 454 336 439 321.5 c 128,-1,35
 424 307 424 307 403 307 c 0,36,37
 383 307 383 307 368 321 c 0,38,39
 354 333 354 333 351 353 c 1,40,41
 348 333 348 333 335 321 c 0,42,43
 321 308 321 308 300 307 c 0,44,45
 280 307 280 307 265 321 c 0,46,47
 251 333 251 333 249 353 c 1,48,49
 246 333 246 333 233 321 c 0,50,51
 219 308 219 308 198 307 c 0,52,53
 178 307 178 307 163 321 c 0,54,55
 149 333 149 333 147 353 c 1,56,57
 144 334 144 334 131 321.5 c 128,-1,58
 118 309 118 309 101 307 c 1,59,60
 120 304 120 304 133 291 c 0,61,62
 146 277 146 277 147 256 c 0,63,64
 147 236 147 236 133.5 221.5 c 128,-1,65
 120 207 120 207 101 205 c 1,66,67
 120 202 120 202 133 188 c 128,-1,68
 146 174 146 174 147 154 c 0,69,70
 147 132 147 132 132 117 c 128,-1,71
 117 102 117 102 95 102 c 256,72,73
 73 102 73 102 58.5 117 c 128,-1,74
 44 132 44 132 44 154 c 0,75,76
 44 174 44 174 58 188 c 0,77,78
 70 201 70 201 90 205 c 1,79,80
 70 207 70 207 58 221 c 0,81,82
 45 235 45 235 44 256 c 0,83,84
 44 276 44 276 58 291 c 0,85,86
 70 304 70 304 90 307 c 1,87,88
 70 309 70 309 58 324 c 0,89,90
 45 338 45 338 44 358 c 0,91,92
 44 378 44 378 58 393 c 0,93,94
 70 406 70 406 90 410 c 1,95,96
 70 412 70 412 58 426 c 0,97,98
 44 441 44 441 44 461 c 0,0,1
147 51 m 256,99,100
 147 73 147 73 161.5 87.5 c 128,-1,101
 176 102 176 102 198 102 c 0,102,103
 218 102 218 102 233 89 c 0,104,105
 246 76 246 76 249 56 c 1,106,107
 251 75 251 75 265.5 88.5 c 128,-1,108
 280 102 280 102 300 102 c 256,109,110
 320 102 320 102 335 89 c 0,111,112
 348 76 348 76 351 56 c 1,113,114
 353 75 353 75 367.5 88.5 c 128,-1,115
 382 102 382 102 403 102 c 0,116,117
 425 102 425 102 439.5 87.5 c 128,-1,118
 454 73 454 73 454 51 c 256,119,120
 454 29 454 29 439 14.5 c 128,-1,121
 424 0 424 0 403 0 c 0,122,123
 383 0 383 0 368 13 c 0,124,125
 354 25 354 25 351 46 c 1,126,127
 348 26 348 26 335 13 c 0,128,129
 321 0 321 0 300 0 c 0,130,131
 280 0 280 0 265 13 c 0,132,133
 251 25 251 25 249 46 c 1,134,135
 246 26 246 26 233 13 c 0,136,137
 219 0 219 0 198 0 c 0,138,139
 176 0 176 0 161.5 14.5 c 128,-1,140
 147 29 147 29 147 51 c 256,99,100
249 666 m 256,141,142
 249 688 249 688 264 702.5 c 128,-1,143
 279 717 279 717 300 717 c 0,144,145
 320 717 320 717 335 703 c 0,146,147
 348 690 348 690 351 671 c 1,148,149
 353 690 353 690 367.5 703.5 c 128,-1,150
 382 717 382 717 403 717 c 0,151,152
 425 717 425 717 439.5 702 c 128,-1,153
 454 687 454 687 454 666 c 0,154,155
 454 644 454 644 439 629 c 128,-1,156
 424 614 424 614 403 614 c 0,157,158
 383 614 383 614 368 628 c 0,159,160
 354 640 354 640 351 660 c 1,161,162
 348 640 348 640 335 628 c 0,163,164
 321 615 321 615 300 614 c 0,165,166
 278 614 278 614 263.5 629 c 128,-1,167
 249 644 249 644 249 666 c 256,141,142
454 154 m 0,168,169
 454 174 454 174 467 188 c 0,170,171
 479 201 479 201 500 205 c 1,172,173
 480 207 480 207 467 221 c 128,-1,174
 454 235 454 235 454 256 c 0,175,176
 454 278 454 278 468.5 292.5 c 128,-1,177
 483 307 483 307 505 307 c 256,178,179
 527 307 527 307 541.5 292.5 c 128,-1,180
 556 278 556 278 556 256 c 0,181,182
 556 236 556 236 543 221.5 c 128,-1,183
 530 207 530 207 510 205 c 1,184,185
 529 202 529 202 543 188 c 0,186,187
 556 174 556 174 556 154 c 0,188,189
 556 132 556 132 541.5 117 c 128,-1,190
 527 102 527 102 505 102 c 256,191,192
 483 102 483 102 468.5 117 c 128,-1,193
 454 132 454 132 454 154 c 0,168,169
147 563 m 256,194,195
 147 585 147 585 161.5 599.5 c 128,-1,196
 176 614 176 614 198 614 c 256,197,198
 220 614 220 614 234.5 599.5 c 128,-1,199
 249 585 249 585 249 563 c 256,200,201
 249 541 249 541 234 526.5 c 128,-1,202
 219 512 219 512 198 512 c 0,203,204
 176 512 176 512 161.5 526.5 c 128,-1,205
 147 541 147 541 147 563 c 256,194,195
EndSplineSet
EndChar

StartChar: seven
Encoding: 55 55 4
Width: 600
VWidth: 1024
Flags: W
LayerCount: 2
Fore
SplineSet
454 563 m 0,0,1
 454 583 454 583 467 598 c 0,2,3
 479 611 479 611 500 614 c 1,4,5
 481 616 481 616 468.5 628.5 c 128,-1,6
 456 641 456 641 454 660 c 1,7,8
 451 640 451 640 437 628 c 0,9,10
 423 615 423 615 403 614 c 0,11,12
 383 614 383 614 368 628 c 0,13,14
 354 640 354 640 351 660 c 1,15,16
 348 640 348 640 335 628 c 0,17,18
 321 615 321 615 300 614 c 0,19,20
 280 614 280 614 265 628 c 0,21,22
 251 640 251 640 249 660 c 1,23,24
 246 640 246 640 233 628 c 0,25,26
 219 615 219 615 198 614 c 0,27,28
 178 614 178 614 163 628 c 0,29,30
 149 640 149 640 147 660 c 1,31,32
 144 640 144 640 130 628 c 0,33,34
 116 615 116 615 95 614 c 0,35,36
 73 614 73 614 58.5 629 c 128,-1,37
 44 644 44 644 44 666 c 256,38,39
 44 688 44 688 59 702.5 c 128,-1,40
 74 717 74 717 95 717 c 0,41,42
 115 717 115 717 130 703.5 c 128,-1,43
 145 690 145 690 147 670 c 1,44,45
 149 690 149 690 163 703.5 c 128,-1,46
 177 717 177 717 198 717 c 0,47,48
 218 717 218 717 233 703 c 0,49,50
 246 690 246 690 249 671 c 1,51,52
 251 690 251 690 265.5 703.5 c 128,-1,53
 280 717 280 717 300 717 c 256,54,55
 320 717 320 717 334.5 703.5 c 128,-1,56
 349 690 349 690 351 670 c 1,57,58
 353 690 353 690 367.5 703.5 c 128,-1,59
 382 717 382 717 403 717 c 0,60,61
 425 717 425 717 439.5 702 c 128,-1,62
 454 687 454 687 454 666 c 1,63,64
 454 688 454 688 468.5 702.5 c 128,-1,65
 483 717 483 717 505 717 c 256,66,67
 527 717 527 717 541.5 702 c 128,-1,68
 556 687 556 687 556 666 c 0,69,70
 556 646 556 646 543 631 c 128,-1,71
 530 616 530 616 510 614 c 1,72,73
 529 611 529 611 543 598 c 0,74,75
 556 584 556 584 556 563 c 0,76,77
 556 541 556 541 541.5 526.5 c 128,-1,78
 527 512 527 512 505 512 c 256,79,80
 483 512 483 512 468.5 526.5 c 128,-1,81
 454 541 454 541 454 563 c 0,0,1
249 256 m 256,82,83
 249 276 249 276 262 291 c 0,84,85
 274 304 274 304 295 307 c 1,86,87
 275 309 275 309 262 324 c 0,88,89
 249 338 249 338 249 358 c 0,90,91
 249 380 249 380 264 395 c 128,-1,92
 279 410 279 410 300 410 c 0,93,94
 322 410 322 410 336.5 395 c 128,-1,95
 351 380 351 380 351 358 c 0,96,97
 351 338 351 338 338 323.5 c 128,-1,98
 325 309 325 309 305 307 c 1,99,100
 324 304 324 304 338 291 c 0,101,102
 351 277 351 277 351 256 c 0,103,104
 351 236 351 236 338 221.5 c 128,-1,105
 325 207 325 207 305 205 c 1,106,107
 324 202 324 202 338 188 c 0,108,109
 351 174 351 174 351 154 c 256,110,111
 351 134 351 134 338 119 c 128,-1,112
 325 104 325 104 305 102 c 1,113,114
 324 99 324 99 338 86 c 0,115,116
 351 72 351 72 351 51 c 0,117,118
 351 29 351 29 336.5 14.5 c 128,-1,119
 322 0 322 0 300 0 c 256,120,121
 278 0 278 0 263.5 15 c 128,-1,122
 249 30 249 30 249 51 c 0,123,124
 249 71 249 71 262 86 c 0,125,126
 274 99 274 99 295 102 c 1,127,128
 275 104 275 104 262 119 c 0,129,130
 249 133 249 133 249 154 c 0,131,132
 249 174 249 174 262 188 c 0,133,134
 274 201 274 201 295 205 c 1,135,136
 275 207 275 207 262 221 c 0,137,138
 249 236 249 236 249 256 c 256,82,83
351 461 m 256,139,140
 351 483 351 483 366 497.5 c 128,-1,141
 381 512 381 512 403 512 c 256,142,143
 425 512 425 512 439.5 497 c 128,-1,144
 454 482 454 482 454 461 c 0,145,146
 454 439 454 439 439 424.5 c 128,-1,147
 424 410 424 410 403 410 c 0,148,149
 381 410 381 410 366 424.5 c 128,-1,150
 351 439 351 439 351 461 c 256,139,140
EndSplineSet
EndChar

StartChar: eight
Encoding: 56 56 5
Width: 600
VWidth: 1024
Flags: W
LayerCount: 2
Fore
SplineSet
147 666 m 256,0,1
 147 688 147 688 161.5 702.5 c 128,-1,2
 176 717 176 717 198 717 c 256,3,4
 220 717 220 717 234 701 c 0,5,6
 247 688 247 688 249 670 c 1,7,8
 250 688 250 688 263 701 c 0,9,10
 278 716 278 716 300 717 c 0,11,12
 322 717 322 717 336.5 702 c 128,-1,13
 351 687 351 687 351 666 c 1,14,15
 351 688 351 688 366 702.5 c 128,-1,16
 381 717 381 717 403 717 c 256,17,18
 425 717 425 717 439.5 702 c 128,-1,19
 454 687 454 687 454 666 c 0,20,21
 454 644 454 644 439 629 c 128,-1,22
 424 614 424 614 403 614 c 0,23,24
 383 614 383 614 368 628 c 0,25,26
 354 640 354 640 351 660 c 1,27,28
 348 640 348 640 335 628 c 0,29,30
 321 615 321 615 300 614 c 0,31,32
 280 614 280 614 265 628 c 0,33,34
 251 640 251 640 249 660 c 1,35,36
 246 640 246 640 233 628 c 0,37,38
 219 615 219 615 198 614 c 0,39,40
 176 614 176 614 161.5 629 c 128,-1,41
 147 644 147 644 147 666 c 256,0,1
147 358 m 256,42,43
 147 380 147 380 161.5 395 c 128,-1,44
 176 410 176 410 198 410 c 256,45,46
 220 410 220 410 234.5 395 c 128,-1,47
 249 380 249 380 249 358 c 1,48,49
 249 380 249 380 264 395 c 128,-1,50
 279 410 279 410 300 410 c 0,51,52
 322 410 322 410 336 394 c 0,53,54
 349 381 349 381 351 362 c 1,55,56
 352 380 352 380 366 394 c 0,57,58
 381 409 381 409 403 410 c 0,59,60
 425 410 425 410 439.5 395 c 128,-1,61
 454 380 454 380 454 358 c 256,62,63
 454 336 454 336 439 321.5 c 128,-1,64
 424 307 424 307 403 307 c 0,65,66
 383 307 383 307 368 321 c 0,67,68
 354 333 354 333 351 353 c 1,69,70
 348 333 348 333 335 321 c 0,71,72
 321 308 321 308 300 307 c 0,73,74
 280 307 280 307 265 321 c 0,75,76
 251 333 251 333 249 353 c 1,77,78
 246 333 246 333 233 321 c 0,79,80
 219 308 219 308 198 307 c 0,81,82
 176 307 176 307 161.5 321.5 c 128,-1,83
 147 336 147 336 147 358 c 256,42,43
147 51 m 256,84,85
 147 73 147 73 161.5 87.5 c 128,-1,86
 176 102 176 102 198 102 c 0,87,88
 218 102 218 102 232.5 89 c 128,-1,89
 247 76 247 76 249 55 c 1,90,91
 251 75 251 75 265.5 88.5 c 128,-1,92
 280 102 280 102 300 102 c 0,93,94
 322 102 322 102 336.5 87.5 c 128,-1,95
 351 73 351 73 351 51 c 1,96,97
 351 73 351 73 366 87.5 c 128,-1,98
 381 102 381 102 403 102 c 256,99,100
 425 102 425 102 439.5 87.5 c 128,-1,101
 454 73 454 73 454 51 c 256,102,103
 454 29 454 29 439 14.5 c 128,-1,104
 424 0 424 0 403 0 c 0,105,106
 383 0 383 0 368 13 c 0,107,108
 354 25 354 25 351 46 c 1,109,110
 348 26 348 26 335 13 c 0,111,112
 321 0 321 0 300 0 c 0,113,114
 280 0 280 0 265 13 c 0,115,116
 251 25 251 25 249 46 c 1,117,118
 246 26 246 26 233 13 c 0,119,120
 219 0 219 0 198 0 c 0,121,122
 176 0 176 0 161.5 14.5 c 128,-1,123
 147 29 147 29 147 51 c 256,84,85
44 563 m 0,124,125
 44 585 44 585 59 599.5 c 128,-1,126
 74 614 74 614 95 614 c 0,127,128
 117 614 117 614 132 599.5 c 128,-1,129
 147 585 147 585 147 563 c 0,130,131
 147 543 147 543 133.5 528.5 c 128,-1,132
 120 514 120 514 101 512 c 1,133,134
 120 509 120 509 133 496 c 0,135,136
 146 482 146 482 147 461 c 0,137,138
 147 439 147 439 132 424.5 c 128,-1,139
 117 410 117 410 95 410 c 256,140,141
 73 410 73 410 58.5 424.5 c 128,-1,142
 44 439 44 439 44 461 c 0,143,144
 44 481 44 481 58 496 c 0,145,146
 70 509 70 509 90 512 c 1,147,148
 70 514 70 514 58 528 c 0,149,150
 44 543 44 543 44 563 c 0,124,125
44 154 m 0,151,152
 44 174 44 174 58 188 c 0,153,154
 70 201 70 201 90 205 c 1,155,156
 70 207 70 207 58 221 c 0,157,158
 45 235 45 235 44 256 c 0,159,160
 44 278 44 278 59 292.5 c 128,-1,161
 74 307 74 307 95 307 c 0,162,163
 117 307 117 307 132 292.5 c 128,-1,164
 147 278 147 278 147 256 c 0,165,166
 147 236 147 236 133.5 221.5 c 128,-1,167
 120 207 120 207 101 205 c 1,168,169
 120 202 120 202 133 188 c 128,-1,170
 146 174 146 174 147 154 c 0,171,172
 147 132 147 132 132 117 c 128,-1,173
 117 102 117 102 95 102 c 256,174,175
 73 102 73 102 58.5 117 c 128,-1,176
 44 132 44 132 44 154 c 0,151,152
454 563 m 0,177,178
 454 585 454 585 468.5 599.5 c 128,-1,179
 483 614 483 614 505 614 c 256,180,181
 527 614 527 614 541.5 599.5 c 128,-1,182
 556 585 556 585 556 563 c 0,183,184
 556 543 556 543 543 528.5 c 128,-1,185
 530 514 530 514 510 512 c 1,186,187
 529 509 529 509 543 496 c 0,188,189
 556 482 556 482 556 461 c 0,190,191
 556 439 556 439 541.5 424.5 c 128,-1,192
 527 410 527 410 505 410 c 256,193,194
 483 410 483 410 468.5 424.5 c 128,-1,195
 454 439 454 439 454 461 c 0,196,197
 454 481 454 481 467 496 c 0,198,199
 479 509 479 509 500 512 c 1,200,201
 480 514 480 514 467 528 c 0,202,203
 454 543 454 543 454 563 c 0,177,178
454 154 m 0,204,205
 454 174 454 174 467 188 c 0,206,207
 479 201 479 201 500 205 c 1,208,209
 480 207 480 207 467 221 c 128,-1,210
 454 235 454 235 454 256 c 0,211,212
 454 278 454 278 468.5 292.5 c 128,-1,213
 483 307 483 307 505 307 c 256,214,215
 527 307 527 307 541.5 292.5 c 128,-1,216
 556 278 556 278 556 256 c 0,217,218
 556 236 556 236 543 221.5 c 128,-1,219
 530 207 530 207 510 205 c 1,220,221
 529 202 529 202 543 188 c 0,222,223
 556 174 556 174 556 154 c 0,224,225
 556 132 556 132 541.5 117 c 128,-1,226
 527 102 527 102 505 102 c 256,227,228
 483 102 483 102 468.5 117 c 128,-1,229
 454 132 454 132 454 154 c 0,204,205
EndSplineSet
EndChar

StartChar: nine
Encoding: 57 57 6
Width: 600
VWidth: 1024
Flags: W
LayerCount: 2
Fore
SplineSet
454 256 m 0,0,1
 454 276 454 276 467 291 c 0,2,3
 479 304 479 304 500 307 c 1,4,5
 481 309 481 309 468.5 321.5 c 128,-1,6
 456 334 456 334 454 353 c 1,7,8
 451 333 451 333 437 321 c 0,9,10
 423 308 423 308 403 307 c 0,11,12
 383 307 383 307 368 321 c 0,13,14
 354 333 354 333 351 353 c 1,15,16
 348 333 348 333 335 321 c 0,17,18
 321 308 321 308 300 307 c 0,19,20
 280 307 280 307 265 321 c 0,21,22
 251 333 251 333 249 353 c 1,23,24
 246 333 246 333 233 321 c 0,25,26
 219 308 219 308 198 307 c 0,27,28
 176 307 176 307 161.5 322 c 128,-1,29
 147 337 147 337 147 358 c 0,30,31
 147 380 147 380 161.5 395 c 128,-1,32
 176 410 176 410 198 410 c 256,33,34
 220 410 220 410 234 394 c 0,35,36
 247 381 247 381 249 362 c 1,37,38
 250 380 250 380 263 394 c 0,39,40
 278 409 278 409 300 410 c 0,41,42
 322 410 322 410 336.5 395 c 128,-1,43
 351 380 351 380 351 358 c 1,44,45
 351 380 351 380 366 395 c 128,-1,46
 381 410 381 410 403 410 c 256,47,48
 425 410 425 410 438 394 c 0,49,50
 451 381 451 381 454 362 c 1,51,52
 455 379 455 379 467 393 c 0,53,54
 479 406 479 406 500 410 c 1,55,56
 480 412 480 412 467 426 c 128,-1,57
 454 440 454 440 454 461 c 0,58,59
 454 481 454 481 467 496 c 0,60,61
 479 509 479 509 500 512 c 1,62,63
 480 514 480 514 467 528 c 128,-1,64
 454 542 454 542 454 563 c 0,65,66
 454 585 454 585 468.5 599.5 c 128,-1,67
 483 614 483 614 505 614 c 256,68,69
 527 614 527 614 541.5 599.5 c 128,-1,70
 556 585 556 585 556 563 c 0,71,72
 556 543 556 543 543 528.5 c 128,-1,73
 530 514 530 514 510 512 c 1,74,75
 529 509 529 509 543 496 c 0,76,77
 556 482 556 482 556 461 c 0,78,79
 556 441 556 441 543 426.5 c 128,-1,80
 530 412 530 412 510 410 c 1,81,82
 529 407 529 407 543 393 c 0,83,84
 556 379 556 379 556 358 c 0,85,86
 556 338 556 338 543 323.5 c 128,-1,87
 530 309 530 309 510 307 c 1,88,89
 529 304 529 304 543 291 c 0,90,91
 556 277 556 277 556 256 c 0,92,93
 556 234 556 234 541.5 219.5 c 128,-1,94
 527 205 527 205 505 205 c 256,95,96
 483 205 483 205 468.5 219.5 c 128,-1,97
 454 234 454 234 454 256 c 0,0,1
147 666 m 256,98,99
 147 688 147 688 161.5 702.5 c 128,-1,100
 176 717 176 717 198 717 c 0,101,102
 218 717 218 717 233 703 c 0,103,104
 246 690 246 690 249 671 c 1,105,106
 251 690 251 690 265.5 703.5 c 128,-1,107
 280 717 280 717 300 717 c 0,108,109
 322 717 322 717 336.5 702 c 128,-1,110
 351 687 351 687 351 666 c 1,111,112
 351 688 351 688 366 702.5 c 128,-1,113
 381 717 381 717 403 717 c 256,114,115
 425 717 425 717 439.5 702 c 128,-1,116
 454 687 454 687 454 666 c 0,117,118
 454 644 454 644 439 629 c 128,-1,119
 424 614 424 614 403 614 c 0,120,121
 383 614 383 614 368 628 c 0,122,123
 354 640 354 640 351 660 c 1,124,125
 348 640 348 640 335 628 c 0,126,127
 321 615 321 615 300 614 c 0,128,129
 280 614 280 614 265 628 c 0,130,131
 251 640 251 640 249 660 c 1,132,133
 246 640 246 640 233 628 c 0,134,135
 219 615 219 615 198 614 c 0,136,137
 176 614 176 614 161.5 629 c 128,-1,138
 147 644 147 644 147 666 c 256,98,99
147 51 m 256,139,140
 147 73 147 73 161.5 87.5 c 128,-1,141
 176 102 176 102 198 102 c 0,142,143
 218 102 218 102 233 89 c 0,144,145
 246 76 246 76 249 56 c 1,146,147
 251 75 251 75 265.5 88.5 c 128,-1,148
 280 102 280 102 300 102 c 0,149,150
 322 102 322 102 336.5 87.5 c 128,-1,151
 351 73 351 73 351 51 c 256,152,153
 351 29 351 29 336.5 14.5 c 128,-1,154
 322 0 322 0 300 0 c 0,155,156
 280 0 280 0 265 13 c 0,157,158
 251 25 251 25 249 46 c 1,159,160
 246 26 246 26 233 13 c 0,161,162
 219 0 219 0 198 0 c 0,163,164
 176 0 176 0 161.5 14.5 c 128,-1,165
 147 29 147 29 147 51 c 256,139,140
44 563 m 0,166,167
 44 585 44 585 59 599.5 c 128,-1,168
 74 614 74 614 95 614 c 0,169,170
 117 614 117 614 132 599.5 c 128,-1,171
 147 585 147 585 147 563 c 0,172,173
 147 543 147 543 133.5 528.5 c 128,-1,174
 120 514 120 514 101 512 c 1,175,176
 120 509 120 509 133 496 c 0,177,178
 146 482 146 482 147 461 c 0,179,180
 147 439 147 439 132 424.5 c 128,-1,181
 117 410 117 410 95 410 c 256,182,183
 73 410 73 410 58.5 424.5 c 128,-1,184
 44 439 44 439 44 461 c 0,185,186
 44 481 44 481 58 496 c 0,187,188
 70 509 70 509 90 512 c 1,189,190
 70 514 70 514 58 528 c 0,191,192
 44 543 44 543 44 563 c 0,166,167
351 154 m 256,193,194
 351 176 351 176 366 190.5 c 128,-1,195
 381 205 381 205 403 205 c 256,196,197
 425 205 425 205 439.5 190 c 128,-1,198
 454 175 454 175 454 154 c 0,199,200
 454 132 454 132 439 117 c 128,-1,201
 424 102 424 102 403 102 c 0,202,203
 381 102 381 102 366 117 c 128,-1,204
 351 132 351 132 351 154 c 256,193,194
EndSplineSet
EndChar

StartChar: colon
Encoding: 58 58 7
Width: 600
VWidth: 1024
Flags: W
LayerCount: 2
Fore
SplineSet
197 563 m 0,0,1
 197 585 197 585 212 599.5 c 128,-1,2
 227 614 227 614 249 614 c 0,3,4
 269 614 269 614 283 601 c 0,5,6
 295 588 295 588 299 568 c 1,7,8
 301 587 301 587 316 600.5 c 128,-1,9
 331 614 331 614 351 614 c 0,10,11
 373 614 373 614 388 599.5 c 128,-1,12
 403 585 403 585 403 563 c 0,13,14
 403 543 403 543 389 528.5 c 128,-1,15
 375 514 375 514 357 512 c 1,16,17
 377 509 377 509 389 496 c 0,18,19
 403 482 403 482 403 461 c 0,20,21
 403 439 403 439 388 424.5 c 128,-1,22
 373 410 373 410 351 410 c 0,23,24
 331 410 331 410 317 423 c 0,25,26
 303 435 303 435 299 456 c 1,27,28
 295 436 295 436 283 423 c 0,29,30
 269 410 269 410 249 410 c 0,31,32
 227 410 227 410 212 424.5 c 128,-1,33
 197 439 197 439 197 461 c 0,34,35
 197 481 197 481 211 496 c 0,36,37
 223 509 223 509 243 512 c 1,38,39
 223 514 223 514 211 528 c 0,40,41
 197 543 197 543 197 563 c 0,0,1
197 256 m 0,42,43
 197 278 197 278 212 292.5 c 128,-1,44
 227 307 227 307 249 307 c 0,45,46
 269 307 269 307 283 294 c 128,-1,47
 297 281 297 281 299 260 c 1,48,49
 301 280 301 280 316 293.5 c 128,-1,50
 331 307 331 307 351 307 c 0,51,52
 373 307 373 307 388 292.5 c 128,-1,53
 403 278 403 278 403 256 c 0,54,55
 403 236 403 236 389 221.5 c 128,-1,56
 375 207 375 207 357 205 c 1,57,58
 376 202 376 202 388.5 188 c 128,-1,59
 401 174 401 174 403 154 c 0,60,61
 403 132 403 132 388 117 c 128,-1,62
 373 102 373 102 351 102 c 0,63,64
 331 102 331 102 317 116 c 0,65,66
 303 128 303 128 299 148 c 1,67,68
 295 128 295 128 283 116 c 0,69,70
 269 103 269 103 249 102 c 0,71,72
 227 102 227 102 212 117 c 128,-1,73
 197 132 197 132 197 154 c 0,74,75
 197 174 197 174 211 188 c 0,76,77
 223 201 223 201 243 205 c 1,78,79
 223 207 223 207 211 221 c 0,80,81
 197 236 197 236 197 256 c 0,42,43
313 188 m 256,82,83
 325 201 325 201 345 205 c 1,84,85
 326 207 326 207 313.5 219 c 128,-1,86
 301 231 301 231 299 251 c 1,87,88
 296 232 296 232 283.5 219.5 c 128,-1,89
 271 207 271 207 253 205 c 1,90,91
 273 202 273 202 287 188 c 0,92,93
 297 175 297 175 299 158 c 1,94,95
 301 175 301 175 313 188 c 256,82,83
313 496 m 256,96,97
 325 509 325 509 345 512 c 1,98,99
 326 514 326 514 313.5 526.5 c 128,-1,100
 301 539 301 539 299 558 c 1,101,102
 296 539 296 539 283.5 526.5 c 128,-1,103
 271 514 271 514 253 512 c 1,104,105
 273 509 273 509 287 496 c 0,106,107
 297 483 297 483 299 465 c 1,108,109
 301 483 301 483 313 496 c 256,96,97
EndSplineSet
EndChar

StartChar: semicolon
Encoding: 59 59 8
Width: 600
VWidth: 1024
Flags: W
LayerCount: 2
Fore
SplineSet
197 256 m 0,0,1
 197 278 197 278 212 292.5 c 128,-1,2
 227 307 227 307 249 307 c 256,3,4
 271 307 271 307 285 292.5 c 128,-1,5
 299 278 299 278 299 256 c 1,6,7
 299 278 299 278 314 292.5 c 128,-1,8
 329 307 329 307 351 307 c 0,9,10
 373 307 373 307 388 292.5 c 128,-1,11
 403 278 403 278 403 256 c 0,12,13
 403 236 403 236 389 221.5 c 128,-1,14
 375 207 375 207 357 205 c 1,15,16
 376 202 376 202 388.5 188 c 128,-1,17
 401 174 401 174 403 154 c 0,18,19
 403 132 403 132 388 117 c 128,-1,20
 373 102 373 102 351 102 c 0,21,22
 331 102 331 102 317 116 c 0,23,24
 303 128 303 128 299 148 c 1,25,26
 296 129 296 129 283.5 116.5 c 128,-1,27
 271 104 271 104 253 102 c 1,28,29
 273 99 273 99 287 86 c 0,30,31
 299 72 299 72 299 51 c 0,32,33
 299 29 299 29 285 14.5 c 128,-1,34
 271 0 271 0 249 0 c 256,35,36
 227 0 227 0 212 15 c 128,-1,37
 197 30 197 30 197 51 c 0,38,39
 197 71 197 71 211 86 c 0,40,41
 223 99 223 99 243 102 c 1,42,43
 223 104 223 104 211 119 c 0,44,45
 197 133 197 133 197 154 c 0,46,47
 197 174 197 174 211 188 c 0,48,49
 223 201 223 201 243 205 c 1,50,51
 223 207 223 207 211 221 c 0,52,53
 197 236 197 236 197 256 c 0,0,1
197 563 m 0,54,55
 197 585 197 585 212 599.5 c 128,-1,56
 227 614 227 614 249 614 c 256,57,58
 271 614 271 614 285 599.5 c 128,-1,59
 299 585 299 585 299 563 c 1,60,61
 299 585 299 585 314 599.5 c 128,-1,62
 329 614 329 614 351 614 c 0,63,64
 373 614 373 614 388 599.5 c 128,-1,65
 403 585 403 585 403 563 c 0,66,67
 403 543 403 543 389 528.5 c 128,-1,68
 375 514 375 514 357 512 c 1,69,70
 377 509 377 509 389 496 c 0,71,72
 403 482 403 482 403 461 c 0,73,74
 403 439 403 439 388 424.5 c 128,-1,75
 373 410 373 410 351 410 c 0,76,77
 331 410 331 410 317 423 c 0,78,79
 303 435 303 435 299 456 c 1,80,81
 295 436 295 436 283 423 c 0,82,83
 269 410 269 410 249 410 c 0,84,85
 227 410 227 410 212 424.5 c 128,-1,86
 197 439 197 439 197 461 c 0,87,88
 197 481 197 481 211 496 c 0,89,90
 223 509 223 509 243 512 c 1,91,92
 223 514 223 514 211 528 c 0,93,94
 197 543 197 543 197 563 c 0,54,55
315 497 m 0,95,96
 327 509 327 509 345 512 c 1,97,98
 326 514 326 514 313.5 526.5 c 128,-1,99
 301 539 301 539 299 558 c 1,100,101
 296 539 296 539 283.5 526.5 c 128,-1,102
 271 514 271 514 253 512 c 1,103,104
 270 509 270 509 283.5 496 c 128,-1,105
 297 483 297 483 299 466 c 1,106,107
 303 484 303 484 315 497 c 0,95,96
313 188 m 256,108,109
 325 201 325 201 345 205 c 1,110,111
 326 207 326 207 313.5 219 c 128,-1,112
 301 231 301 231 299 251 c 1,113,114
 296 232 296 232 283.5 219.5 c 128,-1,115
 271 207 271 207 253 205 c 1,116,117
 273 202 273 202 287 188 c 0,118,119
 297 175 297 175 299 158 c 1,120,121
 301 175 301 175 313 188 c 256,108,109
EndSplineSet
EndChar

StartChar: less
Encoding: 60 60 9
Width: 600
VWidth: 1024
Flags: W
LayerCount: 2
Fore
SplineSet
249 358 m 256,0,1
 249 380 249 380 264 395 c 128,-1,2
 279 410 279 410 299 410 c 0,3,4
 321 410 321 410 336 395 c 128,-1,5
 351 380 351 380 351 358 c 256,6,7
 351 336 351 336 336 321.5 c 128,-1,8
 321 307 321 307 299 307 c 256,9,10
 277 307 277 307 263 321.5 c 128,-1,11
 249 336 249 336 249 358 c 256,0,1
249 154 m 256,12,13
 249 176 249 176 264 190.5 c 128,-1,14
 279 205 279 205 299 205 c 0,15,16
 321 205 321 205 336 190 c 128,-1,17
 351 175 351 175 351 154 c 0,18,19
 351 132 351 132 336 117 c 128,-1,20
 321 102 321 102 299 102 c 256,21,22
 277 102 277 102 263 117 c 128,-1,23
 249 132 249 132 249 154 c 256,12,13
351 461 m 256,24,25
 351 483 351 483 366 497.5 c 128,-1,26
 381 512 381 512 403 512 c 256,27,28
 425 512 425 512 439 497 c 128,-1,29
 453 482 453 482 453 461 c 0,30,31
 453 439 453 439 438 424.5 c 128,-1,32
 423 410 423 410 403 410 c 0,33,34
 381 410 381 410 366 424.5 c 128,-1,35
 351 439 351 439 351 461 c 256,24,25
351 51 m 256,36,37
 351 73 351 73 366 87.5 c 128,-1,38
 381 102 381 102 403 102 c 256,39,40
 425 102 425 102 439 87.5 c 128,-1,41
 453 73 453 73 453 51 c 256,42,43
 453 29 453 29 438 14.5 c 128,-1,44
 423 0 423 0 403 0 c 0,45,46
 381 0 381 0 366 14.5 c 128,-1,47
 351 29 351 29 351 51 c 256,36,37
147 256 m 256,48,49
 147 278 147 278 161 292.5 c 128,-1,50
 175 307 175 307 197 307 c 256,51,52
 219 307 219 307 234 292.5 c 128,-1,53
 249 278 249 278 249 256 c 256,54,55
 249 234 249 234 234 219.5 c 128,-1,56
 219 205 219 205 197 205 c 0,57,58
 175 205 175 205 161 219.5 c 128,-1,59
 147 234 147 234 147 256 c 256,48,49
EndSplineSet
EndChar

StartChar: equal
Encoding: 61 61 10
Width: 600
VWidth: 1024
Flags: W
LayerCount: 2
Fore
SplineSet
44 461 m 256,0,1
 44 483 44 483 59 497.5 c 128,-1,2
 74 512 74 512 95 512 c 0,3,4
 115 512 115 512 130 499 c 0,5,6
 143 486 143 486 147 466 c 1,7,8
 149 485 149 485 163 498.5 c 128,-1,9
 177 512 177 512 198 512 c 0,10,11
 220 512 220 512 234.5 497 c 128,-1,12
 249 482 249 482 249 461 c 1,13,14
 249 483 249 483 264 497.5 c 128,-1,15
 279 512 279 512 300 512 c 0,16,17
 322 512 322 512 336 497 c 0,18,19
 349 484 349 484 351 465 c 1,20,21
 352 483 352 483 366 497 c 0,22,23
 381 512 381 512 403 512 c 0,24,25
 423 512 423 512 437 499 c 0,26,27
 450 486 450 486 454 466 c 1,28,29
 456 485 456 485 470.5 498.5 c 128,-1,30
 485 512 485 512 505 512 c 0,31,32
 527 512 527 512 541.5 497 c 128,-1,33
 556 482 556 482 556 461 c 0,34,35
 556 439 556 439 541.5 424.5 c 128,-1,36
 527 410 527 410 505 410 c 0,37,38
 485 410 485 410 470 423 c 0,39,40
 456 435 456 435 454 456 c 1,41,42
 451 436 451 436 437 423 c 128,-1,43
 423 410 423 410 403 410 c 256,44,45
 383 410 383 410 368 423 c 0,46,47
 354 435 354 435 351 456 c 1,48,49
 348 436 348 436 335 423 c 0,50,51
 321 410 321 410 300 410 c 0,52,53
 280 410 280 410 265 423 c 0,54,55
 251 435 251 435 249 456 c 1,56,57
 246 436 246 436 233 423 c 0,58,59
 219 410 219 410 198 410 c 0,60,61
 178 410 178 410 163 423 c 0,62,63
 149 435 149 435 147 456 c 1,64,65
 144 436 144 436 130 423 c 128,-1,66
 116 410 116 410 95 410 c 0,67,68
 73 410 73 410 58.5 424.5 c 128,-1,69
 44 439 44 439 44 461 c 256,0,1
44 256 m 256,70,71
 44 278 44 278 59 292.5 c 128,-1,72
 74 307 74 307 95 307 c 0,73,74
 115 307 115 307 130 294 c 128,-1,75
 145 281 145 281 147 260 c 1,76,77
 149 280 149 280 163 293.5 c 128,-1,78
 177 307 177 307 198 307 c 0,79,80
 220 307 220 307 234 292 c 0,81,82
 247 279 247 279 249 260 c 1,83,84
 250 278 250 278 263 292 c 0,85,86
 278 307 278 307 300 307 c 256,87,88
 322 307 322 307 336 292 c 0,89,90
 349 279 349 279 351 260 c 1,91,92
 352 278 352 278 366 292 c 0,93,94
 381 307 381 307 403 307 c 0,95,96
 423 307 423 307 437 294 c 0,97,98
 450 281 450 281 454 261 c 1,99,100
 456 280 456 280 470.5 293.5 c 128,-1,101
 485 307 485 307 505 307 c 0,102,103
 527 307 527 307 541.5 292.5 c 128,-1,104
 556 278 556 278 556 256 c 256,105,106
 556 234 556 234 541.5 219.5 c 128,-1,107
 527 205 527 205 505 205 c 0,108,109
 485 205 485 205 470 218 c 0,110,111
 456 230 456 230 454 251 c 1,112,113
 451 231 451 231 437 218 c 128,-1,114
 423 205 423 205 403 205 c 256,115,116
 383 205 383 205 368 218 c 0,117,118
 354 230 354 230 351 251 c 1,119,120
 348 231 348 231 335 218 c 0,121,122
 321 205 321 205 300 205 c 0,123,124
 280 205 280 205 265 218 c 0,125,126
 251 230 251 230 249 251 c 1,127,128
 246 231 246 231 233 218 c 0,129,130
 219 205 219 205 198 205 c 0,131,132
 178 205 178 205 163 218 c 0,133,134
 149 230 149 230 147 251 c 1,135,136
 144 231 144 231 130 218 c 128,-1,137
 116 205 116 205 95 205 c 0,138,139
 73 205 73 205 58.5 219.5 c 128,-1,140
 44 234 44 234 44 256 c 256,70,71
EndSplineSet
EndChar

StartChar: greater
Encoding: 62 62 11
Width: 600
VWidth: 1024
Flags: W
LayerCount: 2
Fore
SplineSet
249 357 m 256,0,1
 249 379 249 379 264 394 c 128,-1,2
 279 409 279 409 299 409 c 0,3,4
 321 409 321 409 336 394 c 128,-1,5
 351 379 351 379 351 357 c 256,6,7
 351 335 351 335 336 320.5 c 128,-1,8
 321 306 321 306 299 306 c 256,9,10
 277 306 277 306 263 320.5 c 128,-1,11
 249 335 249 335 249 357 c 256,0,1
249 153 m 0,12,13
 249 175 249 175 264 189.5 c 128,-1,14
 279 204 279 204 299 204 c 0,15,16
 321 204 321 204 336 189 c 128,-1,17
 351 174 351 174 351 153 c 0,18,19
 351 128 351 128 335 115 c 128,-1,20
 319 102 319 102 300 102 c 128,-1,21
 281 102 281 102 265 115 c 128,-1,22
 249 128 249 128 249 153 c 0,12,13
351 255 m 256,23,24
 351 277 351 277 366 291.5 c 128,-1,25
 381 306 381 306 403 306 c 256,26,27
 425 306 425 306 439 291 c 128,-1,28
 453 276 453 276 453 255 c 0,29,30
 453 233 453 233 438 218.5 c 128,-1,31
 423 204 423 204 403 204 c 0,32,33
 381 204 381 204 366 218.5 c 128,-1,34
 351 233 351 233 351 255 c 256,23,24
147 50 m 256,35,36
 147 72 147 72 161 86.5 c 128,-1,37
 175 101 175 101 197 101 c 256,38,39
 219 101 219 101 234 86.5 c 128,-1,40
 249 72 249 72 249 50 c 256,41,42
 249 28 249 28 234 13.5 c 128,-1,43
 219 -1 219 -1 197 -1 c 0,44,45
 175 -1 175 -1 161 13.5 c 128,-1,46
 147 28 147 28 147 50 c 256,35,36
147 460 m 256,47,48
 147 482 147 482 161 496.5 c 128,-1,49
 175 511 175 511 197 511 c 256,50,51
 219 511 219 511 234 496 c 128,-1,52
 249 481 249 481 249 460 c 0,53,54
 249 438 249 438 234 423.5 c 128,-1,55
 219 409 219 409 197 409 c 0,56,57
 175 409 175 409 161 423.5 c 128,-1,58
 147 438 147 438 147 460 c 256,47,48
EndSplineSet
EndChar

StartChar: question
Encoding: 63 63 12
Width: 600
VWidth: 1024
Flags: W
LayerCount: 2
Fore
SplineSet
147 666 m 256,0,1
 147 688 147 688 161.5 702.5 c 128,-1,2
 176 717 176 717 198 717 c 256,3,4
 220 717 220 717 234.5 702 c 128,-1,5
 249 687 249 687 249 666 c 1,6,7
 249 688 249 688 264 702.5 c 128,-1,8
 279 717 279 717 300 717 c 0,9,10
 320 717 320 717 335 703 c 0,11,12
 348 690 348 690 351 671 c 1,13,14
 353 690 353 690 367.5 703.5 c 128,-1,15
 382 717 382 717 403 717 c 0,16,17
 425 717 425 717 439.5 702 c 128,-1,18
 454 687 454 687 454 666 c 0,19,20
 454 644 454 644 439 629 c 128,-1,21
 424 614 424 614 403 614 c 0,22,23
 383 614 383 614 368 628 c 0,24,25
 354 640 354 640 351 660 c 1,26,27
 348 640 348 640 335 628 c 0,28,29
 321 615 321 615 300 614 c 0,30,31
 280 614 280 614 265 628 c 0,32,33
 251 640 251 640 249 660 c 1,34,35
 246 640 246 640 233 628 c 0,36,37
 219 615 219 615 198 614 c 0,38,39
 176 614 176 614 161.5 629 c 128,-1,40
 147 644 147 644 147 666 c 256,0,1
454 461 m 0,41,42
 454 481 454 481 467 496 c 0,43,44
 479 509 479 509 500 512 c 1,45,46
 480 514 480 514 467 528 c 128,-1,47
 454 542 454 542 454 563 c 0,48,49
 454 585 454 585 468.5 599.5 c 128,-1,50
 483 614 483 614 505 614 c 256,51,52
 527 614 527 614 541.5 599.5 c 128,-1,53
 556 585 556 585 556 563 c 0,54,55
 556 543 556 543 543 528.5 c 128,-1,56
 530 514 530 514 510 512 c 1,57,58
 529 509 529 509 543 496 c 0,59,60
 556 482 556 482 556 461 c 0,61,62
 556 439 556 439 541.5 424.5 c 128,-1,63
 527 410 527 410 505 410 c 256,64,65
 483 410 483 410 468.5 424.5 c 128,-1,66
 454 439 454 439 454 461 c 0,41,42
249 51 m 256,67,68
 249 73 249 73 264 87.5 c 128,-1,69
 279 102 279 102 300 102 c 0,70,71
 322 102 322 102 336.5 87.5 c 128,-1,72
 351 73 351 73 351 51 c 256,73,74
 351 29 351 29 336.5 14.5 c 128,-1,75
 322 0 322 0 300 0 c 256,76,77
 278 0 278 0 263.5 14.5 c 128,-1,78
 249 29 249 29 249 51 c 256,67,68
44 563 m 256,79,80
 44 585 44 585 59 599.5 c 128,-1,81
 74 614 74 614 95 614 c 0,82,83
 117 614 117 614 132 599.5 c 128,-1,84
 147 585 147 585 147 563 c 256,85,86
 147 541 147 541 132 526.5 c 128,-1,87
 117 512 117 512 95 512 c 256,88,89
 73 512 73 512 58.5 526.5 c 128,-1,90
 44 541 44 541 44 563 c 256,79,80
249 256 m 256,91,92
 249 278 249 278 264 292.5 c 128,-1,93
 279 307 279 307 300 307 c 0,94,95
 322 307 322 307 336.5 292.5 c 128,-1,96
 351 278 351 278 351 256 c 256,97,98
 351 234 351 234 336.5 219.5 c 128,-1,99
 322 205 322 205 300 205 c 256,100,101
 278 205 278 205 263.5 219.5 c 128,-1,102
 249 234 249 234 249 256 c 256,91,92
351 358 m 256,103,104
 351 380 351 380 366 395 c 128,-1,105
 381 410 381 410 403 410 c 256,106,107
 425 410 425 410 439.5 395 c 128,-1,108
 454 380 454 380 454 358 c 256,109,110
 454 336 454 336 439 321.5 c 128,-1,111
 424 307 424 307 403 307 c 0,112,113
 381 307 381 307 366 321.5 c 128,-1,114
 351 336 351 336 351 358 c 256,103,104
EndSplineSet
EndChar

StartChar: at
Encoding: 64 64 13
Width: 600
VWidth: 1024
Flags: W
LayerCount: 2
Fore
SplineSet
249 256 m 0,0,1
 249 276 249 276 262 291 c 0,2,3
 274 304 274 304 295 307 c 1,4,5
 275 309 275 309 262 324 c 0,6,7
 249 338 249 338 249 358 c 256,8,9
 249 378 249 378 262 393 c 0,10,11
 274 406 274 406 295 410 c 1,12,13
 275 412 275 412 262 426 c 128,-1,14
 249 440 249 440 249 461 c 0,15,16
 249 483 249 483 264 497.5 c 128,-1,17
 279 512 279 512 300 512 c 0,18,19
 320 512 320 512 335 499 c 0,20,21
 348 486 348 486 351 466 c 1,22,23
 353 485 353 485 367.5 498.5 c 128,-1,24
 382 512 382 512 403 512 c 0,25,26
 423 512 423 512 437.5 498.5 c 128,-1,27
 452 485 452 485 454 465 c 1,28,29
 456 483 456 483 468 497 c 0,30,31
 480 509 480 509 500 512 c 1,32,33
 480 514 480 514 467 528 c 128,-1,34
 454 542 454 542 454 563 c 0,35,36
 454 585 454 585 468.5 599.5 c 128,-1,37
 483 614 483 614 505 614 c 256,38,39
 527 614 527 614 541.5 599.5 c 128,-1,40
 556 585 556 585 556 563 c 0,41,42
 556 543 556 543 543 528.5 c 128,-1,43
 530 514 530 514 510 512 c 1,44,45
 529 509 529 509 543 496 c 0,46,47
 556 482 556 482 556 461 c 0,48,49
 556 441 556 441 543 426.5 c 128,-1,50
 530 412 530 412 510 410 c 1,51,52
 529 407 529 407 543 393 c 0,53,54
 556 379 556 379 556 358 c 0,55,56
 556 338 556 338 543 323.5 c 128,-1,57
 530 309 530 309 510 307 c 1,58,59
 529 304 529 304 543 291 c 0,60,61
 556 277 556 277 556 256 c 0,62,63
 556 234 556 234 541.5 219.5 c 128,-1,64
 527 205 527 205 505 205 c 0,65,66
 485 205 485 205 470 218 c 0,67,68
 456 230 456 230 454 251 c 1,69,70
 451 231 451 231 437 218 c 128,-1,71
 423 205 423 205 403 205 c 256,72,73
 383 205 383 205 368 218 c 0,74,75
 354 230 354 230 351 251 c 1,76,77
 348 231 348 231 335 218 c 0,78,79
 321 205 321 205 300 205 c 0,80,81
 278 205 278 205 263.5 219.5 c 128,-1,82
 249 234 249 234 249 256 c 0,0,1
44 256 m 256,83,84
 44 276 44 276 58 291 c 0,85,86
 70 304 70 304 90 307 c 1,87,88
 70 309 70 309 58 324 c 0,89,90
 45 338 45 338 44 358 c 0,91,92
 44 378 44 378 58 393 c 0,93,94
 70 406 70 406 90 410 c 1,95,96
 70 412 70 412 58 426 c 0,97,98
 45 440 45 440 44 461 c 0,99,100
 44 481 44 481 58 496 c 0,101,102
 70 509 70 509 90 512 c 1,103,104
 70 514 70 514 58 528 c 0,105,106
 45 542 45 542 44 563 c 0,107,108
 44 585 44 585 59 599.5 c 128,-1,109
 74 614 74 614 95 614 c 0,110,111
 117 614 117 614 132 599.5 c 128,-1,112
 147 585 147 585 147 563 c 0,113,114
 147 543 147 543 133.5 528.5 c 128,-1,115
 120 514 120 514 101 512 c 1,116,117
 120 509 120 509 133 496 c 0,118,119
 146 482 146 482 147 461 c 0,120,121
 147 441 147 441 133.5 426.5 c 128,-1,122
 120 412 120 412 101 410 c 1,123,124
 120 407 120 407 133 393 c 128,-1,125
 146 379 146 379 147 358 c 0,126,127
 147 338 147 338 133.5 323.5 c 128,-1,128
 120 309 120 309 101 307 c 1,129,130
 120 304 120 304 133 291 c 0,131,132
 146 277 146 277 147 256 c 0,133,134
 147 236 147 236 133.5 221.5 c 128,-1,135
 120 207 120 207 101 205 c 1,136,137
 120 202 120 202 133 188 c 128,-1,138
 146 174 146 174 147 154 c 0,139,140
 147 132 147 132 132 117 c 128,-1,141
 117 102 117 102 95 102 c 256,142,143
 73 102 73 102 58.5 117 c 128,-1,144
 44 132 44 132 44 154 c 0,145,146
 44 174 44 174 58 188 c 0,147,148
 70 201 70 201 90 205 c 1,149,150
 70 207 70 207 58 221 c 0,151,152
 44 236 44 236 44 256 c 256,83,84
147 51 m 256,153,154
 147 73 147 73 161.5 87.5 c 128,-1,155
 176 102 176 102 198 102 c 256,156,157
 220 102 220 102 234 87 c 0,158,159
 247 74 247 74 249 55 c 1,160,161
 250 73 250 73 263 87 c 0,162,163
 278 102 278 102 300 102 c 256,164,165
 322 102 322 102 336 87 c 0,166,167
 349 74 349 74 351 55 c 1,168,169
 352 73 352 73 366 87 c 0,170,171
 381 102 381 102 403 102 c 256,172,173
 425 102 425 102 438 87 c 0,174,175
 451 74 451 74 454 55 c 1,176,177
 455 73 455 73 468 87 c 0,178,179
 483 102 483 102 505 102 c 256,180,181
 527 102 527 102 541.5 87.5 c 128,-1,182
 556 73 556 73 556 51 c 256,183,184
 556 29 556 29 541.5 14.5 c 128,-1,185
 527 0 527 0 505 0 c 0,186,187
 485 0 485 0 470 13 c 0,188,189
 456 25 456 25 454 46 c 1,190,191
 451 26 451 26 437 13 c 128,-1,192
 423 0 423 0 403 0 c 256,193,194
 383 0 383 0 368 13 c 0,195,196
 354 25 354 25 351 46 c 1,197,198
 348 26 348 26 335 13 c 0,199,200
 321 0 321 0 300 0 c 0,201,202
 280 0 280 0 265 13 c 0,203,204
 251 25 251 25 249 46 c 1,205,206
 246 26 246 26 233 13 c 0,207,208
 219 0 219 0 198 0 c 0,209,210
 176 0 176 0 161.5 14.5 c 128,-1,211
 147 29 147 29 147 51 c 256,153,154
147 666 m 256,212,213
 147 688 147 688 161.5 702.5 c 128,-1,214
 176 717 176 717 198 717 c 0,215,216
 218 717 218 717 232.5 703.5 c 128,-1,217
 247 690 247 690 249 670 c 1,218,219
 251 690 251 690 265.5 703.5 c 128,-1,220
 280 717 280 717 300 717 c 0,221,222
 322 717 322 717 336 701 c 0,223,224
 349 688 349 688 351 670 c 1,225,226
 352 688 352 688 366 701 c 0,227,228
 381 716 381 716 403 717 c 0,229,230
 425 717 425 717 439.5 702 c 128,-1,231
 454 687 454 687 454 666 c 0,232,233
 454 644 454 644 439 629 c 128,-1,234
 424 614 424 614 403 614 c 0,235,236
 383 614 383 614 368 628 c 0,237,238
 354 640 354 640 351 660 c 1,239,240
 348 640 348 640 335 628 c 0,241,242
 321 615 321 615 300 614 c 0,243,244
 280 614 280 614 265 628 c 0,245,246
 251 640 251 640 249 660 c 1,247,248
 246 640 246 640 233 628 c 0,249,250
 219 615 219 615 198 614 c 0,251,252
 176 614 176 614 161.5 629 c 128,-1,253
 147 644 147 644 147 666 c 256,212,213
454 358 m 256,254,255
 454 378 454 378 467 393 c 0,256,257
 479 406 479 406 500 410 c 1,258,259
 481 412 481 412 468.5 424 c 128,-1,260
 456 436 456 436 454 456 c 1,261,262
 451 436 451 436 437 423 c 128,-1,263
 423 410 423 410 403 410 c 256,264,265
 383 410 383 410 368 423 c 0,266,267
 354 435 354 435 351 456 c 1,268,269
 348 437 348 437 335.5 424.5 c 128,-1,270
 323 412 323 412 305 410 c 1,271,272
 324 407 324 407 338 393 c 0,273,274
 351 379 351 379 351 358 c 0,275,276
 351 338 351 338 338 323.5 c 128,-1,277
 325 309 325 309 305 307 c 1,278,279
 324 304 324 304 338 291 c 0,280,281
 349 278 349 278 351 260 c 1,282,283
 352 278 352 278 366 292 c 0,284,285
 381 307 381 307 403 307 c 256,286,287
 425 307 425 307 439.5 292.5 c 128,-1,288
 454 278 454 278 454 256 c 1,289,290
 454 276 454 276 467 291 c 0,291,292
 479 304 479 304 500 307 c 1,293,294
 480 309 480 309 467 324 c 0,295,296
 454 338 454 338 454 358 c 256,254,255
EndSplineSet
EndChar

StartChar: A
Encoding: 65 65 14
Width: 600
VWidth: 1024
Flags: W
LayerCount: 2
Fore
SplineSet
454 154 m 256,0,1
 454 174 454 174 467 188 c 0,2,3
 479 201 479 201 500 205 c 1,4,5
 481 207 481 207 468.5 219 c 128,-1,6
 456 231 456 231 454 251 c 1,7,8
 451 231 451 231 437 218 c 128,-1,9
 423 205 423 205 403 205 c 256,10,11
 383 205 383 205 368 218 c 0,12,13
 354 230 354 230 351 251 c 1,14,15
 348 231 348 231 335 218 c 0,16,17
 321 205 321 205 300 205 c 0,18,19
 280 205 280 205 265 218 c 0,20,21
 251 230 251 230 249 251 c 1,22,23
 246 231 246 231 233 218 c 0,24,25
 219 205 219 205 198 205 c 0,26,27
 178 205 178 205 163 218 c 0,28,29
 149 230 149 230 147 251 c 1,30,31
 144 232 144 232 131 219.5 c 128,-1,32
 118 207 118 207 101 205 c 1,33,34
 120 202 120 202 133 188 c 128,-1,35
 146 174 146 174 147 154 c 0,36,37
 147 134 147 134 133.5 119 c 128,-1,38
 120 104 120 104 101 102 c 1,39,40
 120 99 120 99 133 86 c 0,41,42
 146 72 146 72 147 51 c 0,43,44
 147 29 147 29 132 14.5 c 128,-1,45
 117 0 117 0 95 0 c 256,46,47
 73 0 73 0 58.5 15 c 128,-1,48
 44 30 44 30 44 51 c 0,49,50
 44 71 44 71 58 86 c 0,51,52
 70 99 70 99 90 102 c 1,53,54
 70 104 70 104 58 119 c 0,55,56
 45 133 45 133 44 154 c 0,57,58
 44 174 44 174 58 188 c 0,59,60
 70 201 70 201 90 205 c 1,61,62
 70 207 70 207 58 221 c 0,63,64
 45 235 45 235 44 256 c 0,65,66
 44 276 44 276 58 291 c 0,67,68
 70 304 70 304 90 307 c 1,69,70
 70 309 70 309 58 324 c 0,71,72
 45 338 45 338 44 358 c 0,73,74
 44 378 44 378 58 393 c 0,75,76
 70 406 70 406 90 410 c 1,77,78
 70 412 70 412 58 426 c 0,79,80
 45 440 45 440 44 461 c 0,81,82
 44 481 44 481 58 496 c 0,83,84
 70 509 70 509 90 512 c 1,85,86
 70 514 70 514 58 528 c 0,87,88
 45 542 45 542 44 563 c 0,89,90
 44 585 44 585 59 599.5 c 128,-1,91
 74 614 74 614 95 614 c 0,92,93
 117 614 117 614 132 599.5 c 128,-1,94
 147 585 147 585 147 563 c 0,95,96
 147 543 147 543 133.5 528.5 c 128,-1,97
 120 514 120 514 101 512 c 1,98,99
 120 509 120 509 133 496 c 0,100,101
 146 482 146 482 147 461 c 0,102,103
 147 441 147 441 133.5 426.5 c 128,-1,104
 120 412 120 412 101 410 c 1,105,106
 120 407 120 407 133 393 c 128,-1,107
 146 379 146 379 147 358 c 0,108,109
 147 338 147 338 133.5 323.5 c 128,-1,110
 120 309 120 309 101 307 c 1,111,112
 118 304 118 304 131 292 c 0,113,114
 144 279 144 279 147 260 c 1,115,116
 149 280 149 280 163 293.5 c 128,-1,117
 177 307 177 307 198 307 c 0,118,119
 220 307 220 307 234 292 c 0,120,121
 247 279 247 279 249 260 c 1,122,123
 250 278 250 278 263 292 c 0,124,125
 278 307 278 307 300 307 c 256,126,127
 322 307 322 307 336.5 292.5 c 128,-1,128
 351 278 351 278 351 256 c 1,129,130
 351 278 351 278 366 292.5 c 128,-1,131
 381 307 381 307 403 307 c 256,132,133
 425 307 425 307 439.5 292.5 c 128,-1,134
 454 278 454 278 454 256 c 1,135,136
 454 276 454 276 467 291 c 0,137,138
 479 304 479 304 500 307 c 1,139,140
 480 309 480 309 467 324 c 0,141,142
 454 338 454 338 454 358 c 256,143,144
 454 378 454 378 467 393 c 0,145,146
 479 406 479 406 500 410 c 1,147,148
 480 412 480 412 467 426 c 128,-1,149
 454 440 454 440 454 461 c 0,150,151
 454 481 454 481 467 496 c 0,152,153
 479 509 479 509 500 512 c 1,154,155
 480 514 480 514 467 528 c 128,-1,156
 454 542 454 542 454 563 c 0,157,158
 454 585 454 585 468.5 599.5 c 128,-1,159
 483 614 483 614 505 614 c 256,160,161
 527 614 527 614 541.5 599.5 c 128,-1,162
 556 585 556 585 556 563 c 0,163,164
 556 543 556 543 543 528.5 c 128,-1,165
 530 514 530 514 510 512 c 1,166,167
 529 509 529 509 543 496 c 0,168,169
 556 482 556 482 556 461 c 0,170,171
 556 441 556 441 543 426.5 c 128,-1,172
 530 412 530 412 510 410 c 1,173,174
 529 407 529 407 543 393 c 0,175,176
 556 379 556 379 556 358 c 0,177,178
 556 338 556 338 543 323.5 c 128,-1,179
 530 309 530 309 510 307 c 1,180,181
 529 304 529 304 543 291 c 0,182,183
 556 277 556 277 556 256 c 0,184,185
 556 236 556 236 543 221.5 c 128,-1,186
 530 207 530 207 510 205 c 1,187,188
 529 202 529 202 543 188 c 0,189,190
 556 174 556 174 556 154 c 256,191,192
 556 134 556 134 543 119 c 128,-1,193
 530 104 530 104 510 102 c 1,194,195
 529 99 529 99 543 86 c 0,196,197
 556 72 556 72 556 51 c 0,198,199
 556 29 556 29 541.5 14.5 c 128,-1,200
 527 0 527 0 505 0 c 256,201,202
 483 0 483 0 468.5 15 c 128,-1,203
 454 30 454 30 454 51 c 0,204,205
 454 71 454 71 467 86 c 0,206,207
 479 99 479 99 500 102 c 1,208,209
 480 104 480 104 467 119 c 128,-1,210
 454 134 454 134 454 154 c 256,0,1
147 666 m 256,211,212
 147 688 147 688 161.5 702.5 c 128,-1,213
 176 717 176 717 198 717 c 0,214,215
 218 717 218 717 233 703 c 0,216,217
 246 690 246 690 249 671 c 1,218,219
 251 690 251 690 265.5 703.5 c 128,-1,220
 280 717 280 717 300 717 c 0,221,222
 322 717 322 717 336 701 c 0,223,224
 349 688 349 688 351 670 c 1,225,226
 352 688 352 688 366 701 c 0,227,228
 381 716 381 716 403 717 c 0,229,230
 425 717 425 717 439.5 702 c 128,-1,231
 454 687 454 687 454 666 c 0,232,233
 454 644 454 644 439 629 c 128,-1,234
 424 614 424 614 403 614 c 0,235,236
 383 614 383 614 368 628 c 0,237,238
 354 640 354 640 351 660 c 1,239,240
 348 640 348 640 335 628 c 0,241,242
 321 615 321 615 300 614 c 0,243,244
 280 614 280 614 265 628 c 0,245,246
 251 640 251 640 249 660 c 1,247,248
 246 640 246 640 233 628 c 0,249,250
 219 615 219 615 198 614 c 0,251,252
 176 614 176 614 161.5 629 c 128,-1,253
 147 644 147 644 147 666 c 256,211,212
EndSplineSet
EndChar

StartChar: B
Encoding: 66 66 15
Width: 600
VWidth: 1024
Flags: W
LayerCount: 2
Fore
SplineSet
44 666 m 0,0,1
 44 688 44 688 59 702.5 c 128,-1,2
 74 717 74 717 95 717 c 0,3,4
 115 717 115 717 130 703.5 c 128,-1,5
 145 690 145 690 147 670 c 1,6,7
 149 690 149 690 163 703.5 c 128,-1,8
 177 717 177 717 198 717 c 0,9,10
 220 717 220 717 234.5 702 c 128,-1,11
 249 687 249 687 249 666 c 1,12,13
 249 688 249 688 264 702.5 c 128,-1,14
 279 717 279 717 300 717 c 0,15,16
 320 717 320 717 334.5 703.5 c 128,-1,17
 349 690 349 690 351 670 c 1,18,19
 353 690 353 690 367.5 703.5 c 128,-1,20
 382 717 382 717 403 717 c 0,21,22
 425 717 425 717 439.5 702 c 128,-1,23
 454 687 454 687 454 666 c 0,24,25
 454 644 454 644 439 629 c 128,-1,26
 424 614 424 614 403 614 c 0,27,28
 383 614 383 614 368 628 c 0,29,30
 354 640 354 640 351 660 c 1,31,32
 348 640 348 640 335 628 c 0,33,34
 321 615 321 615 300 614 c 0,35,36
 280 614 280 614 265 628 c 0,37,38
 251 640 251 640 249 660 c 1,39,40
 246 640 246 640 233 628 c 0,41,42
 219 615 219 615 198 614 c 0,43,44
 178 614 178 614 163 628 c 0,45,46
 149 640 149 640 147 660 c 1,47,48
 144 641 144 641 131 628.5 c 128,-1,49
 118 616 118 616 101 614 c 1,50,51
 120 611 120 611 133 598 c 0,52,53
 146 584 146 584 147 563 c 0,54,55
 147 543 147 543 133.5 528.5 c 128,-1,56
 120 514 120 514 101 512 c 1,57,58
 120 509 120 509 133 496 c 0,59,60
 146 482 146 482 147 461 c 0,61,62
 147 441 147 441 133.5 426.5 c 128,-1,63
 120 412 120 412 101 410 c 1,64,65
 118 407 118 407 131 394 c 128,-1,66
 144 381 144 381 147 362 c 1,67,68
 149 382 149 382 163 396 c 128,-1,69
 177 410 177 410 198 410 c 0,70,71
 220 410 220 410 234.5 395 c 128,-1,72
 249 380 249 380 249 358 c 1,73,74
 249 380 249 380 264 395 c 128,-1,75
 279 410 279 410 300 410 c 0,76,77
 320 410 320 410 335 396 c 0,78,79
 348 383 348 383 351 364 c 1,80,81
 353 383 353 383 367.5 396.5 c 128,-1,82
 382 410 382 410 403 410 c 0,83,84
 425 410 425 410 439.5 395 c 128,-1,85
 454 380 454 380 454 358 c 256,86,87
 454 336 454 336 439 321.5 c 128,-1,88
 424 307 424 307 403 307 c 0,89,90
 383 307 383 307 368 321 c 0,91,92
 354 333 354 333 351 353 c 1,93,94
 348 333 348 333 335 321 c 0,95,96
 321 308 321 308 300 307 c 0,97,98
 280 307 280 307 265 321 c 0,99,100
 251 333 251 333 249 353 c 1,101,102
 246 333 246 333 233 321 c 0,103,104
 219 308 219 308 198 307 c 0,105,106
 178 307 178 307 163 321 c 0,107,108
 149 333 149 333 147 353 c 1,109,110
 144 334 144 334 131 321.5 c 128,-1,111
 118 309 118 309 101 307 c 1,112,113
 120 304 120 304 133 291 c 0,114,115
 146 277 146 277 147 256 c 0,116,117
 147 236 147 236 133.5 221.5 c 128,-1,118
 120 207 120 207 101 205 c 1,119,120
 120 202 120 202 133 188 c 128,-1,121
 146 174 146 174 147 154 c 0,122,123
 147 134 147 134 133.5 119 c 128,-1,124
 120 104 120 104 101 102 c 1,125,126
 120 99 120 99 133 86 c 0,127,128
 144 73 144 73 147 55 c 1,129,130
 148 73 148 73 161 87 c 0,131,132
 176 102 176 102 198 102 c 0,133,134
 218 102 218 102 232.5 89 c 128,-1,135
 247 76 247 76 249 55 c 1,136,137
 251 75 251 75 265.5 88.5 c 128,-1,138
 280 102 280 102 300 102 c 256,139,140
 320 102 320 102 334.5 89 c 128,-1,141
 349 76 349 76 351 55 c 1,142,143
 353 75 353 75 367.5 88.5 c 128,-1,144
 382 102 382 102 403 102 c 0,145,146
 425 102 425 102 439.5 87.5 c 128,-1,147
 454 73 454 73 454 51 c 256,148,149
 454 29 454 29 439 14.5 c 128,-1,150
 424 0 424 0 403 0 c 0,151,152
 383 0 383 0 368 13 c 0,153,154
 354 25 354 25 351 46 c 1,155,156
 348 26 348 26 335 13 c 0,157,158
 321 0 321 0 300 0 c 0,159,160
 280 0 280 0 265 13 c 0,161,162
 251 25 251 25 249 46 c 1,163,164
 246 26 246 26 233 13 c 0,165,166
 219 0 219 0 198 0 c 0,167,168
 178 0 178 0 163 13 c 0,169,170
 149 25 149 25 147 46 c 1,171,172
 144 26 144 26 130 13 c 128,-1,173
 116 0 116 0 95 0 c 0,174,175
 73 0 73 0 58.5 15 c 128,-1,176
 44 30 44 30 44 51 c 0,177,178
 44 71 44 71 58 86 c 0,179,180
 70 99 70 99 90 102 c 1,181,182
 70 104 70 104 58 119 c 0,183,184
 45 133 45 133 44 154 c 0,185,186
 44 174 44 174 58 188 c 0,187,188
 70 201 70 201 90 205 c 1,189,190
 70 207 70 207 58 221 c 0,191,192
 45 235 45 235 44 256 c 0,193,194
 44 276 44 276 58 291 c 0,195,196
 70 304 70 304 90 307 c 1,197,198
 70 309 70 309 58 324 c 0,199,200
 45 338 45 338 44 358 c 0,201,202
 44 378 44 378 58 393 c 0,203,204
 70 406 70 406 90 410 c 1,205,206
 70 412 70 412 58 426 c 0,207,208
 45 440 45 440 44 461 c 0,209,210
 44 481 44 481 58 496 c 0,211,212
 70 509 70 509 90 512 c 1,213,214
 70 514 70 514 58 528 c 0,215,216
 45 542 45 542 44 563 c 0,217,218
 44 583 44 583 58 598 c 0,219,220
 70 611 70 611 90 614 c 1,221,222
 70 616 70 616 58 631 c 0,223,224
 44 646 44 646 44 666 c 0,0,1
454 563 m 0,225,226
 454 585 454 585 468.5 599.5 c 128,-1,227
 483 614 483 614 505 614 c 256,228,229
 527 614 527 614 541.5 599.5 c 128,-1,230
 556 585 556 585 556 563 c 0,231,232
 556 543 556 543 543 528.5 c 128,-1,233
 530 514 530 514 510 512 c 1,234,235
 529 509 529 509 543 496 c 0,236,237
 556 482 556 482 556 461 c 0,238,239
 556 439 556 439 541.5 424.5 c 128,-1,240
 527 410 527 410 505 410 c 256,241,242
 483 410 483 410 468.5 424.5 c 128,-1,243
 454 439 454 439 454 461 c 0,244,245
 454 481 454 481 467 496 c 0,246,247
 479 509 479 509 500 512 c 1,248,249
 480 514 480 514 467 528 c 0,250,251
 454 543 454 543 454 563 c 0,225,226
454 154 m 0,252,253
 454 174 454 174 467 188 c 0,254,255
 479 201 479 201 500 205 c 1,256,257
 480 207 480 207 467 221 c 128,-1,258
 454 235 454 235 454 256 c 0,259,260
 454 278 454 278 468.5 292.5 c 128,-1,261
 483 307 483 307 505 307 c 256,262,263
 527 307 527 307 541.5 292.5 c 128,-1,264
 556 278 556 278 556 256 c 0,265,266
 556 236 556 236 543 221.5 c 128,-1,267
 530 207 530 207 510 205 c 1,268,269
 529 202 529 202 543 188 c 0,270,271
 556 174 556 174 556 154 c 0,272,273
 556 132 556 132 541.5 117 c 128,-1,274
 527 102 527 102 505 102 c 256,275,276
 483 102 483 102 468.5 117 c 128,-1,277
 454 132 454 132 454 154 c 0,252,253
EndSplineSet
EndChar

StartChar: C
Encoding: 67 67 16
Width: 600
VWidth: 1024
Flags: W
LayerCount: 2
Fore
SplineSet
44 256 m 256,0,1
 44 276 44 276 58 291 c 0,2,3
 70 304 70 304 90 307 c 1,4,5
 70 309 70 309 58 324 c 0,6,7
 45 338 45 338 44 358 c 0,8,9
 44 378 44 378 58 393 c 0,10,11
 70 406 70 406 90 410 c 1,12,13
 70 412 70 412 58 426 c 0,14,15
 45 440 45 440 44 461 c 0,16,17
 44 481 44 481 58 496 c 0,18,19
 70 509 70 509 90 512 c 1,20,21
 70 514 70 514 58 528 c 0,22,23
 45 542 45 542 44 563 c 0,24,25
 44 585 44 585 59 599.5 c 128,-1,26
 74 614 74 614 95 614 c 0,27,28
 117 614 117 614 132 599.5 c 128,-1,29
 147 585 147 585 147 563 c 0,30,31
 147 543 147 543 133.5 528.5 c 128,-1,32
 120 514 120 514 101 512 c 1,33,34
 120 509 120 509 133 496 c 0,35,36
 146 482 146 482 147 461 c 0,37,38
 147 441 147 441 133.5 426.5 c 128,-1,39
 120 412 120 412 101 410 c 1,40,41
 120 407 120 407 133 393 c 128,-1,42
 146 379 146 379 147 358 c 0,43,44
 147 338 147 338 133.5 323.5 c 128,-1,45
 120 309 120 309 101 307 c 1,46,47
 120 304 120 304 133 291 c 0,48,49
 146 277 146 277 147 256 c 0,50,51
 147 236 147 236 133.5 221.5 c 128,-1,52
 120 207 120 207 101 205 c 1,53,54
 120 202 120 202 133 188 c 128,-1,55
 146 174 146 174 147 154 c 0,56,57
 147 132 147 132 132 117 c 128,-1,58
 117 102 117 102 95 102 c 256,59,60
 73 102 73 102 58.5 117 c 128,-1,61
 44 132 44 132 44 154 c 0,62,63
 44 174 44 174 58 188 c 0,64,65
 70 201 70 201 90 205 c 1,66,67
 70 207 70 207 58 221 c 0,68,69
 44 236 44 236 44 256 c 256,0,1
147 51 m 256,70,71
 147 73 147 73 161.5 87.5 c 128,-1,72
 176 102 176 102 198 102 c 0,73,74
 218 102 218 102 232.5 89 c 128,-1,75
 247 76 247 76 249 55 c 1,76,77
 251 75 251 75 265.5 88.5 c 128,-1,78
 280 102 280 102 300 102 c 256,79,80
 320 102 320 102 334.5 89 c 128,-1,81
 349 76 349 76 351 55 c 1,82,83
 353 75 353 75 367.5 88.5 c 128,-1,84
 382 102 382 102 403 102 c 0,85,86
 425 102 425 102 439.5 87.5 c 128,-1,87
 454 73 454 73 454 51 c 256,88,89
 454 29 454 29 439 14.5 c 128,-1,90
 424 0 424 0 403 0 c 0,91,92
 383 0 383 0 368 13 c 0,93,94
 354 25 354 25 351 46 c 1,95,96
 348 26 348 26 335 13 c 0,97,98
 321 0 321 0 300 0 c 0,99,100
 280 0 280 0 265 13 c 0,101,102
 251 25 251 25 249 46 c 1,103,104
 246 26 246 26 233 13 c 0,105,106
 219 0 219 0 198 0 c 0,107,108
 176 0 176 0 161.5 14.5 c 128,-1,109
 147 29 147 29 147 51 c 256,70,71
147 666 m 256,110,111
 147 688 147 688 161.5 702.5 c 128,-1,112
 176 717 176 717 198 717 c 0,113,114
 218 717 218 717 233 703 c 0,115,116
 246 690 246 690 249 671 c 1,117,118
 251 690 251 690 265.5 703.5 c 128,-1,119
 280 717 280 717 300 717 c 256,120,121
 320 717 320 717 335 703 c 0,122,123
 348 690 348 690 351 671 c 1,124,125
 353 690 353 690 367.5 703.5 c 128,-1,126
 382 717 382 717 403 717 c 0,127,128
 425 717 425 717 439.5 702 c 128,-1,129
 454 687 454 687 454 666 c 0,130,131
 454 644 454 644 439 629 c 128,-1,132
 424 614 424 614 403 614 c 0,133,134
 383 614 383 614 368 628 c 0,135,136
 354 640 354 640 351 660 c 1,137,138
 348 640 348 640 335 628 c 0,139,140
 321 615 321 615 300 614 c 0,141,142
 280 614 280 614 265 628 c 0,143,144
 251 640 251 640 249 660 c 1,145,146
 246 640 246 640 233 628 c 0,147,148
 219 615 219 615 198 614 c 0,149,150
 176 614 176 614 161.5 629 c 128,-1,151
 147 644 147 644 147 666 c 256,110,111
454 154 m 256,152,153
 454 176 454 176 468.5 190.5 c 128,-1,154
 483 205 483 205 505 205 c 256,155,156
 527 205 527 205 541.5 190 c 128,-1,157
 556 175 556 175 556 154 c 0,158,159
 556 132 556 132 541.5 117 c 128,-1,160
 527 102 527 102 505 102 c 256,161,162
 483 102 483 102 468.5 117 c 128,-1,163
 454 132 454 132 454 154 c 256,152,153
454 563 m 256,164,165
 454 585 454 585 468.5 599.5 c 128,-1,166
 483 614 483 614 505 614 c 256,167,168
 527 614 527 614 541.5 599.5 c 128,-1,169
 556 585 556 585 556 563 c 256,170,171
 556 541 556 541 541.5 526.5 c 128,-1,172
 527 512 527 512 505 512 c 256,173,174
 483 512 483 512 468.5 526.5 c 128,-1,175
 454 541 454 541 454 563 c 256,164,165
EndSplineSet
EndChar

StartChar: D
Encoding: 68 68 17
Width: 600
VWidth: 1024
Flags: W
LayerCount: 2
Fore
SplineSet
44 666 m 0,0,1
 44 688 44 688 59 702.5 c 128,-1,2
 74 717 74 717 95 717 c 0,3,4
 115 717 115 717 130 703.5 c 128,-1,5
 145 690 145 690 147 670 c 1,6,7
 149 690 149 690 163 703.5 c 128,-1,8
 177 717 177 717 198 717 c 0,9,10
 220 717 220 717 234.5 702 c 128,-1,11
 249 687 249 687 249 666 c 1,12,13
 249 688 249 688 264 702.5 c 128,-1,14
 279 717 279 717 300 717 c 0,15,16
 322 717 322 717 336 701 c 0,17,18
 349 688 349 688 351 670 c 1,19,20
 352 688 352 688 366 701 c 0,21,22
 381 716 381 716 403 717 c 0,23,24
 425 717 425 717 439.5 702 c 128,-1,25
 454 687 454 687 454 666 c 0,26,27
 454 644 454 644 439 629 c 128,-1,28
 424 614 424 614 403 614 c 0,29,30
 383 614 383 614 368 628 c 0,31,32
 354 640 354 640 351 660 c 1,33,34
 348 640 348 640 335 628 c 0,35,36
 321 615 321 615 300 614 c 0,37,38
 280 614 280 614 265 628 c 0,39,40
 251 640 251 640 249 660 c 1,41,42
 246 640 246 640 233 628 c 0,43,44
 219 615 219 615 198 614 c 0,45,46
 178 614 178 614 163 628 c 0,47,48
 149 640 149 640 147 660 c 1,49,50
 144 641 144 641 131 628.5 c 128,-1,51
 118 616 118 616 101 614 c 1,52,53
 120 611 120 611 133 598 c 0,54,55
 146 584 146 584 147 563 c 0,56,57
 147 543 147 543 133.5 528.5 c 128,-1,58
 120 514 120 514 101 512 c 1,59,60
 120 509 120 509 133 496 c 0,61,62
 146 482 146 482 147 461 c 0,63,64
 147 441 147 441 133.5 426.5 c 128,-1,65
 120 412 120 412 101 410 c 1,66,67
 120 407 120 407 133 393 c 128,-1,68
 146 379 146 379 147 358 c 0,69,70
 147 338 147 338 133.5 323.5 c 128,-1,71
 120 309 120 309 101 307 c 1,72,73
 120 304 120 304 133 291 c 0,74,75
 146 277 146 277 147 256 c 0,76,77
 147 236 147 236 133.5 221.5 c 128,-1,78
 120 207 120 207 101 205 c 1,79,80
 120 202 120 202 133 188 c 128,-1,81
 146 174 146 174 147 154 c 0,82,83
 147 134 147 134 133.5 119 c 128,-1,84
 120 104 120 104 101 102 c 1,85,86
 120 99 120 99 133 86 c 0,87,88
 144 73 144 73 147 55 c 1,89,90
 148 73 148 73 161 87 c 0,91,92
 176 102 176 102 198 102 c 256,93,94
 220 102 220 102 234.5 87.5 c 128,-1,95
 249 73 249 73 249 51 c 1,96,97
 249 73 249 73 264 87.5 c 128,-1,98
 279 102 279 102 300 102 c 0,99,100
 322 102 322 102 336 87 c 0,101,102
 349 74 349 74 351 55 c 1,103,104
 352 73 352 73 366 87 c 0,105,106
 381 102 381 102 403 102 c 256,107,108
 425 102 425 102 439.5 87.5 c 128,-1,109
 454 73 454 73 454 51 c 256,110,111
 454 29 454 29 439 14.5 c 128,-1,112
 424 0 424 0 403 0 c 0,113,114
 383 0 383 0 368 13 c 0,115,116
 354 25 354 25 351 46 c 1,117,118
 348 26 348 26 335 13 c 0,119,120
 321 0 321 0 300 0 c 0,121,122
 280 0 280 0 265 13 c 0,123,124
 251 25 251 25 249 46 c 1,125,126
 246 26 246 26 233 13 c 0,127,128
 219 0 219 0 198 0 c 0,129,130
 178 0 178 0 163 13 c 0,131,132
 149 25 149 25 147 46 c 1,133,134
 144 26 144 26 130 13 c 128,-1,135
 116 0 116 0 95 0 c 0,136,137
 73 0 73 0 58.5 15 c 128,-1,138
 44 30 44 30 44 51 c 0,139,140
 44 71 44 71 58 86 c 0,141,142
 70 99 70 99 90 102 c 1,143,144
 70 104 70 104 58 119 c 0,145,146
 45 133 45 133 44 154 c 0,147,148
 44 174 44 174 58 188 c 0,149,150
 70 201 70 201 90 205 c 1,151,152
 70 207 70 207 58 221 c 0,153,154
 45 235 45 235 44 256 c 0,155,156
 44 276 44 276 58 291 c 0,157,158
 70 304 70 304 90 307 c 1,159,160
 70 309 70 309 58 324 c 0,161,162
 45 338 45 338 44 358 c 0,163,164
 44 378 44 378 58 393 c 0,165,166
 70 406 70 406 90 410 c 1,167,168
 70 412 70 412 58 426 c 0,169,170
 45 440 45 440 44 461 c 0,171,172
 44 481 44 481 58 496 c 0,173,174
 70 509 70 509 90 512 c 1,175,176
 70 514 70 514 58 528 c 0,177,178
 45 542 45 542 44 563 c 0,179,180
 44 583 44 583 58 598 c 0,181,182
 70 611 70 611 90 614 c 1,183,184
 70 616 70 616 58 631 c 0,185,186
 44 646 44 646 44 666 c 0,0,1
454 256 m 256,187,188
 454 276 454 276 467 291 c 0,189,190
 479 304 479 304 500 307 c 1,191,192
 480 309 480 309 467 324 c 0,193,194
 454 338 454 338 454 358 c 256,195,196
 454 378 454 378 467 393 c 0,197,198
 479 406 479 406 500 410 c 1,199,200
 480 412 480 412 467 426 c 128,-1,201
 454 440 454 440 454 461 c 0,202,203
 454 481 454 481 467 496 c 0,204,205
 479 509 479 509 500 512 c 1,206,207
 480 514 480 514 467 528 c 128,-1,208
 454 542 454 542 454 563 c 0,209,210
 454 585 454 585 468.5 599.5 c 128,-1,211
 483 614 483 614 505 614 c 256,212,213
 527 614 527 614 541.5 599.5 c 128,-1,214
 556 585 556 585 556 563 c 0,215,216
 556 543 556 543 543 528.5 c 128,-1,217
 530 514 530 514 510 512 c 1,218,219
 529 509 529 509 543 496 c 0,220,221
 556 482 556 482 556 461 c 0,222,223
 556 441 556 441 543 426.5 c 128,-1,224
 530 412 530 412 510 410 c 1,225,226
 529 407 529 407 543 393 c 0,227,228
 556 379 556 379 556 358 c 0,229,230
 556 338 556 338 543 323.5 c 128,-1,231
 530 309 530 309 510 307 c 1,232,233
 529 304 529 304 543 291 c 0,234,235
 556 277 556 277 556 256 c 0,236,237
 556 236 556 236 543 221.5 c 128,-1,238
 530 207 530 207 510 205 c 1,239,240
 529 202 529 202 543 188 c 0,241,242
 556 174 556 174 556 154 c 0,243,244
 556 132 556 132 541.5 117 c 128,-1,245
 527 102 527 102 505 102 c 256,246,247
 483 102 483 102 468.5 117 c 128,-1,248
 454 132 454 132 454 154 c 0,249,250
 454 174 454 174 467 188 c 0,251,252
 479 201 479 201 500 205 c 1,253,254
 480 207 480 207 467 221 c 0,255,256
 454 236 454 236 454 256 c 256,187,188
EndSplineSet
EndChar

StartChar: E
Encoding: 69 69 18
Width: 600
VWidth: 1024
Flags: W
LayerCount: 2
Fore
SplineSet
44 666 m 0,0,1
 44 688 44 688 59 702.5 c 128,-1,2
 74 717 74 717 95 717 c 0,3,4
 115 717 115 717 130 703.5 c 128,-1,5
 145 690 145 690 147 670 c 1,6,7
 149 690 149 690 163 703.5 c 128,-1,8
 177 717 177 717 198 717 c 0,9,10
 220 717 220 717 234.5 702 c 128,-1,11
 249 687 249 687 249 666 c 1,12,13
 249 688 249 688 264 702.5 c 128,-1,14
 279 717 279 717 300 717 c 0,15,16
 322 717 322 717 336 701 c 0,17,18
 349 688 349 688 351 670 c 1,19,20
 352 688 352 688 366 701 c 0,21,22
 381 716 381 716 403 717 c 0,23,24
 423 717 423 717 437.5 703.5 c 128,-1,25
 452 690 452 690 454 670 c 1,26,27
 456 690 456 690 470.5 703.5 c 128,-1,28
 485 717 485 717 505 717 c 0,29,30
 527 717 527 717 541.5 702 c 128,-1,31
 556 687 556 687 556 666 c 0,32,33
 556 644 556 644 541.5 629 c 128,-1,34
 527 614 527 614 505 614 c 0,35,36
 485 614 485 614 470 628 c 0,37,38
 456 640 456 640 454 660 c 1,39,40
 451 640 451 640 437 628 c 0,41,42
 423 615 423 615 403 614 c 0,43,44
 383 614 383 614 368 628 c 0,45,46
 354 640 354 640 351 660 c 1,47,48
 348 640 348 640 335 628 c 0,49,50
 321 615 321 615 300 614 c 0,51,52
 280 614 280 614 265 628 c 0,53,54
 251 640 251 640 249 660 c 1,55,56
 246 640 246 640 233 628 c 0,57,58
 219 615 219 615 198 614 c 0,59,60
 178 614 178 614 163 628 c 0,61,62
 149 640 149 640 147 660 c 1,63,64
 144 641 144 641 131 628.5 c 128,-1,65
 118 616 118 616 101 614 c 1,66,67
 120 611 120 611 133 598 c 0,68,69
 146 584 146 584 147 563 c 0,70,71
 147 543 147 543 133.5 528.5 c 128,-1,72
 120 514 120 514 101 512 c 1,73,74
 120 509 120 509 133 496 c 0,75,76
 146 482 146 482 147 461 c 0,77,78
 147 441 147 441 133.5 426.5 c 128,-1,79
 120 412 120 412 101 410 c 1,80,81
 120 407 120 407 133 393 c 0,82,83
 144 380 144 380 147 362 c 1,84,85
 148 380 148 380 161 394 c 0,86,87
 176 409 176 409 198 410 c 0,88,89
 218 410 218 410 232.5 396.5 c 128,-1,90
 247 383 247 383 249 362 c 1,91,92
 251 382 251 382 265.5 396 c 128,-1,93
 280 410 280 410 300 410 c 0,94,95
 322 410 322 410 336.5 395 c 128,-1,96
 351 380 351 380 351 358 c 1,97,98
 351 380 351 380 366 395 c 128,-1,99
 381 410 381 410 403 410 c 256,100,101
 425 410 425 410 439.5 395 c 128,-1,102
 454 380 454 380 454 358 c 256,103,104
 454 336 454 336 439 321.5 c 128,-1,105
 424 307 424 307 403 307 c 0,106,107
 383 307 383 307 368 321 c 0,108,109
 354 333 354 333 351 353 c 1,110,111
 348 333 348 333 335 321 c 0,112,113
 321 308 321 308 300 307 c 0,114,115
 280 307 280 307 265 321 c 0,116,117
 251 333 251 333 249 353 c 1,118,119
 246 333 246 333 233 321 c 0,120,121
 219 308 219 308 198 307 c 0,122,123
 178 307 178 307 163 321 c 0,124,125
 149 333 149 333 147 353 c 1,126,127
 144 334 144 334 131 321.5 c 128,-1,128
 118 309 118 309 101 307 c 1,129,130
 120 304 120 304 133 291 c 0,131,132
 146 277 146 277 147 256 c 0,133,134
 147 236 147 236 133.5 221.5 c 128,-1,135
 120 207 120 207 101 205 c 1,136,137
 120 202 120 202 133 188 c 128,-1,138
 146 174 146 174 147 154 c 0,139,140
 147 134 147 134 133.5 119 c 128,-1,141
 120 104 120 104 101 102 c 1,142,143
 118 99 118 99 131 86.5 c 128,-1,144
 144 74 144 74 147 56 c 1,145,146
 149 75 149 75 163 88.5 c 128,-1,147
 177 102 177 102 198 102 c 0,148,149
 218 102 218 102 233 89 c 0,150,151
 246 76 246 76 249 56 c 1,152,153
 251 75 251 75 265.5 88.5 c 128,-1,154
 280 102 280 102 300 102 c 256,155,156
 320 102 320 102 334.5 89 c 128,-1,157
 349 76 349 76 351 55 c 1,158,159
 353 75 353 75 367.5 88.5 c 128,-1,160
 382 102 382 102 403 102 c 0,161,162
 423 102 423 102 437.5 89 c 128,-1,163
 452 76 452 76 454 55 c 1,164,165
 456 75 456 75 470.5 88.5 c 128,-1,166
 485 102 485 102 505 102 c 0,167,168
 527 102 527 102 541.5 87.5 c 128,-1,169
 556 73 556 73 556 51 c 256,170,171
 556 29 556 29 541.5 14.5 c 128,-1,172
 527 0 527 0 505 0 c 0,173,174
 485 0 485 0 470 13 c 0,175,176
 456 25 456 25 454 46 c 1,177,178
 451 26 451 26 437 13 c 128,-1,179
 423 0 423 0 403 0 c 256,180,181
 383 0 383 0 368 13 c 0,182,183
 354 25 354 25 351 46 c 1,184,185
 348 26 348 26 335 13 c 0,186,187
 321 0 321 0 300 0 c 0,188,189
 280 0 280 0 265 13 c 0,190,191
 251 25 251 25 249 46 c 1,192,193
 246 26 246 26 233 13 c 0,194,195
 219 0 219 0 198 0 c 0,196,197
 178 0 178 0 163 13 c 0,198,199
 149 25 149 25 147 46 c 1,200,201
 144 26 144 26 130 13 c 128,-1,202
 116 0 116 0 95 0 c 0,203,204
 73 0 73 0 58.5 15 c 128,-1,205
 44 30 44 30 44 51 c 0,206,207
 44 71 44 71 58 86 c 0,208,209
 70 99 70 99 90 102 c 1,210,211
 70 104 70 104 58 119 c 0,212,213
 45 133 45 133 44 154 c 0,214,215
 44 174 44 174 58 188 c 0,216,217
 70 201 70 201 90 205 c 1,218,219
 70 207 70 207 58 221 c 0,220,221
 45 235 45 235 44 256 c 0,222,223
 44 276 44 276 58 291 c 0,224,225
 70 304 70 304 90 307 c 1,226,227
 70 309 70 309 58 324 c 0,228,229
 45 338 45 338 44 358 c 0,230,231
 44 378 44 378 58 393 c 0,232,233
 70 406 70 406 90 410 c 1,234,235
 70 412 70 412 58 426 c 0,236,237
 45 440 45 440 44 461 c 0,238,239
 44 481 44 481 58 496 c 0,240,241
 70 509 70 509 90 512 c 1,242,243
 70 514 70 514 58 528 c 0,244,245
 45 542 45 542 44 563 c 0,246,247
 44 583 44 583 58 598 c 0,248,249
 70 611 70 611 90 614 c 1,250,251
 70 616 70 616 58 631 c 0,252,253
 44 646 44 646 44 666 c 0,0,1
EndSplineSet
EndChar

StartChar: F
Encoding: 70 70 19
Width: 600
VWidth: 1024
Flags: W
LayerCount: 2
Fore
SplineSet
44 666 m 0,0,1
 44 688 44 688 59 702.5 c 128,-1,2
 74 717 74 717 95 717 c 0,3,4
 117 717 117 717 132 702 c 128,-1,5
 147 687 147 687 147 666 c 1,6,7
 147 688 147 688 161.5 702.5 c 128,-1,8
 176 717 176 717 198 717 c 0,9,10
 218 717 218 717 232.5 703.5 c 128,-1,11
 247 690 247 690 249 670 c 1,12,13
 251 690 251 690 265.5 703.5 c 128,-1,14
 280 717 280 717 300 717 c 256,15,16
 320 717 320 717 334.5 703.5 c 128,-1,17
 349 690 349 690 351 670 c 1,18,19
 353 690 353 690 367.5 703.5 c 128,-1,20
 382 717 382 717 403 717 c 0,21,22
 423 717 423 717 437 703 c 0,23,24
 450 690 450 690 454 671 c 1,25,26
 456 690 456 690 470.5 703.5 c 128,-1,27
 485 717 485 717 505 717 c 0,28,29
 527 717 527 717 541.5 702 c 128,-1,30
 556 687 556 687 556 666 c 0,31,32
 556 644 556 644 541.5 629 c 128,-1,33
 527 614 527 614 505 614 c 0,34,35
 485 614 485 614 470 628 c 0,36,37
 456 640 456 640 454 660 c 1,38,39
 451 640 451 640 437 628 c 0,40,41
 423 615 423 615 403 614 c 0,42,43
 383 614 383 614 368 628 c 0,44,45
 354 640 354 640 351 660 c 1,46,47
 348 640 348 640 335 628 c 0,48,49
 321 615 321 615 300 614 c 0,50,51
 280 614 280 614 265 628 c 0,52,53
 251 640 251 640 249 660 c 1,54,55
 246 640 246 640 233 628 c 0,56,57
 219 615 219 615 198 614 c 0,58,59
 178 614 178 614 163 628 c 0,60,61
 149 640 149 640 147 660 c 1,62,63
 144 641 144 641 131 628.5 c 128,-1,64
 118 616 118 616 101 614 c 1,65,66
 120 611 120 611 133 598 c 0,67,68
 146 584 146 584 147 563 c 0,69,70
 147 543 147 543 133.5 528.5 c 128,-1,71
 120 514 120 514 101 512 c 1,72,73
 120 509 120 509 133 496 c 0,74,75
 146 482 146 482 147 461 c 0,76,77
 147 441 147 441 133.5 426.5 c 128,-1,78
 120 412 120 412 101 410 c 1,79,80
 120 407 120 407 133 393 c 128,-1,81
 146 379 146 379 147 358 c 1,82,83
 147 380 147 380 161.5 395 c 128,-1,84
 176 410 176 410 198 410 c 0,85,86
 218 410 218 410 233 396 c 0,87,88
 246 383 246 383 249 364 c 1,89,90
 251 383 251 383 265.5 396.5 c 128,-1,91
 280 410 280 410 300 410 c 256,92,93
 320 410 320 410 335 396 c 0,94,95
 348 383 348 383 351 364 c 1,96,97
 353 383 353 383 367.5 396.5 c 128,-1,98
 382 410 382 410 403 410 c 0,99,100
 425 410 425 410 439.5 395 c 128,-1,101
 454 380 454 380 454 358 c 256,102,103
 454 336 454 336 439 321.5 c 128,-1,104
 424 307 424 307 403 307 c 0,105,106
 383 307 383 307 368 321 c 0,107,108
 354 333 354 333 351 353 c 1,109,110
 348 333 348 333 335 321 c 0,111,112
 321 308 321 308 300 307 c 0,113,114
 280 307 280 307 265 321 c 0,115,116
 251 333 251 333 249 353 c 1,117,118
 246 333 246 333 233 321 c 0,119,120
 219 308 219 308 198 307 c 0,121,122
 178 307 178 307 163 321 c 0,123,124
 149 333 149 333 147 353 c 1,125,126
 144 334 144 334 131 321.5 c 128,-1,127
 118 309 118 309 101 307 c 1,128,129
 120 304 120 304 133 291 c 0,130,131
 146 277 146 277 147 256 c 0,132,133
 147 236 147 236 133.5 221.5 c 128,-1,134
 120 207 120 207 101 205 c 1,135,136
 120 202 120 202 133 188 c 128,-1,137
 146 174 146 174 147 154 c 0,138,139
 147 134 147 134 133.5 119 c 128,-1,140
 120 104 120 104 101 102 c 1,141,142
 120 99 120 99 133 86 c 0,143,144
 146 72 146 72 147 51 c 0,145,146
 147 29 147 29 132 14.5 c 128,-1,147
 117 0 117 0 95 0 c 256,148,149
 73 0 73 0 58.5 15 c 128,-1,150
 44 30 44 30 44 51 c 0,151,152
 44 71 44 71 58 86 c 0,153,154
 70 99 70 99 90 102 c 1,155,156
 70 104 70 104 58 119 c 0,157,158
 45 133 45 133 44 154 c 0,159,160
 44 174 44 174 58 188 c 0,161,162
 70 201 70 201 90 205 c 1,163,164
 70 207 70 207 58 221 c 0,165,166
 45 235 45 235 44 256 c 0,167,168
 44 276 44 276 58 291 c 0,169,170
 70 304 70 304 90 307 c 1,171,172
 70 309 70 309 58 324 c 0,173,174
 45 338 45 338 44 358 c 0,175,176
 44 378 44 378 58 393 c 0,177,178
 70 406 70 406 90 410 c 1,179,180
 70 412 70 412 58 426 c 0,181,182
 45 440 45 440 44 461 c 0,183,184
 44 481 44 481 58 496 c 0,185,186
 70 509 70 509 90 512 c 1,187,188
 70 514 70 514 58 528 c 0,189,190
 45 542 45 542 44 563 c 0,191,192
 44 583 44 583 58 598 c 0,193,194
 70 611 70 611 90 614 c 1,195,196
 70 616 70 616 58 631 c 0,197,198
 44 646 44 646 44 666 c 0,0,1
EndSplineSet
EndChar

StartChar: G
Encoding: 71 71 20
Width: 600
VWidth: 1024
Flags: W
LayerCount: 2
Fore
SplineSet
454 256 m 256,0,1
 454 276 454 276 467 291 c 0,2,3
 479 304 479 304 500 307 c 1,4,5
 481 309 481 309 468.5 321.5 c 128,-1,6
 456 334 456 334 454 353 c 1,7,8
 451 333 451 333 437 321 c 0,9,10
 423 308 423 308 403 307 c 0,11,12
 383 307 383 307 368 321 c 0,13,14
 354 333 354 333 351 353 c 1,15,16
 348 333 348 333 335 321 c 0,17,18
 321 308 321 308 300 307 c 0,19,20
 278 307 278 307 263.5 322 c 128,-1,21
 249 337 249 337 249 358 c 0,22,23
 249 380 249 380 264 395 c 128,-1,24
 279 410 279 410 300 410 c 0,25,26
 322 410 322 410 336 394 c 0,27,28
 349 381 349 381 351 362 c 1,29,30
 352 380 352 380 366 394 c 0,31,32
 381 409 381 409 403 410 c 0,33,34
 425 410 425 410 439.5 395 c 128,-1,35
 454 380 454 380 454 358 c 1,36,37
 454 380 454 380 468.5 395 c 128,-1,38
 483 410 483 410 505 410 c 256,39,40
 527 410 527 410 541.5 395 c 128,-1,41
 556 380 556 380 556 358 c 0,42,43
 556 338 556 338 543 323.5 c 128,-1,44
 530 309 530 309 510 307 c 1,45,46
 529 304 529 304 543 291 c 0,47,48
 556 277 556 277 556 256 c 0,49,50
 556 236 556 236 543 221.5 c 128,-1,51
 530 207 530 207 510 205 c 1,52,53
 529 202 529 202 543 188 c 0,54,55
 556 174 556 174 556 154 c 256,56,57
 556 134 556 134 543 119 c 128,-1,58
 530 104 530 104 510 102 c 1,59,60
 529 99 529 99 543 86 c 0,61,62
 556 72 556 72 556 51 c 0,63,64
 556 29 556 29 541.5 14.5 c 128,-1,65
 527 0 527 0 505 0 c 0,66,67
 485 0 485 0 470 13 c 0,68,69
 456 25 456 25 454 46 c 1,70,71
 451 26 451 26 437 13 c 128,-1,72
 423 0 423 0 403 0 c 256,73,74
 383 0 383 0 368 13 c 0,75,76
 354 25 354 25 351 46 c 1,77,78
 348 26 348 26 335 13 c 0,79,80
 321 0 321 0 300 0 c 0,81,82
 280 0 280 0 265 13 c 0,83,84
 251 25 251 25 249 46 c 1,85,86
 246 26 246 26 233 13 c 0,87,88
 219 0 219 0 198 0 c 0,89,90
 176 0 176 0 161.5 15 c 128,-1,91
 147 30 147 30 147 51 c 0,92,93
 147 73 147 73 161.5 87.5 c 128,-1,94
 176 102 176 102 198 102 c 256,95,96
 220 102 220 102 234 87 c 0,97,98
 247 74 247 74 249 55 c 1,99,100
 250 73 250 73 263 87 c 0,101,102
 278 102 278 102 300 102 c 0,103,104
 320 102 320 102 335 89 c 0,105,106
 348 76 348 76 351 56 c 1,107,108
 353 75 353 75 367.5 88.5 c 128,-1,109
 382 102 382 102 403 102 c 0,110,111
 425 102 425 102 439.5 87.5 c 128,-1,112
 454 73 454 73 454 51 c 1,113,114
 454 71 454 71 467 86 c 0,115,116
 479 99 479 99 500 102 c 1,117,118
 480 104 480 104 467 119 c 0,119,120
 454 133 454 133 454 154 c 0,121,122
 454 174 454 174 467 188 c 0,123,124
 479 201 479 201 500 205 c 1,125,126
 480 207 480 207 467 221 c 0,127,128
 454 236 454 236 454 256 c 256,0,1
44 256 m 256,129,130
 44 276 44 276 58 291 c 0,131,132
 70 304 70 304 90 307 c 1,133,134
 70 309 70 309 58 324 c 0,135,136
 45 338 45 338 44 358 c 0,137,138
 44 378 44 378 58 393 c 0,139,140
 70 406 70 406 90 410 c 1,141,142
 70 412 70 412 58 426 c 0,143,144
 45 440 45 440 44 461 c 0,145,146
 44 481 44 481 58 496 c 0,147,148
 70 509 70 509 90 512 c 1,149,150
 70 514 70 514 58 528 c 0,151,152
 45 542 45 542 44 563 c 0,153,154
 44 585 44 585 59 599.5 c 128,-1,155
 74 614 74 614 95 614 c 0,156,157
 117 614 117 614 132 599.5 c 128,-1,158
 147 585 147 585 147 563 c 0,159,160
 147 543 147 543 133.5 528.5 c 128,-1,161
 120 514 120 514 101 512 c 1,162,163
 120 509 120 509 133 496 c 0,164,165
 146 482 146 482 147 461 c 0,166,167
 147 441 147 441 133.5 426.5 c 128,-1,168
 120 412 120 412 101 410 c 1,169,170
 120 407 120 407 133 393 c 128,-1,171
 146 379 146 379 147 358 c 0,172,173
 147 338 147 338 133.5 323.5 c 128,-1,174
 120 309 120 309 101 307 c 1,175,176
 120 304 120 304 133 291 c 0,177,178
 146 277 146 277 147 256 c 0,179,180
 147 236 147 236 133.5 221.5 c 128,-1,181
 120 207 120 207 101 205 c 1,182,183
 120 202 120 202 133 188 c 128,-1,184
 146 174 146 174 147 154 c 0,185,186
 147 132 147 132 132 117 c 128,-1,187
 117 102 117 102 95 102 c 256,188,189
 73 102 73 102 58.5 117 c 128,-1,190
 44 132 44 132 44 154 c 0,191,192
 44 174 44 174 58 188 c 0,193,194
 70 201 70 201 90 205 c 1,195,196
 70 207 70 207 58 221 c 0,197,198
 44 236 44 236 44 256 c 256,129,130
147 666 m 256,199,200
 147 688 147 688 161.5 702.5 c 128,-1,201
 176 717 176 717 198 717 c 0,202,203
 218 717 218 717 232.5 703.5 c 128,-1,204
 247 690 247 690 249 670 c 1,205,206
 251 690 251 690 265.5 703.5 c 128,-1,207
 280 717 280 717 300 717 c 256,208,209
 320 717 320 717 335 703 c 0,210,211
 348 690 348 690 351 671 c 1,212,213
 353 690 353 690 367.5 703.5 c 128,-1,214
 382 717 382 717 403 717 c 0,215,216
 425 717 425 717 439.5 702 c 128,-1,217
 454 687 454 687 454 666 c 0,218,219
 454 644 454 644 439 629 c 128,-1,220
 424 614 424 614 403 614 c 0,221,222
 383 614 383 614 368 628 c 0,223,224
 354 640 354 640 351 660 c 1,225,226
 348 640 348 640 335 628 c 0,227,228
 321 615 321 615 300 614 c 0,229,230
 280 614 280 614 265 628 c 0,231,232
 251 640 251 640 249 660 c 1,233,234
 246 640 246 640 233 628 c 0,235,236
 219 615 219 615 198 614 c 0,237,238
 176 614 176 614 161.5 629 c 128,-1,239
 147 644 147 644 147 666 c 256,199,200
454 563 m 256,240,241
 454 585 454 585 468.5 599.5 c 128,-1,242
 483 614 483 614 505 614 c 256,243,244
 527 614 527 614 541.5 599.5 c 128,-1,245
 556 585 556 585 556 563 c 256,246,247
 556 541 556 541 541.5 526.5 c 128,-1,248
 527 512 527 512 505 512 c 256,249,250
 483 512 483 512 468.5 526.5 c 128,-1,251
 454 541 454 541 454 563 c 256,240,241
EndSplineSet
EndChar

StartChar: H
Encoding: 72 72 21
Width: 600
VWidth: 1024
Flags: W
LayerCount: 2
Fore
SplineSet
454 256 m 256,0,1
 454 276 454 276 467 291 c 0,2,3
 479 304 479 304 500 307 c 1,4,5
 481 309 481 309 468.5 321.5 c 128,-1,6
 456 334 456 334 454 353 c 1,7,8
 451 333 451 333 437 321 c 0,9,10
 423 308 423 308 403 307 c 0,11,12
 383 307 383 307 368 321 c 0,13,14
 354 333 354 333 351 353 c 1,15,16
 348 333 348 333 335 321 c 0,17,18
 321 308 321 308 300 307 c 0,19,20
 280 307 280 307 265 321 c 0,21,22
 251 333 251 333 249 353 c 1,23,24
 246 333 246 333 233 321 c 0,25,26
 219 308 219 308 198 307 c 0,27,28
 178 307 178 307 163 321 c 0,29,30
 149 333 149 333 147 353 c 1,31,32
 144 334 144 334 131 321.5 c 128,-1,33
 118 309 118 309 101 307 c 1,34,35
 120 304 120 304 133 291 c 0,36,37
 146 277 146 277 147 256 c 0,38,39
 147 236 147 236 133.5 221.5 c 128,-1,40
 120 207 120 207 101 205 c 1,41,42
 120 202 120 202 133 188 c 128,-1,43
 146 174 146 174 147 154 c 0,44,45
 147 134 147 134 133.5 119 c 128,-1,46
 120 104 120 104 101 102 c 1,47,48
 120 99 120 99 133 86 c 0,49,50
 146 72 146 72 147 51 c 0,51,52
 147 29 147 29 132 14.5 c 128,-1,53
 117 0 117 0 95 0 c 256,54,55
 73 0 73 0 58.5 15 c 128,-1,56
 44 30 44 30 44 51 c 0,57,58
 44 71 44 71 58 86 c 0,59,60
 70 99 70 99 90 102 c 1,61,62
 70 104 70 104 58 119 c 0,63,64
 45 133 45 133 44 154 c 0,65,66
 44 174 44 174 58 188 c 0,67,68
 70 201 70 201 90 205 c 1,69,70
 70 207 70 207 58 221 c 0,71,72
 45 235 45 235 44 256 c 0,73,74
 44 276 44 276 58 291 c 0,75,76
 70 304 70 304 90 307 c 1,77,78
 70 309 70 309 58 324 c 0,79,80
 45 338 45 338 44 358 c 0,81,82
 44 378 44 378 58 393 c 0,83,84
 70 406 70 406 90 410 c 1,85,86
 70 412 70 412 58 426 c 0,87,88
 45 440 45 440 44 461 c 0,89,90
 44 481 44 481 58 496 c 0,91,92
 70 509 70 509 90 512 c 1,93,94
 70 514 70 514 58 528 c 0,95,96
 45 542 45 542 44 563 c 0,97,98
 44 583 44 583 58 598 c 0,99,100
 70 611 70 611 90 614 c 1,101,102
 70 616 70 616 58 631 c 0,103,104
 45 645 45 645 44 666 c 0,105,106
 44 688 44 688 59 702.5 c 128,-1,107
 74 717 74 717 95 717 c 0,108,109
 117 717 117 717 132 702 c 128,-1,110
 147 687 147 687 147 666 c 0,111,112
 147 646 147 646 133.5 631 c 128,-1,113
 120 616 120 616 101 614 c 1,114,115
 120 611 120 611 133 598 c 0,116,117
 146 584 146 584 147 563 c 0,118,119
 147 543 147 543 133.5 528.5 c 128,-1,120
 120 514 120 514 101 512 c 1,121,122
 120 509 120 509 133 496 c 0,123,124
 146 482 146 482 147 461 c 0,125,126
 147 441 147 441 133.5 426.5 c 128,-1,127
 120 412 120 412 101 410 c 1,128,129
 120 407 120 407 133 393 c 128,-1,130
 146 379 146 379 147 358 c 1,131,132
 147 380 147 380 161.5 395 c 128,-1,133
 176 410 176 410 198 410 c 0,134,135
 218 410 218 410 232.5 396.5 c 128,-1,136
 247 383 247 383 249 362 c 1,137,138
 251 382 251 382 265.5 396 c 128,-1,139
 280 410 280 410 300 410 c 0,140,141
 322 410 322 410 336.5 395 c 128,-1,142
 351 380 351 380 351 358 c 1,143,144
 351 380 351 380 366 395 c 128,-1,145
 381 410 381 410 403 410 c 256,146,147
 425 410 425 410 439.5 395 c 128,-1,148
 454 380 454 380 454 358 c 1,149,150
 454 378 454 378 467 393 c 0,151,152
 479 406 479 406 500 410 c 1,153,154
 480 412 480 412 467 426 c 128,-1,155
 454 440 454 440 454 461 c 0,156,157
 454 481 454 481 467 496 c 0,158,159
 479 509 479 509 500 512 c 1,160,161
 480 514 480 514 467 528 c 128,-1,162
 454 542 454 542 454 563 c 0,163,164
 454 583 454 583 467 598 c 0,165,166
 479 611 479 611 500 614 c 1,167,168
 480 616 480 616 467 631 c 0,169,170
 454 645 454 645 454 666 c 0,171,172
 454 688 454 688 468.5 702.5 c 128,-1,173
 483 717 483 717 505 717 c 256,174,175
 527 717 527 717 541.5 702 c 128,-1,176
 556 687 556 687 556 666 c 0,177,178
 556 646 556 646 543 631 c 128,-1,179
 530 616 530 616 510 614 c 1,180,181
 529 611 529 611 543 598 c 0,182,183
 556 584 556 584 556 563 c 0,184,185
 556 543 556 543 543 528.5 c 128,-1,186
 530 514 530 514 510 512 c 1,187,188
 529 509 529 509 543 496 c 0,189,190
 556 482 556 482 556 461 c 0,191,192
 556 441 556 441 543 426.5 c 128,-1,193
 530 412 530 412 510 410 c 1,194,195
 529 407 529 407 543 393 c 0,196,197
 556 379 556 379 556 358 c 0,198,199
 556 338 556 338 543 323.5 c 128,-1,200
 530 309 530 309 510 307 c 1,201,202
 529 304 529 304 543 291 c 0,203,204
 556 277 556 277 556 256 c 0,205,206
 556 236 556 236 543 221.5 c 128,-1,207
 530 207 530 207 510 205 c 1,208,209
 529 202 529 202 543 188 c 0,210,211
 556 174 556 174 556 154 c 256,212,213
 556 134 556 134 543 119 c 128,-1,214
 530 104 530 104 510 102 c 1,215,216
 529 99 529 99 543 86 c 0,217,218
 556 72 556 72 556 51 c 0,219,220
 556 29 556 29 541.5 14.5 c 128,-1,221
 527 0 527 0 505 0 c 256,222,223
 483 0 483 0 468.5 15 c 128,-1,224
 454 30 454 30 454 51 c 0,225,226
 454 71 454 71 467 86 c 0,227,228
 479 99 479 99 500 102 c 1,229,230
 480 104 480 104 467 119 c 0,231,232
 454 133 454 133 454 154 c 0,233,234
 454 174 454 174 467 188 c 0,235,236
 479 201 479 201 500 205 c 1,237,238
 480 207 480 207 467 221 c 0,239,240
 454 236 454 236 454 256 c 256,0,1
EndSplineSet
EndChar

StartChar: I
Encoding: 73 73 22
Width: 600
VWidth: 1024
Flags: W
LayerCount: 2
Fore
SplineSet
249 563 m 256,0,1
 249 583 249 583 261 598 c 0,2,3
 273 611 273 611 295 614 c 1,4,5
 276 616 276 616 263.5 628.5 c 128,-1,6
 251 641 251 641 249 660 c 1,7,8
 247 640 247 640 233 628 c 0,9,10
 219 615 219 615 197 614 c 0,11,12
 175 614 175 614 161 629 c 128,-1,13
 147 644 147 644 147 666 c 256,14,15
 147 688 147 688 161 702.5 c 128,-1,16
 175 717 175 717 197 717 c 256,17,18
 219 717 219 717 234 702 c 128,-1,19
 249 687 249 687 249 666 c 1,20,21
 249 688 249 688 264 702.5 c 128,-1,22
 279 717 279 717 299 717 c 0,23,24
 319 717 319 717 335 703 c 0,25,26
 349 690 349 690 351 671 c 1,27,28
 353 690 353 690 367 703.5 c 128,-1,29
 381 717 381 717 403 717 c 0,30,31
 425 717 425 717 439 702 c 128,-1,32
 453 687 453 687 453 666 c 0,33,34
 453 644 453 644 438 629 c 128,-1,35
 423 614 423 614 403 614 c 0,36,37
 383 614 383 614 367 628 c 0,38,39
 353 640 353 640 351 660 c 1,40,41
 348 641 348 641 335.5 628.5 c 128,-1,42
 323 616 323 616 305 614 c 1,43,44
 323 611 323 611 337 598 c 0,45,46
 351 584 351 584 351 563 c 0,47,48
 351 543 351 543 338 528.5 c 128,-1,49
 325 514 325 514 305 512 c 1,50,51
 323 509 323 509 337 496 c 0,52,53
 351 482 351 482 351 461 c 0,54,55
 351 441 351 441 338 426.5 c 128,-1,56
 325 412 325 412 305 410 c 1,57,58
 323 407 323 407 337 393 c 0,59,60
 351 379 351 379 351 358 c 0,61,62
 351 338 351 338 338 323.5 c 128,-1,63
 325 309 325 309 305 307 c 1,64,65
 323 304 323 304 337 291 c 0,66,67
 351 277 351 277 351 256 c 0,68,69
 351 236 351 236 338 221.5 c 128,-1,70
 325 207 325 207 305 205 c 1,71,72
 323 202 323 202 337 188 c 0,73,74
 351 174 351 174 351 154 c 256,75,76
 351 134 351 134 338 119 c 128,-1,77
 325 104 325 104 305 102 c 1,78,79
 321 99 321 99 335 87 c 0,80,81
 349 74 349 74 351 55 c 1,82,83
 353 75 353 75 367 88.5 c 128,-1,84
 381 102 381 102 403 102 c 0,85,86
 425 102 425 102 439 87.5 c 128,-1,87
 453 73 453 73 453 51 c 256,88,89
 453 29 453 29 438 14.5 c 128,-1,90
 423 0 423 0 403 0 c 0,91,92
 383 0 383 0 367 13 c 0,93,94
 353 25 353 25 351 46 c 1,95,96
 349 26 349 26 335 13 c 0,97,98
 321 0 321 0 299 0 c 0,99,100
 279 0 279 0 265 13 c 0,101,102
 251 25 251 25 249 46 c 1,103,104
 247 26 247 26 233 13 c 0,105,106
 219 0 219 0 197 0 c 0,107,108
 175 0 175 0 161 15 c 128,-1,109
 147 30 147 30 147 51 c 0,110,111
 147 73 147 73 161 87.5 c 128,-1,112
 175 102 175 102 197 102 c 0,113,114
 217 102 217 102 232 89 c 128,-1,115
 247 76 247 76 249 55 c 1,116,117
 251 73 251 73 263 87 c 0,118,119
 275 99 275 99 295 102 c 1,120,121
 275 104 275 104 261 119 c 0,122,123
 249 133 249 133 249 154 c 0,124,125
 249 174 249 174 261 188 c 0,126,127
 273 201 273 201 295 205 c 1,128,129
 275 207 275 207 262 221 c 128,-1,130
 249 235 249 235 249 256 c 0,131,132
 249 276 249 276 261 291 c 0,133,134
 273 304 273 304 295 307 c 1,135,136
 275 309 275 309 261 324 c 0,137,138
 249 338 249 338 249 358 c 256,139,140
 249 378 249 378 261 393 c 0,141,142
 273 406 273 406 295 410 c 1,143,144
 275 412 275 412 262 426 c 128,-1,145
 249 440 249 440 249 461 c 0,146,147
 249 481 249 481 261 496 c 0,148,149
 273 509 273 509 295 512 c 1,150,151
 275 514 275 514 261 528 c 0,152,153
 249 543 249 543 249 563 c 256,0,1
EndSplineSet
EndChar

StartChar: J
Encoding: 74 74 23
Width: 600
VWidth: 1024
Flags: W
LayerCount: 2
Fore
SplineSet
351 563 m 256,0,1
 351 583 351 583 365 598 c 0,2,3
 377 611 377 611 397 614 c 1,4,5
 378 616 378 616 365.5 628.5 c 128,-1,6
 353 641 353 641 351 660 c 1,7,8
 348 640 348 640 335 628 c 0,9,10
 321 615 321 615 300 614 c 0,11,12
 278 614 278 614 263.5 629 c 128,-1,13
 249 644 249 644 249 666 c 256,14,15
 249 688 249 688 264 702.5 c 128,-1,16
 279 717 279 717 300 717 c 0,17,18
 320 717 320 717 335 703 c 0,19,20
 348 690 348 690 351 671 c 1,21,22
 353 690 353 690 367.5 703.5 c 128,-1,23
 382 717 382 717 403 717 c 0,24,25
 425 717 425 717 439.5 702 c 128,-1,26
 454 687 454 687 454 666 c 1,27,28
 454 688 454 688 468.5 702.5 c 128,-1,29
 483 717 483 717 505 717 c 256,30,31
 527 717 527 717 541.5 702 c 128,-1,32
 556 687 556 687 556 666 c 0,33,34
 556 644 556 644 541.5 629 c 128,-1,35
 527 614 527 614 505 614 c 0,36,37
 485 614 485 614 470 628 c 0,38,39
 456 640 456 640 454 660 c 1,40,41
 451 641 451 641 438 628.5 c 128,-1,42
 425 616 425 616 408 614 c 1,43,44
 427 611 427 611 440 598 c 0,45,46
 453 584 453 584 454 563 c 0,47,48
 454 543 454 543 440.5 528.5 c 128,-1,49
 427 514 427 514 408 512 c 1,50,51
 427 509 427 509 440 496 c 0,52,53
 453 482 453 482 454 461 c 0,54,55
 454 441 454 441 440.5 426.5 c 128,-1,56
 427 412 427 412 408 410 c 1,57,58
 427 407 427 407 440 393 c 128,-1,59
 453 379 453 379 454 358 c 0,60,61
 454 338 454 338 440.5 323.5 c 128,-1,62
 427 309 427 309 408 307 c 1,63,64
 427 304 427 304 440 291 c 0,65,66
 453 277 453 277 454 256 c 0,67,68
 454 236 454 236 440.5 221.5 c 128,-1,69
 427 207 427 207 408 205 c 1,70,71
 427 202 427 202 440 188 c 128,-1,72
 453 174 453 174 454 154 c 0,73,74
 454 132 454 132 439 117 c 128,-1,75
 424 102 424 102 403 102 c 0,76,77
 381 102 381 102 366 117 c 128,-1,78
 351 132 351 132 351 154 c 0,79,80
 351 174 351 174 365 188 c 0,81,82
 377 201 377 201 397 205 c 1,83,84
 377 207 377 207 365 221 c 0,85,86
 352 235 352 235 351 256 c 0,87,88
 351 276 351 276 365 291 c 0,89,90
 377 304 377 304 397 307 c 1,91,92
 377 309 377 309 365 324 c 0,93,94
 352 338 352 338 351 358 c 0,95,96
 351 378 351 378 365 393 c 0,97,98
 377 406 377 406 397 410 c 1,99,100
 377 412 377 412 365 426 c 0,101,102
 352 440 352 440 351 461 c 0,103,104
 351 481 351 481 365 496 c 0,105,106
 377 509 377 509 397 512 c 1,107,108
 377 514 377 514 365 528 c 0,109,110
 351 543 351 543 351 563 c 256,0,1
147 51 m 256,111,112
 147 73 147 73 161.5 87.5 c 128,-1,113
 176 102 176 102 198 102 c 256,114,115
 220 102 220 102 234 87 c 0,116,117
 247 74 247 74 249 55 c 1,118,119
 250 73 250 73 263 87 c 0,120,121
 278 102 278 102 300 102 c 256,122,123
 322 102 322 102 336.5 87.5 c 128,-1,124
 351 73 351 73 351 51 c 256,125,126
 351 29 351 29 336.5 14.5 c 128,-1,127
 322 0 322 0 300 0 c 0,128,129
 280 0 280 0 265 13 c 0,130,131
 251 25 251 25 249 46 c 1,132,133
 246 26 246 26 233 13 c 0,134,135
 219 0 219 0 198 0 c 0,136,137
 176 0 176 0 161.5 14.5 c 128,-1,138
 147 29 147 29 147 51 c 256,111,112
44 154 m 256,139,140
 44 176 44 176 59 190.5 c 128,-1,141
 74 205 74 205 95 205 c 0,142,143
 117 205 117 205 132 190 c 128,-1,144
 147 175 147 175 147 154 c 0,145,146
 147 132 147 132 132 117 c 128,-1,147
 117 102 117 102 95 102 c 256,148,149
 73 102 73 102 58.5 117 c 128,-1,150
 44 132 44 132 44 154 c 256,139,140
EndSplineSet
EndChar

StartChar: K
Encoding: 75 75 24
Width: 600
VWidth: 1024
Flags: W
LayerCount: 2
Fore
SplineSet
44 563 m 256,0,1
 44 583 44 583 58 598 c 0,2,3
 70 611 70 611 90 614 c 1,4,5
 70 616 70 616 58 631 c 0,6,7
 45 645 45 645 44 666 c 0,8,9
 44 688 44 688 59 702.5 c 128,-1,10
 74 717 74 717 95 717 c 0,11,12
 117 717 117 717 132 702 c 128,-1,13
 147 687 147 687 147 666 c 0,14,15
 147 646 147 646 133.5 631 c 128,-1,16
 120 616 120 616 101 614 c 1,17,18
 120 611 120 611 133 598 c 0,19,20
 146 584 146 584 147 563 c 0,21,22
 147 543 147 543 133.5 528.5 c 128,-1,23
 120 514 120 514 101 512 c 1,24,25
 120 509 120 509 133 496 c 0,26,27
 146 482 146 482 147 461 c 0,28,29
 147 441 147 441 133.5 426.5 c 128,-1,30
 120 412 120 412 101 410 c 1,31,32
 118 407 118 407 131 394 c 128,-1,33
 144 381 144 381 147 364 c 1,34,35
 149 383 149 383 163 396.5 c 128,-1,36
 177 410 177 410 198 410 c 0,37,38
 220 410 220 410 234.5 395 c 128,-1,39
 249 380 249 380 249 358 c 256,40,41
 249 336 249 336 234 321.5 c 128,-1,42
 219 307 219 307 198 307 c 0,43,44
 178 307 178 307 163 321 c 0,45,46
 149 333 149 333 147 353 c 1,47,48
 144 334 144 334 131 321.5 c 128,-1,49
 118 309 118 309 101 307 c 1,50,51
 120 304 120 304 133 291 c 0,52,53
 146 277 146 277 147 256 c 0,54,55
 147 236 147 236 133.5 221.5 c 128,-1,56
 120 207 120 207 101 205 c 1,57,58
 120 202 120 202 133 188 c 128,-1,59
 146 174 146 174 147 154 c 0,60,61
 147 134 147 134 133.5 119 c 128,-1,62
 120 104 120 104 101 102 c 1,63,64
 120 99 120 99 133 86 c 0,65,66
 146 72 146 72 147 51 c 0,67,68
 147 29 147 29 132 14.5 c 128,-1,69
 117 0 117 0 95 0 c 256,70,71
 73 0 73 0 58.5 15 c 128,-1,72
 44 30 44 30 44 51 c 0,73,74
 44 71 44 71 58 86 c 0,75,76
 70 99 70 99 90 102 c 1,77,78
 70 104 70 104 58 119 c 0,79,80
 45 133 45 133 44 154 c 0,81,82
 44 174 44 174 58 188 c 0,83,84
 70 201 70 201 90 205 c 1,85,86
 70 207 70 207 58 221 c 0,87,88
 45 235 45 235 44 256 c 0,89,90
 44 276 44 276 58 291 c 0,91,92
 70 304 70 304 90 307 c 1,93,94
 70 309 70 309 58 324 c 0,95,96
 45 338 45 338 44 358 c 0,97,98
 44 378 44 378 58 393 c 0,99,100
 70 406 70 406 90 410 c 1,101,102
 70 412 70 412 58 426 c 0,103,104
 45 440 45 440 44 461 c 0,105,106
 44 481 44 481 58 496 c 0,107,108
 70 509 70 509 90 512 c 1,109,110
 70 514 70 514 58 528 c 0,111,112
 44 543 44 543 44 563 c 256,0,1
454 51 m 256,113,114
 454 73 454 73 468.5 87.5 c 128,-1,115
 483 102 483 102 505 102 c 256,116,117
 527 102 527 102 541.5 87.5 c 128,-1,118
 556 73 556 73 556 51 c 256,119,120
 556 29 556 29 541.5 14.5 c 128,-1,121
 527 0 527 0 505 0 c 256,122,123
 483 0 483 0 468.5 14.5 c 128,-1,124
 454 29 454 29 454 51 c 256,113,114
249 461 m 256,125,126
 249 483 249 483 264 497.5 c 128,-1,127
 279 512 279 512 300 512 c 0,128,129
 322 512 322 512 336.5 497 c 128,-1,130
 351 482 351 482 351 461 c 0,131,132
 351 439 351 439 336.5 424.5 c 128,-1,133
 322 410 322 410 300 410 c 256,134,135
 278 410 278 410 263.5 424.5 c 128,-1,136
 249 439 249 439 249 461 c 256,125,126
351 154 m 256,137,138
 351 176 351 176 366 190.5 c 128,-1,139
 381 205 381 205 403 205 c 256,140,141
 425 205 425 205 439.5 190 c 128,-1,142
 454 175 454 175 454 154 c 0,143,144
 454 132 454 132 439 117 c 128,-1,145
 424 102 424 102 403 102 c 0,146,147
 381 102 381 102 366 117 c 128,-1,148
 351 132 351 132 351 154 c 256,137,138
351 563 m 256,149,150
 351 585 351 585 366 599.5 c 128,-1,151
 381 614 381 614 403 614 c 256,152,153
 425 614 425 614 439.5 599.5 c 128,-1,154
 454 585 454 585 454 563 c 256,155,156
 454 541 454 541 439 526.5 c 128,-1,157
 424 512 424 512 403 512 c 0,158,159
 381 512 381 512 366 526.5 c 128,-1,160
 351 541 351 541 351 563 c 256,149,150
454 666 m 256,161,162
 454 688 454 688 468.5 702.5 c 128,-1,163
 483 717 483 717 505 717 c 256,164,165
 527 717 527 717 541.5 702 c 128,-1,166
 556 687 556 687 556 666 c 0,167,168
 556 644 556 644 541.5 629 c 128,-1,169
 527 614 527 614 505 614 c 256,170,171
 483 614 483 614 468.5 629 c 128,-1,172
 454 644 454 644 454 666 c 256,161,162
249 256 m 256,173,174
 249 278 249 278 264 292.5 c 128,-1,175
 279 307 279 307 300 307 c 0,176,177
 325 307 325 307 337.5 291 c 128,-1,178
 350 275 350 275 350 256 c 128,-1,179
 350 237 350 237 337.5 221 c 128,-1,180
 325 205 325 205 300 205 c 0,181,182
 278 205 278 205 263.5 219.5 c 128,-1,183
 249 234 249 234 249 256 c 256,173,174
EndSplineSet
EndChar

StartChar: L
Encoding: 76 76 25
Width: 600
VWidth: 1024
Flags: W
LayerCount: 2
Fore
SplineSet
44 666 m 0,0,1
 44 688 44 688 59 702.5 c 128,-1,2
 74 717 74 717 95 717 c 0,3,4
 117 717 117 717 132 702 c 128,-1,5
 147 687 147 687 147 666 c 0,6,7
 147 646 147 646 133.5 631 c 128,-1,8
 120 616 120 616 101 614 c 1,9,10
 120 611 120 611 133 598 c 0,11,12
 146 584 146 584 147 563 c 0,13,14
 147 543 147 543 133.5 528.5 c 128,-1,15
 120 514 120 514 101 512 c 1,16,17
 120 509 120 509 133 496 c 0,18,19
 146 482 146 482 147 461 c 0,20,21
 147 441 147 441 133.5 426.5 c 128,-1,22
 120 412 120 412 101 410 c 1,23,24
 120 407 120 407 133 393 c 128,-1,25
 146 379 146 379 147 358 c 0,26,27
 147 338 147 338 133.5 323.5 c 128,-1,28
 120 309 120 309 101 307 c 1,29,30
 120 304 120 304 133 291 c 0,31,32
 146 277 146 277 147 256 c 0,33,34
 147 236 147 236 133.5 221.5 c 128,-1,35
 120 207 120 207 101 205 c 1,36,37
 120 202 120 202 133 188 c 128,-1,38
 146 174 146 174 147 154 c 0,39,40
 147 134 147 134 133.5 119 c 128,-1,41
 120 104 120 104 101 102 c 1,42,43
 120 99 120 99 133 86 c 0,44,45
 146 72 146 72 147 51 c 1,46,47
 147 73 147 73 161.5 87.5 c 128,-1,48
 176 102 176 102 198 102 c 0,49,50
 218 102 218 102 232.5 89 c 128,-1,51
 247 76 247 76 249 55 c 1,52,53
 251 75 251 75 265.5 88.5 c 128,-1,54
 280 102 280 102 300 102 c 0,55,56
 322 102 322 102 336.5 87.5 c 128,-1,57
 351 73 351 73 351 51 c 1,58,59
 351 73 351 73 366 87.5 c 128,-1,60
 381 102 381 102 403 102 c 256,61,62
 425 102 425 102 439.5 87.5 c 128,-1,63
 454 73 454 73 454 51 c 1,64,65
 454 73 454 73 468.5 87.5 c 128,-1,66
 483 102 483 102 505 102 c 256,67,68
 527 102 527 102 541.5 87.5 c 128,-1,69
 556 73 556 73 556 51 c 256,70,71
 556 29 556 29 541.5 14.5 c 128,-1,72
 527 0 527 0 505 0 c 0,73,74
 485 0 485 0 470 13 c 0,75,76
 456 25 456 25 454 46 c 1,77,78
 451 26 451 26 437 13 c 128,-1,79
 423 0 423 0 403 0 c 256,80,81
 383 0 383 0 368 13 c 0,82,83
 354 25 354 25 351 46 c 1,84,85
 348 26 348 26 335 13 c 0,86,87
 321 0 321 0 300 0 c 0,88,89
 280 0 280 0 265 13 c 0,90,91
 251 25 251 25 249 46 c 1,92,93
 246 26 246 26 233 13 c 0,94,95
 219 0 219 0 198 0 c 0,96,97
 178 0 178 0 163 13 c 0,98,99
 149 25 149 25 147 46 c 1,100,101
 144 26 144 26 130 13 c 128,-1,102
 116 0 116 0 95 0 c 0,103,104
 73 0 73 0 58.5 15 c 128,-1,105
 44 30 44 30 44 51 c 0,106,107
 44 71 44 71 58 86 c 0,108,109
 70 99 70 99 90 102 c 1,110,111
 70 104 70 104 58 119 c 0,112,113
 45 133 45 133 44 154 c 0,114,115
 44 174 44 174 58 188 c 0,116,117
 70 201 70 201 90 205 c 1,118,119
 70 207 70 207 58 221 c 0,120,121
 45 235 45 235 44 256 c 0,122,123
 44 276 44 276 58 291 c 0,124,125
 70 304 70 304 90 307 c 1,126,127
 70 309 70 309 58 324 c 0,128,129
 45 338 45 338 44 358 c 0,130,131
 44 378 44 378 58 393 c 0,132,133
 70 406 70 406 90 410 c 1,134,135
 70 412 70 412 58 426 c 0,136,137
 45 440 45 440 44 461 c 0,138,139
 44 481 44 481 58 496 c 0,140,141
 70 509 70 509 90 512 c 1,142,143
 70 514 70 514 58 528 c 0,144,145
 45 542 45 542 44 563 c 0,146,147
 44 583 44 583 58 598 c 0,148,149
 70 611 70 611 90 614 c 1,150,151
 70 616 70 616 58 631 c 0,152,153
 44 646 44 646 44 666 c 0,0,1
EndSplineSet
EndChar

StartChar: M
Encoding: 77 77 26
Width: 600
VWidth: 1024
Flags: W
LayerCount: 2
Fore
SplineSet
454 461 m 256,0,1
 454 481 454 481 467 496 c 0,2,3
 479 509 479 509 500 512 c 1,4,5
 481 514 481 514 468.5 526.5 c 128,-1,6
 456 539 456 539 454 558 c 1,7,8
 451 538 451 538 437 525 c 128,-1,9
 423 512 423 512 403 512 c 0,10,11
 381 512 381 512 366 527 c 128,-1,12
 351 542 351 542 351 563 c 0,13,14
 351 585 351 585 366 599.5 c 128,-1,15
 381 614 381 614 403 614 c 256,16,17
 425 614 425 614 438 599 c 0,18,19
 451 586 451 586 454 567 c 1,20,21
 455 584 455 584 467 598 c 0,22,23
 479 611 479 611 500 614 c 1,24,25
 480 616 480 616 467 631 c 0,26,27
 454 645 454 645 454 666 c 0,28,29
 454 688 454 688 468.5 702.5 c 128,-1,30
 483 717 483 717 505 717 c 256,31,32
 527 717 527 717 541.5 702 c 128,-1,33
 556 687 556 687 556 666 c 0,34,35
 556 646 556 646 543 631 c 128,-1,36
 530 616 530 616 510 614 c 1,37,38
 529 611 529 611 543 598 c 0,39,40
 556 584 556 584 556 563 c 0,41,42
 556 543 556 543 543 528.5 c 128,-1,43
 530 514 530 514 510 512 c 1,44,45
 529 509 529 509 543 496 c 0,46,47
 556 482 556 482 556 461 c 0,48,49
 556 441 556 441 543 426.5 c 128,-1,50
 530 412 530 412 510 410 c 1,51,52
 529 407 529 407 543 393 c 0,53,54
 556 379 556 379 556 358 c 0,55,56
 556 338 556 338 543 323.5 c 128,-1,57
 530 309 530 309 510 307 c 1,58,59
 529 304 529 304 543 291 c 0,60,61
 556 277 556 277 556 256 c 0,62,63
 556 236 556 236 543 221.5 c 128,-1,64
 530 207 530 207 510 205 c 1,65,66
 529 202 529 202 543 188 c 0,67,68
 556 174 556 174 556 154 c 256,69,70
 556 134 556 134 543 119 c 128,-1,71
 530 104 530 104 510 102 c 1,72,73
 529 99 529 99 543 86 c 0,74,75
 556 72 556 72 556 51 c 0,76,77
 556 29 556 29 541.5 14.5 c 128,-1,78
 527 0 527 0 505 0 c 256,79,80
 483 0 483 0 468.5 15 c 128,-1,81
 454 30 454 30 454 51 c 0,82,83
 454 71 454 71 467 86 c 0,84,85
 479 99 479 99 500 102 c 1,86,87
 480 104 480 104 467 119 c 0,88,89
 454 133 454 133 454 154 c 0,90,91
 454 174 454 174 467 188 c 0,92,93
 479 201 479 201 500 205 c 1,94,95
 480 207 480 207 467 221 c 128,-1,96
 454 235 454 235 454 256 c 0,97,98
 454 276 454 276 467 291 c 0,99,100
 479 304 479 304 500 307 c 1,101,102
 480 309 480 309 467 324 c 0,103,104
 454 338 454 338 454 358 c 256,105,106
 454 378 454 378 467 393 c 0,107,108
 479 406 479 406 500 410 c 1,109,110
 480 412 480 412 467 426 c 0,111,112
 454 441 454 441 454 461 c 256,0,1
44 563 m 256,113,114
 44 583 44 583 58 598 c 0,115,116
 70 611 70 611 90 614 c 1,117,118
 70 616 70 616 58 631 c 0,119,120
 45 645 45 645 44 666 c 0,121,122
 44 688 44 688 59 702.5 c 128,-1,123
 74 717 74 717 95 717 c 0,124,125
 117 717 117 717 132 702 c 128,-1,126
 147 687 147 687 147 666 c 0,127,128
 147 646 147 646 133.5 631 c 128,-1,129
 120 616 120 616 101 614 c 1,130,131
 120 611 120 611 133 598 c 0,132,133
 144 585 144 585 147 567 c 1,134,135
 148 585 148 585 161 599 c 0,136,137
 176 614 176 614 198 614 c 256,138,139
 220 614 220 614 234.5 599.5 c 128,-1,140
 249 585 249 585 249 563 c 256,141,142
 249 541 249 541 234 526.5 c 128,-1,143
 219 512 219 512 198 512 c 0,144,145
 178 512 178 512 163 525 c 0,146,147
 149 537 149 537 147 558 c 1,148,149
 144 539 144 539 131 526.5 c 128,-1,150
 118 514 118 514 101 512 c 1,151,152
 120 509 120 509 133 496 c 0,153,154
 146 482 146 482 147 461 c 0,155,156
 147 441 147 441 133.5 426.5 c 128,-1,157
 120 412 120 412 101 410 c 1,158,159
 120 407 120 407 133 393 c 128,-1,160
 146 379 146 379 147 358 c 0,161,162
 147 338 147 338 133.5 323.5 c 128,-1,163
 120 309 120 309 101 307 c 1,164,165
 120 304 120 304 133 291 c 0,166,167
 146 277 146 277 147 256 c 0,168,169
 147 236 147 236 133.5 221.5 c 128,-1,170
 120 207 120 207 101 205 c 1,171,172
 120 202 120 202 133 188 c 128,-1,173
 146 174 146 174 147 154 c 0,174,175
 147 134 147 134 133.5 119 c 128,-1,176
 120 104 120 104 101 102 c 1,177,178
 120 99 120 99 133 86 c 0,179,180
 146 72 146 72 147 51 c 0,181,182
 147 29 147 29 132 14.5 c 128,-1,183
 117 0 117 0 95 0 c 256,184,185
 73 0 73 0 58.5 15 c 128,-1,186
 44 30 44 30 44 51 c 0,187,188
 44 71 44 71 58 86 c 0,189,190
 70 99 70 99 90 102 c 1,191,192
 70 104 70 104 58 119 c 0,193,194
 45 133 45 133 44 154 c 0,195,196
 44 174 44 174 58 188 c 0,197,198
 70 201 70 201 90 205 c 1,199,200
 70 207 70 207 58 221 c 0,201,202
 45 235 45 235 44 256 c 0,203,204
 44 276 44 276 58 291 c 0,205,206
 70 304 70 304 90 307 c 1,207,208
 70 309 70 309 58 324 c 0,209,210
 45 338 45 338 44 358 c 0,211,212
 44 378 44 378 58 393 c 0,213,214
 70 406 70 406 90 410 c 1,215,216
 70 412 70 412 58 426 c 0,217,218
 45 440 45 440 44 461 c 0,219,220
 44 481 44 481 58 496 c 0,221,222
 70 509 70 509 90 512 c 1,223,224
 70 514 70 514 58 528 c 0,225,226
 44 543 44 543 44 563 c 256,113,114
249 461 m 256,227,228
 249 483 249 483 264 497.5 c 128,-1,229
 279 512 279 512 300 512 c 0,230,231
 322 512 322 512 336.5 497 c 128,-1,232
 351 482 351 482 351 461 c 0,233,234
 351 439 351 439 336.5 424.5 c 128,-1,235
 322 410 322 410 300 410 c 256,236,237
 278 410 278 410 263.5 424.5 c 128,-1,238
 249 439 249 439 249 461 c 256,227,228
EndSplineSet
EndChar

StartChar: N
Encoding: 78 78 27
Width: 600
VWidth: 1024
Flags: W
LayerCount: 2
Fore
SplineSet
454 51 m 0,0,1
 454 71 454 71 467 86 c 0,2,3
 479 99 479 99 500 102 c 1,4,5
 481 104 481 104 468.5 116.5 c 128,-1,6
 456 129 456 129 454 148 c 1,7,8
 451 128 451 128 437 116 c 0,9,10
 423 103 423 103 403 102 c 0,11,12
 381 102 381 102 366 117 c 128,-1,13
 351 132 351 132 351 154 c 256,14,15
 351 176 351 176 366 190.5 c 128,-1,16
 381 205 381 205 403 205 c 256,17,18
 425 205 425 205 439.5 190 c 128,-1,19
 454 175 454 175 454 154 c 1,20,21
 454 174 454 174 467 188 c 0,22,23
 479 201 479 201 500 205 c 1,24,25
 480 207 480 207 467 221 c 128,-1,26
 454 235 454 235 454 256 c 0,27,28
 454 276 454 276 467 291 c 0,29,30
 479 304 479 304 500 307 c 1,31,32
 480 309 480 309 467 324 c 0,33,34
 454 338 454 338 454 358 c 256,35,36
 454 378 454 378 467 393 c 0,37,38
 479 406 479 406 500 410 c 1,39,40
 480 412 480 412 467 426 c 128,-1,41
 454 440 454 440 454 461 c 0,42,43
 454 481 454 481 467 496 c 0,44,45
 479 509 479 509 500 512 c 1,46,47
 480 514 480 514 467 528 c 128,-1,48
 454 542 454 542 454 563 c 0,49,50
 454 583 454 583 467 598 c 0,51,52
 479 611 479 611 500 614 c 1,53,54
 480 616 480 616 467 631 c 0,55,56
 454 645 454 645 454 666 c 0,57,58
 454 688 454 688 468.5 702.5 c 128,-1,59
 483 717 483 717 505 717 c 256,60,61
 527 717 527 717 541.5 702 c 128,-1,62
 556 687 556 687 556 666 c 0,63,64
 556 646 556 646 543 631 c 128,-1,65
 530 616 530 616 510 614 c 1,66,67
 529 611 529 611 543 598 c 0,68,69
 556 584 556 584 556 563 c 0,70,71
 556 543 556 543 543 528.5 c 128,-1,72
 530 514 530 514 510 512 c 1,73,74
 529 509 529 509 543 496 c 0,75,76
 556 482 556 482 556 461 c 0,77,78
 556 441 556 441 543 426.5 c 128,-1,79
 530 412 530 412 510 410 c 1,80,81
 529 407 529 407 543 393 c 0,82,83
 556 379 556 379 556 358 c 0,84,85
 556 338 556 338 543 323.5 c 128,-1,86
 530 309 530 309 510 307 c 1,87,88
 529 304 529 304 543 291 c 0,89,90
 556 277 556 277 556 256 c 0,91,92
 556 236 556 236 543 221.5 c 128,-1,93
 530 207 530 207 510 205 c 1,94,95
 529 202 529 202 543 188 c 0,96,97
 556 174 556 174 556 154 c 256,98,99
 556 134 556 134 543 119 c 128,-1,100
 530 104 530 104 510 102 c 1,101,102
 529 99 529 99 543 86 c 0,103,104
 556 72 556 72 556 51 c 0,105,106
 556 29 556 29 541.5 14.5 c 128,-1,107
 527 0 527 0 505 0 c 256,108,109
 483 0 483 0 468.5 14.5 c 128,-1,110
 454 29 454 29 454 51 c 0,0,1
44 563 m 256,111,112
 44 583 44 583 58 598 c 0,113,114
 70 611 70 611 90 614 c 1,115,116
 70 616 70 616 58 631 c 0,117,118
 45 645 45 645 44 666 c 0,119,120
 44 688 44 688 59 702.5 c 128,-1,121
 74 717 74 717 95 717 c 0,122,123
 117 717 117 717 132 702 c 128,-1,124
 147 687 147 687 147 666 c 0,125,126
 147 646 147 646 133.5 631 c 128,-1,127
 120 616 120 616 101 614 c 1,128,129
 118 611 118 611 131 598.5 c 128,-1,130
 144 586 144 586 147 568 c 1,131,132
 149 587 149 587 163 600.5 c 128,-1,133
 177 614 177 614 198 614 c 0,134,135
 220 614 220 614 234.5 599.5 c 128,-1,136
 249 585 249 585 249 563 c 256,137,138
 249 541 249 541 234 526.5 c 128,-1,139
 219 512 219 512 198 512 c 0,140,141
 178 512 178 512 163 525 c 0,142,143
 149 537 149 537 147 558 c 1,144,145
 144 539 144 539 131 526.5 c 128,-1,146
 118 514 118 514 101 512 c 1,147,148
 120 509 120 509 133 496 c 0,149,150
 146 482 146 482 147 461 c 0,151,152
 147 441 147 441 133.5 426.5 c 128,-1,153
 120 412 120 412 101 410 c 1,154,155
 120 407 120 407 133 393 c 128,-1,156
 146 379 146 379 147 358 c 0,157,158
 147 338 147 338 133.5 323.5 c 128,-1,159
 120 309 120 309 101 307 c 1,160,161
 120 304 120 304 133 291 c 0,162,163
 146 277 146 277 147 256 c 0,164,165
 147 236 147 236 133.5 221.5 c 128,-1,166
 120 207 120 207 101 205 c 1,167,168
 120 202 120 202 133 188 c 128,-1,169
 146 174 146 174 147 154 c 0,170,171
 147 134 147 134 133.5 119 c 128,-1,172
 120 104 120 104 101 102 c 1,173,174
 120 99 120 99 133 86 c 0,175,176
 146 72 146 72 147 51 c 0,177,178
 147 29 147 29 132 14.5 c 128,-1,179
 117 0 117 0 95 0 c 256,180,181
 73 0 73 0 58.5 15 c 128,-1,182
 44 30 44 30 44 51 c 0,183,184
 44 71 44 71 58 86 c 0,185,186
 70 99 70 99 90 102 c 1,187,188
 70 104 70 104 58 119 c 0,189,190
 45 133 45 133 44 154 c 0,191,192
 44 174 44 174 58 188 c 0,193,194
 70 201 70 201 90 205 c 1,195,196
 70 207 70 207 58 221 c 0,197,198
 45 235 45 235 44 256 c 0,199,200
 44 276 44 276 58 291 c 0,201,202
 70 304 70 304 90 307 c 1,203,204
 70 309 70 309 58 324 c 0,205,206
 45 338 45 338 44 358 c 0,207,208
 44 378 44 378 58 393 c 0,209,210
 70 406 70 406 90 410 c 1,211,212
 70 412 70 412 58 426 c 0,213,214
 45 440 45 440 44 461 c 0,215,216
 44 481 44 481 58 496 c 0,217,218
 70 509 70 509 90 512 c 1,219,220
 70 514 70 514 58 528 c 0,221,222
 44 543 44 543 44 563 c 256,111,112
249 256 m 0,223,224
 249 276 249 276 262 291 c 0,225,226
 274 304 274 304 295 307 c 1,227,228
 275 309 275 309 262 324 c 0,229,230
 249 338 249 338 249 358 c 256,231,232
 249 378 249 378 262 393 c 0,233,234
 274 406 274 406 295 410 c 1,235,236
 275 412 275 412 262 426 c 128,-1,237
 249 440 249 440 249 461 c 0,238,239
 249 483 249 483 264 497.5 c 128,-1,240
 279 512 279 512 300 512 c 0,241,242
 322 512 322 512 336.5 497 c 128,-1,243
 351 482 351 482 351 461 c 0,244,245
 351 441 351 441 338 426.5 c 128,-1,246
 325 412 325 412 305 410 c 1,247,248
 324 407 324 407 338 393 c 0,249,250
 351 379 351 379 351 358 c 0,251,252
 351 338 351 338 338 323.5 c 128,-1,253
 325 309 325 309 305 307 c 1,254,255
 324 304 324 304 338 291 c 0,256,257
 351 277 351 277 351 256 c 0,258,259
 351 234 351 234 336.5 219.5 c 128,-1,260
 322 205 322 205 300 205 c 256,261,262
 278 205 278 205 263.5 219.5 c 128,-1,263
 249 234 249 234 249 256 c 0,223,224
EndSplineSet
EndChar

StartChar: O
Encoding: 79 79 28
Width: 600
VWidth: 1024
Flags: W
LayerCount: 2
Fore
SplineSet
44 256 m 256,0,1
 44 276 44 276 58 291 c 0,2,3
 70 304 70 304 90 307 c 1,4,5
 70 309 70 309 58 324 c 0,6,7
 45 338 45 338 44 358 c 0,8,9
 44 378 44 378 58 393 c 0,10,11
 70 406 70 406 90 410 c 1,12,13
 70 412 70 412 58 426 c 0,14,15
 45 440 45 440 44 461 c 0,16,17
 44 481 44 481 58 496 c 0,18,19
 70 509 70 509 90 512 c 1,20,21
 70 514 70 514 58 528 c 0,22,23
 45 542 45 542 44 563 c 0,24,25
 44 585 44 585 59 599.5 c 128,-1,26
 74 614 74 614 95 614 c 0,27,28
 117 614 117 614 132 599.5 c 128,-1,29
 147 585 147 585 147 563 c 0,30,31
 147 543 147 543 133.5 528.5 c 128,-1,32
 120 514 120 514 101 512 c 1,33,34
 120 509 120 509 133 496 c 0,35,36
 146 482 146 482 147 461 c 0,37,38
 147 441 147 441 133.5 426.5 c 128,-1,39
 120 412 120 412 101 410 c 1,40,41
 120 407 120 407 133 393 c 128,-1,42
 146 379 146 379 147 358 c 0,43,44
 147 338 147 338 133.5 323.5 c 128,-1,45
 120 309 120 309 101 307 c 1,46,47
 120 304 120 304 133 291 c 0,48,49
 146 277 146 277 147 256 c 0,50,51
 147 236 147 236 133.5 221.5 c 128,-1,52
 120 207 120 207 101 205 c 1,53,54
 120 202 120 202 133 188 c 128,-1,55
 146 174 146 174 147 154 c 0,56,57
 147 132 147 132 132 117 c 128,-1,58
 117 102 117 102 95 102 c 256,59,60
 73 102 73 102 58.5 117 c 128,-1,61
 44 132 44 132 44 154 c 0,62,63
 44 174 44 174 58 188 c 0,64,65
 70 201 70 201 90 205 c 1,66,67
 70 207 70 207 58 221 c 0,68,69
 44 236 44 236 44 256 c 256,0,1
454 256 m 256,70,71
 454 276 454 276 467 291 c 0,72,73
 479 304 479 304 500 307 c 1,74,75
 480 309 480 309 467 324 c 0,76,77
 454 338 454 338 454 358 c 256,78,79
 454 378 454 378 467 393 c 0,80,81
 479 406 479 406 500 410 c 1,82,83
 480 412 480 412 467 426 c 128,-1,84
 454 440 454 440 454 461 c 0,85,86
 454 481 454 481 467 496 c 0,87,88
 479 509 479 509 500 512 c 1,89,90
 480 514 480 514 467 528 c 128,-1,91
 454 542 454 542 454 563 c 0,92,93
 454 585 454 585 468.5 599.5 c 128,-1,94
 483 614 483 614 505 614 c 256,95,96
 527 614 527 614 541.5 599.5 c 128,-1,97
 556 585 556 585 556 563 c 0,98,99
 556 543 556 543 543 528.5 c 128,-1,100
 530 514 530 514 510 512 c 1,101,102
 529 509 529 509 543 496 c 0,103,104
 556 482 556 482 556 461 c 0,105,106
 556 441 556 441 543 426.5 c 128,-1,107
 530 412 530 412 510 410 c 1,108,109
 529 407 529 407 543 393 c 0,110,111
 556 379 556 379 556 358 c 0,112,113
 556 338 556 338 543 323.5 c 128,-1,114
 530 309 530 309 510 307 c 1,115,116
 529 304 529 304 543 291 c 0,117,118
 556 277 556 277 556 256 c 0,119,120
 556 236 556 236 543 221.5 c 128,-1,121
 530 207 530 207 510 205 c 1,122,123
 529 202 529 202 543 188 c 0,124,125
 556 174 556 174 556 154 c 0,126,127
 556 132 556 132 541.5 117 c 128,-1,128
 527 102 527 102 505 102 c 256,129,130
 483 102 483 102 468.5 117 c 128,-1,131
 454 132 454 132 454 154 c 0,132,133
 454 174 454 174 467 188 c 0,134,135
 479 201 479 201 500 205 c 1,136,137
 480 207 480 207 467 221 c 0,138,139
 454 236 454 236 454 256 c 256,70,71
147 666 m 256,140,141
 147 688 147 688 161.5 702.5 c 128,-1,142
 176 717 176 717 198 717 c 0,143,144
 218 717 218 717 233 703 c 0,145,146
 246 690 246 690 249 671 c 1,147,148
 251 690 251 690 265.5 703.5 c 128,-1,149
 280 717 280 717 300 717 c 0,150,151
 322 717 322 717 336.5 702 c 128,-1,152
 351 687 351 687 351 666 c 1,153,154
 351 688 351 688 366 702.5 c 128,-1,155
 381 717 381 717 403 717 c 256,156,157
 425 717 425 717 439.5 702 c 128,-1,158
 454 687 454 687 454 666 c 0,159,160
 454 644 454 644 439 629 c 128,-1,161
 424 614 424 614 403 614 c 0,162,163
 383 614 383 614 368 628 c 0,164,165
 354 640 354 640 351 660 c 1,166,167
 348 640 348 640 335 628 c 0,168,169
 321 615 321 615 300 614 c 0,170,171
 280 614 280 614 265 628 c 0,172,173
 251 640 251 640 249 660 c 1,174,175
 246 640 246 640 233 628 c 0,176,177
 219 615 219 615 198 614 c 0,178,179
 176 614 176 614 161.5 629 c 128,-1,180
 147 644 147 644 147 666 c 256,140,141
147 51 m 256,181,182
 147 73 147 73 161.5 87.5 c 128,-1,183
 176 102 176 102 198 102 c 0,184,185
 218 102 218 102 232.5 89 c 128,-1,186
 247 76 247 76 249 55 c 1,187,188
 251 75 251 75 265.5 88.5 c 128,-1,189
 280 102 280 102 300 102 c 256,190,191
 320 102 320 102 335 89 c 0,192,193
 348 76 348 76 351 56 c 1,194,195
 353 75 353 75 367.5 88.5 c 128,-1,196
 382 102 382 102 403 102 c 0,197,198
 425 102 425 102 439.5 87.5 c 128,-1,199
 454 73 454 73 454 51 c 256,200,201
 454 29 454 29 439 14.5 c 128,-1,202
 424 0 424 0 403 0 c 0,203,204
 383 0 383 0 368 13 c 0,205,206
 354 25 354 25 351 46 c 1,207,208
 348 26 348 26 335 13 c 0,209,210
 321 0 321 0 300 0 c 0,211,212
 280 0 280 0 265 13 c 0,213,214
 251 25 251 25 249 46 c 1,215,216
 246 26 246 26 233 13 c 0,217,218
 219 0 219 0 198 0 c 0,219,220
 176 0 176 0 161.5 14.5 c 128,-1,221
 147 29 147 29 147 51 c 256,181,182
EndSplineSet
EndChar

StartChar: P
Encoding: 80 80 29
Width: 600
VWidth: 1024
Flags: W
LayerCount: 2
Fore
SplineSet
44 666 m 0,0,1
 44 688 44 688 59 702.5 c 128,-1,2
 74 717 74 717 95 717 c 0,3,4
 117 717 117 717 132 702 c 128,-1,5
 147 687 147 687 147 666 c 1,6,7
 147 688 147 688 161.5 702.5 c 128,-1,8
 176 717 176 717 198 717 c 256,9,10
 220 717 220 717 234 701 c 0,11,12
 247 688 247 688 249 670 c 1,13,14
 250 688 250 688 263 701 c 0,15,16
 278 716 278 716 300 717 c 0,17,18
 322 717 322 717 336 701 c 0,19,20
 349 688 349 688 351 670 c 1,21,22
 352 688 352 688 366 701 c 0,23,24
 381 716 381 716 403 717 c 0,25,26
 425 717 425 717 439.5 702 c 128,-1,27
 454 687 454 687 454 666 c 0,28,29
 454 644 454 644 439 629 c 128,-1,30
 424 614 424 614 403 614 c 0,31,32
 383 614 383 614 368 628 c 0,33,34
 354 640 354 640 351 660 c 1,35,36
 348 640 348 640 335 628 c 0,37,38
 321 615 321 615 300 614 c 0,39,40
 280 614 280 614 265 628 c 0,41,42
 251 640 251 640 249 660 c 1,43,44
 246 640 246 640 233 628 c 0,45,46
 219 615 219 615 198 614 c 0,47,48
 178 614 178 614 163 628 c 0,49,50
 149 640 149 640 147 660 c 1,51,52
 144 641 144 641 131 628.5 c 128,-1,53
 118 616 118 616 101 614 c 1,54,55
 120 611 120 611 133 598 c 0,56,57
 146 584 146 584 147 563 c 0,58,59
 147 543 147 543 133.5 528.5 c 128,-1,60
 120 514 120 514 101 512 c 1,61,62
 120 509 120 509 133 496 c 0,63,64
 146 482 146 482 147 461 c 0,65,66
 147 441 147 441 133.5 426.5 c 128,-1,67
 120 412 120 412 101 410 c 1,68,69
 120 407 120 407 133 393 c 128,-1,70
 146 379 146 379 147 358 c 0,71,72
 147 338 147 338 133.5 323.5 c 128,-1,73
 120 309 120 309 101 307 c 1,74,75
 118 304 118 304 131 292 c 0,76,77
 144 279 144 279 147 260 c 1,78,79
 149 280 149 280 163 293.5 c 128,-1,80
 177 307 177 307 198 307 c 0,81,82
 218 307 218 307 232.5 294 c 128,-1,83
 247 281 247 281 249 260 c 1,84,85
 251 280 251 280 265.5 293.5 c 128,-1,86
 280 307 280 307 300 307 c 0,87,88
 322 307 322 307 336 292 c 0,89,90
 349 279 349 279 351 260 c 1,91,92
 352 278 352 278 366 292 c 0,93,94
 381 307 381 307 403 307 c 256,95,96
 425 307 425 307 439.5 292.5 c 128,-1,97
 454 278 454 278 454 256 c 256,98,99
 454 234 454 234 439 219.5 c 128,-1,100
 424 205 424 205 403 205 c 0,101,102
 383 205 383 205 368 218 c 0,103,104
 354 230 354 230 351 251 c 1,105,106
 348 231 348 231 335 218 c 0,107,108
 321 205 321 205 300 205 c 0,109,110
 280 205 280 205 265 218 c 0,111,112
 251 230 251 230 249 251 c 1,113,114
 246 231 246 231 233 218 c 0,115,116
 219 205 219 205 198 205 c 0,117,118
 178 205 178 205 163 218 c 0,119,120
 149 230 149 230 147 251 c 1,121,122
 144 232 144 232 131 219.5 c 128,-1,123
 118 207 118 207 101 205 c 1,124,125
 120 202 120 202 133 188 c 128,-1,126
 146 174 146 174 147 154 c 0,127,128
 147 134 147 134 133.5 119 c 128,-1,129
 120 104 120 104 101 102 c 1,130,131
 120 99 120 99 133 86 c 0,132,133
 146 72 146 72 147 51 c 0,134,135
 147 29 147 29 132 14.5 c 128,-1,136
 117 0 117 0 95 0 c 256,137,138
 73 0 73 0 58.5 15 c 128,-1,139
 44 30 44 30 44 51 c 0,140,141
 44 71 44 71 58 86 c 0,142,143
 70 99 70 99 90 102 c 1,144,145
 70 104 70 104 58 119 c 0,146,147
 45 133 45 133 44 154 c 0,148,149
 44 174 44 174 58 188 c 0,150,151
 70 201 70 201 90 205 c 1,152,153
 70 207 70 207 58 221 c 0,154,155
 45 235 45 235 44 256 c 0,156,157
 44 276 44 276 58 291 c 0,158,159
 70 304 70 304 90 307 c 1,160,161
 70 309 70 309 58 324 c 0,162,163
 45 338 45 338 44 358 c 0,164,165
 44 378 44 378 58 393 c 0,166,167
 70 406 70 406 90 410 c 1,168,169
 70 412 70 412 58 426 c 0,170,171
 45 440 45 440 44 461 c 0,172,173
 44 481 44 481 58 496 c 0,174,175
 70 509 70 509 90 512 c 1,176,177
 70 514 70 514 58 528 c 0,178,179
 45 542 45 542 44 563 c 0,180,181
 44 583 44 583 58 598 c 0,182,183
 70 611 70 611 90 614 c 1,184,185
 70 616 70 616 58 631 c 0,186,187
 44 646 44 646 44 666 c 0,0,1
454 563 m 0,188,189
 454 585 454 585 468.5 599.5 c 128,-1,190
 483 614 483 614 505 614 c 256,191,192
 527 614 527 614 541.5 599.5 c 128,-1,193
 556 585 556 585 556 563 c 0,194,195
 556 543 556 543 543 528.5 c 128,-1,196
 530 514 530 514 510 512 c 1,197,198
 529 509 529 509 543 496 c 0,199,200
 556 482 556 482 556 461 c 0,201,202
 556 441 556 441 543 426.5 c 128,-1,203
 530 412 530 412 510 410 c 1,204,205
 529 407 529 407 543 393 c 0,206,207
 556 379 556 379 556 358 c 0,208,209
 556 336 556 336 541.5 321.5 c 128,-1,210
 527 307 527 307 505 307 c 256,211,212
 483 307 483 307 468.5 322 c 128,-1,213
 454 337 454 337 454 358 c 0,214,215
 454 378 454 378 467 393 c 0,216,217
 479 406 479 406 500 410 c 1,218,219
 480 412 480 412 467 426 c 128,-1,220
 454 440 454 440 454 461 c 0,221,222
 454 481 454 481 467 496 c 0,223,224
 479 509 479 509 500 512 c 1,225,226
 480 514 480 514 467 528 c 0,227,228
 454 543 454 543 454 563 c 0,188,189
EndSplineSet
EndChar

StartChar: Q
Encoding: 81 81 30
Width: 600
VWidth: 1024
Flags: W
LayerCount: 2
Fore
SplineSet
454 563 m 0,0,1
 454 585 454 585 468.5 599.5 c 128,-1,2
 483 614 483 614 505 614 c 256,3,4
 527 614 527 614 541.5 599.5 c 128,-1,5
 556 585 556 585 556 563 c 0,6,7
 556 543 556 543 543 528.5 c 128,-1,8
 530 514 530 514 510 512 c 1,9,10
 529 509 529 509 543 496 c 0,11,12
 556 482 556 482 556 461 c 0,13,14
 556 441 556 441 543 426.5 c 128,-1,15
 530 412 530 412 510 410 c 1,16,17
 529 407 529 407 543 393 c 0,18,19
 556 379 556 379 556 358 c 0,20,21
 556 338 556 338 543 323.5 c 128,-1,22
 530 309 530 309 510 307 c 1,23,24
 529 304 529 304 543 291 c 0,25,26
 556 277 556 277 556 256 c 0,27,28
 556 236 556 236 543 221.5 c 128,-1,29
 530 207 530 207 510 205 c 1,30,31
 529 202 529 202 543 188 c 0,32,33
 556 174 556 174 556 154 c 256,34,35
 556 134 556 134 543 119 c 128,-1,36
 530 104 530 104 510 102 c 1,37,38
 529 99 529 99 543 86 c 0,39,40
 556 72 556 72 556 51 c 0,41,42
 556 29 556 29 541.5 14.5 c 128,-1,43
 527 0 527 0 505 0 c 0,44,45
 485 0 485 0 470 13 c 0,46,47
 456 25 456 25 454 46 c 1,48,49
 451 26 451 26 437 13 c 128,-1,50
 423 0 423 0 403 0 c 256,51,52
 383 0 383 0 368 13 c 0,53,54
 354 25 354 25 351 46 c 1,55,56
 348 26 348 26 335 13 c 0,57,58
 321 0 321 0 300 0 c 0,59,60
 280 0 280 0 265 13 c 0,61,62
 251 25 251 25 249 46 c 1,63,64
 246 26 246 26 233 13 c 0,65,66
 219 0 219 0 198 0 c 0,67,68
 176 0 176 0 161.5 15 c 128,-1,69
 147 30 147 30 147 51 c 0,70,71
 147 73 147 73 161.5 87.5 c 128,-1,72
 176 102 176 102 198 102 c 0,73,74
 218 102 218 102 233 89 c 0,75,76
 246 76 246 76 249 56 c 1,77,78
 251 75 251 75 265.5 88.5 c 128,-1,79
 280 102 280 102 300 102 c 256,80,81
 320 102 320 102 334.5 89 c 128,-1,82
 349 76 349 76 351 55 c 1,83,84
 353 73 353 73 366 87 c 0,85,86
 378 99 378 99 397 102 c 1,87,88
 377 104 377 104 365 119 c 0,89,90
 352 133 352 133 351 154 c 0,91,92
 351 176 351 176 366 190.5 c 128,-1,93
 381 205 381 205 403 205 c 256,94,95
 425 205 425 205 439.5 190 c 128,-1,96
 454 175 454 175 454 154 c 1,97,98
 454 174 454 174 467 188 c 0,99,100
 479 201 479 201 500 205 c 1,101,102
 480 207 480 207 467 221 c 128,-1,103
 454 235 454 235 454 256 c 0,104,105
 454 276 454 276 467 291 c 0,106,107
 479 304 479 304 500 307 c 1,108,109
 480 309 480 309 467 324 c 0,110,111
 454 338 454 338 454 358 c 256,112,113
 454 378 454 378 467 393 c 0,114,115
 479 406 479 406 500 410 c 1,116,117
 480 412 480 412 467 426 c 128,-1,118
 454 440 454 440 454 461 c 0,119,120
 454 481 454 481 467 496 c 0,121,122
 479 509 479 509 500 512 c 1,123,124
 480 514 480 514 467 528 c 0,125,126
 454 543 454 543 454 563 c 0,0,1
44 256 m 256,127,128
 44 276 44 276 58 291 c 0,129,130
 70 304 70 304 90 307 c 1,131,132
 70 309 70 309 58 324 c 0,133,134
 45 338 45 338 44 358 c 0,135,136
 44 378 44 378 58 393 c 0,137,138
 70 406 70 406 90 410 c 1,139,140
 70 412 70 412 58 426 c 0,141,142
 45 440 45 440 44 461 c 0,143,144
 44 481 44 481 58 496 c 0,145,146
 70 509 70 509 90 512 c 1,147,148
 70 514 70 514 58 528 c 0,149,150
 45 542 45 542 44 563 c 0,151,152
 44 585 44 585 59 599.5 c 128,-1,153
 74 614 74 614 95 614 c 0,154,155
 117 614 117 614 132 599.5 c 128,-1,156
 147 585 147 585 147 563 c 0,157,158
 147 543 147 543 133.5 528.5 c 128,-1,159
 120 514 120 514 101 512 c 1,160,161
 120 509 120 509 133 496 c 0,162,163
 146 482 146 482 147 461 c 0,164,165
 147 441 147 441 133.5 426.5 c 128,-1,166
 120 412 120 412 101 410 c 1,167,168
 120 407 120 407 133 393 c 128,-1,169
 146 379 146 379 147 358 c 0,170,171
 147 338 147 338 133.5 323.5 c 128,-1,172
 120 309 120 309 101 307 c 1,173,174
 120 304 120 304 133 291 c 0,175,176
 146 277 146 277 147 256 c 0,177,178
 147 236 147 236 133.5 221.5 c 128,-1,179
 120 207 120 207 101 205 c 1,180,181
 120 202 120 202 133 188 c 128,-1,182
 146 174 146 174 147 154 c 0,183,184
 147 132 147 132 132 117 c 128,-1,185
 117 102 117 102 95 102 c 256,186,187
 73 102 73 102 58.5 117 c 128,-1,188
 44 132 44 132 44 154 c 0,189,190
 44 174 44 174 58 188 c 0,191,192
 70 201 70 201 90 205 c 1,193,194
 70 207 70 207 58 221 c 0,195,196
 44 236 44 236 44 256 c 256,127,128
147 666 m 256,197,198
 147 688 147 688 161.5 702.5 c 128,-1,199
 176 717 176 717 198 717 c 256,200,201
 220 717 220 717 234 701 c 0,202,203
 247 688 247 688 249 670 c 1,204,205
 250 688 250 688 263 701 c 0,206,207
 278 716 278 716 300 717 c 0,208,209
 320 717 320 717 334.5 703.5 c 128,-1,210
 349 690 349 690 351 670 c 1,211,212
 353 690 353 690 367.5 703.5 c 128,-1,213
 382 717 382 717 403 717 c 0,214,215
 425 717 425 717 439.5 702 c 128,-1,216
 454 687 454 687 454 666 c 0,217,218
 454 644 454 644 439 629 c 128,-1,219
 424 614 424 614 403 614 c 0,220,221
 383 614 383 614 368 628 c 0,222,223
 354 640 354 640 351 660 c 1,224,225
 348 640 348 640 335 628 c 0,226,227
 321 615 321 615 300 614 c 0,228,229
 280 614 280 614 265 628 c 0,230,231
 251 640 251 640 249 660 c 1,232,233
 246 640 246 640 233 628 c 0,234,235
 219 615 219 615 198 614 c 0,236,237
 176 614 176 614 161.5 629 c 128,-1,238
 147 644 147 644 147 666 c 256,197,198
249 256 m 256,239,240
 249 278 249 278 264 292.5 c 128,-1,241
 279 307 279 307 300 307 c 0,242,243
 322 307 322 307 336.5 292.5 c 128,-1,244
 351 278 351 278 351 256 c 256,245,246
 351 234 351 234 336.5 219.5 c 128,-1,247
 322 205 322 205 300 205 c 256,248,249
 278 205 278 205 263.5 219.5 c 128,-1,250
 249 234 249 234 249 256 c 256,239,240
454 51 m 1,251,252
 454 71 454 71 467 86 c 0,253,254
 479 99 479 99 500 102 c 1,255,256
 481 104 481 104 468.5 116.5 c 128,-1,257
 456 129 456 129 454 148 c 1,258,259
 451 129 451 129 438 116.5 c 128,-1,260
 425 104 425 104 408 102 c 1,261,262
 427 99 427 99 440 86 c 0,263,264
 454 71 454 71 454 51 c 1,251,252
EndSplineSet
EndChar

StartChar: R
Encoding: 82 82 31
Width: 600
VWidth: 1024
Flags: W
LayerCount: 2
Fore
SplineSet
44 666 m 0,0,1
 44 688 44 688 59 702.5 c 128,-1,2
 74 717 74 717 95 717 c 0,3,4
 117 717 117 717 132 702 c 128,-1,5
 147 687 147 687 147 666 c 1,6,7
 147 688 147 688 161.5 702.5 c 128,-1,8
 176 717 176 717 198 717 c 256,9,10
 220 717 220 717 234 701 c 0,11,12
 247 688 247 688 249 670 c 1,13,14
 250 688 250 688 263 701 c 0,15,16
 278 716 278 716 300 717 c 0,17,18
 320 717 320 717 335 703 c 0,19,20
 348 690 348 690 351 671 c 1,21,22
 353 690 353 690 367.5 703.5 c 128,-1,23
 382 717 382 717 403 717 c 0,24,25
 425 717 425 717 439.5 702 c 128,-1,26
 454 687 454 687 454 666 c 0,27,28
 454 644 454 644 439 629 c 128,-1,29
 424 614 424 614 403 614 c 0,30,31
 383 614 383 614 368 628 c 0,32,33
 354 640 354 640 351 660 c 1,34,35
 348 640 348 640 335 628 c 0,36,37
 321 615 321 615 300 614 c 0,38,39
 280 614 280 614 265 628 c 0,40,41
 251 640 251 640 249 660 c 1,42,43
 246 640 246 640 233 628 c 0,44,45
 219 615 219 615 198 614 c 0,46,47
 178 614 178 614 163 628 c 0,48,49
 149 640 149 640 147 660 c 1,50,51
 144 641 144 641 131 628.5 c 128,-1,52
 118 616 118 616 101 614 c 1,53,54
 120 611 120 611 133 598 c 0,55,56
 146 584 146 584 147 563 c 0,57,58
 147 543 147 543 133.5 528.5 c 128,-1,59
 120 514 120 514 101 512 c 1,60,61
 120 509 120 509 133 496 c 0,62,63
 146 482 146 482 147 461 c 0,64,65
 147 441 147 441 133.5 426.5 c 128,-1,66
 120 412 120 412 101 410 c 1,67,68
 118 407 118 407 131 394 c 128,-1,69
 144 381 144 381 147 364 c 1,70,71
 149 383 149 383 163 396.5 c 128,-1,72
 177 410 177 410 198 410 c 0,73,74
 220 410 220 410 234 394 c 0,75,76
 247 381 247 381 249 362 c 1,77,78
 250 380 250 380 263 394 c 0,79,80
 278 409 278 409 300 410 c 0,81,82
 322 410 322 410 336.5 395 c 128,-1,83
 351 380 351 380 351 358 c 1,84,85
 351 380 351 380 366 395 c 128,-1,86
 381 410 381 410 403 410 c 256,87,88
 425 410 425 410 439.5 395 c 128,-1,89
 454 380 454 380 454 358 c 256,90,91
 454 336 454 336 439 321.5 c 128,-1,92
 424 307 424 307 403 307 c 0,93,94
 383 307 383 307 368 321 c 0,95,96
 354 333 354 333 351 353 c 1,97,98
 348 334 348 334 335.5 321.5 c 128,-1,99
 323 309 323 309 305 307 c 1,100,101
 324 304 324 304 338 291 c 0,102,103
 351 277 351 277 351 256 c 0,104,105
 351 234 351 234 336.5 219.5 c 128,-1,106
 322 205 322 205 300 205 c 256,107,108
 278 205 278 205 263.5 219.5 c 128,-1,109
 249 234 249 234 249 256 c 0,110,111
 249 276 249 276 262 291 c 0,112,113
 274 304 274 304 295 307 c 1,114,115
 276 309 276 309 263.5 321.5 c 128,-1,116
 251 334 251 334 249 353 c 1,117,118
 246 333 246 333 233 321 c 0,119,120
 219 308 219 308 198 307 c 0,121,122
 178 307 178 307 163 321 c 0,123,124
 149 333 149 333 147 353 c 1,125,126
 144 334 144 334 131 321.5 c 128,-1,127
 118 309 118 309 101 307 c 1,128,129
 120 304 120 304 133 291 c 0,130,131
 146 277 146 277 147 256 c 0,132,133
 147 236 147 236 133.5 221.5 c 128,-1,134
 120 207 120 207 101 205 c 1,135,136
 120 202 120 202 133 188 c 128,-1,137
 146 174 146 174 147 154 c 0,138,139
 147 134 147 134 133.5 119 c 128,-1,140
 120 104 120 104 101 102 c 1,141,142
 120 99 120 99 133 86 c 0,143,144
 146 72 146 72 147 51 c 0,145,146
 147 29 147 29 132 14.5 c 128,-1,147
 117 0 117 0 95 0 c 256,148,149
 73 0 73 0 58.5 15 c 128,-1,150
 44 30 44 30 44 51 c 0,151,152
 44 71 44 71 58 86 c 0,153,154
 70 99 70 99 90 102 c 1,155,156
 70 104 70 104 58 119 c 0,157,158
 45 133 45 133 44 154 c 0,159,160
 44 174 44 174 58 188 c 0,161,162
 70 201 70 201 90 205 c 1,163,164
 70 207 70 207 58 221 c 0,165,166
 45 235 45 235 44 256 c 0,167,168
 44 276 44 276 58 291 c 0,169,170
 70 304 70 304 90 307 c 1,171,172
 70 309 70 309 58 324 c 0,173,174
 45 338 45 338 44 358 c 0,175,176
 44 378 44 378 58 393 c 0,177,178
 70 406 70 406 90 410 c 1,179,180
 70 412 70 412 58 426 c 0,181,182
 45 440 45 440 44 461 c 0,183,184
 44 481 44 481 58 496 c 0,185,186
 70 509 70 509 90 512 c 1,187,188
 70 514 70 514 58 528 c 0,189,190
 45 542 45 542 44 563 c 0,191,192
 44 583 44 583 58 598 c 0,193,194
 70 611 70 611 90 614 c 1,195,196
 70 616 70 616 58 631 c 0,197,198
 44 646 44 646 44 666 c 0,0,1
454 563 m 0,199,200
 454 585 454 585 468.5 599.5 c 128,-1,201
 483 614 483 614 505 614 c 256,202,203
 527 614 527 614 541.5 599.5 c 128,-1,204
 556 585 556 585 556 563 c 0,205,206
 556 543 556 543 543 528.5 c 128,-1,207
 530 514 530 514 510 512 c 1,208,209
 529 509 529 509 543 496 c 0,210,211
 556 482 556 482 556 461 c 0,212,213
 556 439 556 439 541.5 424.5 c 128,-1,214
 527 410 527 410 505 410 c 256,215,216
 483 410 483 410 468.5 424.5 c 128,-1,217
 454 439 454 439 454 461 c 0,218,219
 454 481 454 481 467 496 c 0,220,221
 479 509 479 509 500 512 c 1,222,223
 480 514 480 514 467 528 c 0,224,225
 454 543 454 543 454 563 c 0,199,200
454 51 m 256,226,227
 454 73 454 73 468.5 87.5 c 128,-1,228
 483 102 483 102 505 102 c 256,229,230
 527 102 527 102 541.5 87.5 c 128,-1,231
 556 73 556 73 556 51 c 256,232,233
 556 29 556 29 541.5 14.5 c 128,-1,234
 527 0 527 0 505 0 c 256,235,236
 483 0 483 0 468.5 14.5 c 128,-1,237
 454 29 454 29 454 51 c 256,226,227
351 154 m 256,238,239
 351 176 351 176 366 190.5 c 128,-1,240
 381 205 381 205 403 205 c 256,241,242
 425 205 425 205 439.5 190 c 128,-1,243
 454 175 454 175 454 154 c 0,244,245
 454 132 454 132 439 117 c 128,-1,246
 424 102 424 102 403 102 c 0,247,248
 381 102 381 102 366 117 c 128,-1,249
 351 132 351 132 351 154 c 256,238,239
EndSplineSet
EndChar

StartChar: S
Encoding: 83 83 32
Width: 600
VWidth: 1024
Flags: W
LayerCount: 2
Fore
SplineSet
147 666 m 256,0,1
 147 688 147 688 161.5 702.5 c 128,-1,2
 176 717 176 717 198 717 c 256,3,4
 220 717 220 717 234.5 702 c 128,-1,5
 249 687 249 687 249 666 c 1,6,7
 249 688 249 688 264 702.5 c 128,-1,8
 279 717 279 717 300 717 c 0,9,10
 322 717 322 717 336 701 c 0,11,12
 349 688 349 688 351 670 c 1,13,14
 352 688 352 688 366 701 c 0,15,16
 381 716 381 716 403 717 c 0,17,18
 425 717 425 717 439.5 702 c 128,-1,19
 454 687 454 687 454 666 c 0,20,21
 454 644 454 644 439 629 c 128,-1,22
 424 614 424 614 403 614 c 0,23,24
 383 614 383 614 368 628 c 0,25,26
 354 640 354 640 351 660 c 1,27,28
 348 640 348 640 335 628 c 0,29,30
 321 615 321 615 300 614 c 0,31,32
 280 614 280 614 265 628 c 0,33,34
 251 640 251 640 249 660 c 1,35,36
 246 640 246 640 233 628 c 0,37,38
 219 615 219 615 198 614 c 0,39,40
 176 614 176 614 161.5 629 c 128,-1,41
 147 644 147 644 147 666 c 256,0,1
147 358 m 256,42,43
 147 380 147 380 161.5 395 c 128,-1,44
 176 410 176 410 198 410 c 256,45,46
 220 410 220 410 234 394 c 0,47,48
 247 381 247 381 249 362 c 1,49,50
 250 380 250 380 263 394 c 0,51,52
 278 409 278 409 300 410 c 0,53,54
 322 410 322 410 336 394 c 0,55,56
 349 381 349 381 351 362 c 1,57,58
 352 380 352 380 366 394 c 0,59,60
 381 409 381 409 403 410 c 0,61,62
 425 410 425 410 439.5 395 c 128,-1,63
 454 380 454 380 454 358 c 256,64,65
 454 336 454 336 439 321.5 c 128,-1,66
 424 307 424 307 403 307 c 0,67,68
 383 307 383 307 368 321 c 0,69,70
 354 333 354 333 351 353 c 1,71,72
 348 333 348 333 335 321 c 0,73,74
 321 308 321 308 300 307 c 0,75,76
 280 307 280 307 265 321 c 0,77,78
 251 333 251 333 249 353 c 1,79,80
 246 333 246 333 233 321 c 0,81,82
 219 308 219 308 198 307 c 0,83,84
 176 307 176 307 161.5 321.5 c 128,-1,85
 147 336 147 336 147 358 c 256,42,43
147 51 m 256,86,87
 147 73 147 73 161.5 87.5 c 128,-1,88
 176 102 176 102 198 102 c 256,89,90
 220 102 220 102 234 87 c 0,91,92
 247 74 247 74 249 55 c 1,93,94
 250 73 250 73 263 87 c 0,95,96
 278 102 278 102 300 102 c 256,97,98
 322 102 322 102 336.5 87.5 c 128,-1,99
 351 73 351 73 351 51 c 1,100,101
 351 73 351 73 366 87.5 c 128,-1,102
 381 102 381 102 403 102 c 256,103,104
 425 102 425 102 439.5 87.5 c 128,-1,105
 454 73 454 73 454 51 c 256,106,107
 454 29 454 29 439 14.5 c 128,-1,108
 424 0 424 0 403 0 c 0,109,110
 383 0 383 0 368 13 c 0,111,112
 354 25 354 25 351 46 c 1,113,114
 348 26 348 26 335 13 c 0,115,116
 321 0 321 0 300 0 c 0,117,118
 280 0 280 0 265 13 c 0,119,120
 251 25 251 25 249 46 c 1,121,122
 246 26 246 26 233 13 c 0,123,124
 219 0 219 0 198 0 c 0,125,126
 176 0 176 0 161.5 14.5 c 128,-1,127
 147 29 147 29 147 51 c 256,86,87
454 154 m 0,128,129
 454 174 454 174 467 188 c 0,130,131
 479 201 479 201 500 205 c 1,132,133
 480 207 480 207 467 221 c 128,-1,134
 454 235 454 235 454 256 c 0,135,136
 454 278 454 278 468.5 292.5 c 128,-1,137
 483 307 483 307 505 307 c 256,138,139
 527 307 527 307 541.5 292.5 c 128,-1,140
 556 278 556 278 556 256 c 0,141,142
 556 236 556 236 543 221.5 c 128,-1,143
 530 207 530 207 510 205 c 1,144,145
 529 202 529 202 543 188 c 0,146,147
 556 174 556 174 556 154 c 0,148,149
 556 132 556 132 541.5 117 c 128,-1,150
 527 102 527 102 505 102 c 256,151,152
 483 102 483 102 468.5 117 c 128,-1,153
 454 132 454 132 454 154 c 0,128,129
44 563 m 0,154,155
 44 585 44 585 59 599.5 c 128,-1,156
 74 614 74 614 95 614 c 0,157,158
 117 614 117 614 132 599.5 c 128,-1,159
 147 585 147 585 147 563 c 0,160,161
 147 543 147 543 133.5 528.5 c 128,-1,162
 120 514 120 514 101 512 c 1,163,164
 120 509 120 509 133 496 c 0,165,166
 146 482 146 482 147 461 c 0,167,168
 147 439 147 439 132 424.5 c 128,-1,169
 117 410 117 410 95 410 c 256,170,171
 73 410 73 410 58.5 424.5 c 128,-1,172
 44 439 44 439 44 461 c 0,173,174
 44 481 44 481 58 496 c 0,175,176
 70 509 70 509 90 512 c 1,177,178
 70 514 70 514 58 528 c 0,179,180
 44 543 44 543 44 563 c 0,154,155
454 563 m 256,181,182
 454 585 454 585 468.5 599.5 c 128,-1,183
 483 614 483 614 505 614 c 256,184,185
 527 614 527 614 541.5 599.5 c 128,-1,186
 556 585 556 585 556 563 c 256,187,188
 556 541 556 541 541.5 526.5 c 128,-1,189
 527 512 527 512 505 512 c 256,190,191
 483 512 483 512 468.5 526.5 c 128,-1,192
 454 541 454 541 454 563 c 256,181,182
44 154 m 256,193,194
 44 176 44 176 59 190.5 c 128,-1,195
 74 205 74 205 95 205 c 0,196,197
 117 205 117 205 132 190 c 128,-1,198
 147 175 147 175 147 154 c 0,199,200
 147 132 147 132 132 117 c 128,-1,201
 117 102 117 102 95 102 c 256,202,203
 73 102 73 102 58.5 117 c 128,-1,204
 44 132 44 132 44 154 c 256,193,194
EndSplineSet
EndChar

StartChar: T
Encoding: 84 84 33
Width: 600
VWidth: 1024
Flags: W
LayerCount: 2
Fore
SplineSet
249 563 m 256,0,1
 249 583 249 583 262 598 c 0,2,3
 274 611 274 611 295 614 c 1,4,5
 276 616 276 616 263.5 628.5 c 128,-1,6
 251 641 251 641 249 660 c 1,7,8
 246 640 246 640 233 628 c 0,9,10
 219 615 219 615 198 614 c 0,11,12
 178 614 178 614 163 628 c 0,13,14
 149 640 149 640 147 660 c 1,15,16
 144 640 144 640 130 628 c 0,17,18
 116 615 116 615 95 614 c 0,19,20
 73 614 73 614 58.5 629 c 128,-1,21
 44 644 44 644 44 666 c 256,22,23
 44 688 44 688 59 702.5 c 128,-1,24
 74 717 74 717 95 717 c 0,25,26
 115 717 115 717 130 703.5 c 128,-1,27
 145 690 145 690 147 670 c 1,28,29
 149 690 149 690 163 703.5 c 128,-1,30
 177 717 177 717 198 717 c 0,31,32
 220 717 220 717 234.5 702 c 128,-1,33
 249 687 249 687 249 666 c 1,34,35
 249 688 249 688 264 702.5 c 128,-1,36
 279 717 279 717 300 717 c 0,37,38
 322 717 322 717 336 701 c 0,39,40
 349 688 349 688 351 670 c 1,41,42
 352 688 352 688 366 701 c 0,43,44
 381 716 381 716 403 717 c 0,45,46
 423 717 423 717 437.5 703.5 c 128,-1,47
 452 690 452 690 454 670 c 1,48,49
 456 690 456 690 470.5 703.5 c 128,-1,50
 485 717 485 717 505 717 c 0,51,52
 527 717 527 717 541.5 702 c 128,-1,53
 556 687 556 687 556 666 c 0,54,55
 556 644 556 644 541.5 629 c 128,-1,56
 527 614 527 614 505 614 c 0,57,58
 485 614 485 614 470 628 c 0,59,60
 456 640 456 640 454 660 c 1,61,62
 451 640 451 640 437 628 c 0,63,64
 423 615 423 615 403 614 c 0,65,66
 383 614 383 614 368 628 c 0,67,68
 354 640 354 640 351 660 c 1,69,70
 348 641 348 641 335.5 628.5 c 128,-1,71
 323 616 323 616 305 614 c 1,72,73
 324 611 324 611 338 598 c 0,74,75
 351 584 351 584 351 563 c 0,76,77
 351 543 351 543 338 528.5 c 128,-1,78
 325 514 325 514 305 512 c 1,79,80
 324 509 324 509 338 496 c 0,81,82
 351 482 351 482 351 461 c 0,83,84
 351 441 351 441 338 426.5 c 128,-1,85
 325 412 325 412 305 410 c 1,86,87
 324 407 324 407 338 393 c 0,88,89
 351 379 351 379 351 358 c 0,90,91
 351 338 351 338 338 323.5 c 128,-1,92
 325 309 325 309 305 307 c 1,93,94
 324 304 324 304 338 291 c 0,95,96
 351 277 351 277 351 256 c 0,97,98
 351 236 351 236 338 221.5 c 128,-1,99
 325 207 325 207 305 205 c 1,100,101
 324 202 324 202 338 188 c 0,102,103
 351 174 351 174 351 154 c 256,104,105
 351 134 351 134 338 119 c 128,-1,106
 325 104 325 104 305 102 c 1,107,108
 324 99 324 99 338 86 c 0,109,110
 351 72 351 72 351 51 c 0,111,112
 351 29 351 29 336.5 14.5 c 128,-1,113
 322 0 322 0 300 0 c 256,114,115
 278 0 278 0 263.5 15 c 128,-1,116
 249 30 249 30 249 51 c 0,117,118
 249 71 249 71 262 86 c 0,119,120
 274 99 274 99 295 102 c 1,121,122
 275 104 275 104 262 119 c 0,123,124
 249 133 249 133 249 154 c 0,125,126
 249 174 249 174 262 188 c 0,127,128
 274 201 274 201 295 205 c 1,129,130
 275 207 275 207 262 221 c 128,-1,131
 249 235 249 235 249 256 c 0,132,133
 249 276 249 276 262 291 c 0,134,135
 274 304 274 304 295 307 c 1,136,137
 275 309 275 309 262 324 c 0,138,139
 249 338 249 338 249 358 c 256,140,141
 249 378 249 378 262 393 c 0,142,143
 274 406 274 406 295 410 c 1,144,145
 275 412 275 412 262 426 c 128,-1,146
 249 440 249 440 249 461 c 0,147,148
 249 481 249 481 262 496 c 0,149,150
 274 509 274 509 295 512 c 1,151,152
 275 514 275 514 262 528 c 0,153,154
 249 543 249 543 249 563 c 256,0,1
EndSplineSet
EndChar

StartChar: U
Encoding: 85 85 34
Width: 600
VWidth: 1024
Flags: W
LayerCount: 2
Fore
SplineSet
44 563 m 256,0,1
 44 583 44 583 58 598 c 0,2,3
 70 611 70 611 90 614 c 1,4,5
 70 616 70 616 58 631 c 0,6,7
 45 645 45 645 44 666 c 0,8,9
 44 688 44 688 59 702.5 c 128,-1,10
 74 717 74 717 95 717 c 0,11,12
 117 717 117 717 132 702 c 128,-1,13
 147 687 147 687 147 666 c 0,14,15
 147 646 147 646 133.5 631 c 128,-1,16
 120 616 120 616 101 614 c 1,17,18
 120 611 120 611 133 598 c 0,19,20
 146 584 146 584 147 563 c 0,21,22
 147 543 147 543 133.5 528.5 c 128,-1,23
 120 514 120 514 101 512 c 1,24,25
 120 509 120 509 133 496 c 0,26,27
 146 482 146 482 147 461 c 0,28,29
 147 441 147 441 133.5 426.5 c 128,-1,30
 120 412 120 412 101 410 c 1,31,32
 120 407 120 407 133 393 c 128,-1,33
 146 379 146 379 147 358 c 0,34,35
 147 338 147 338 133.5 323.5 c 128,-1,36
 120 309 120 309 101 307 c 1,37,38
 120 304 120 304 133 291 c 0,39,40
 146 277 146 277 147 256 c 0,41,42
 147 236 147 236 133.5 221.5 c 128,-1,43
 120 207 120 207 101 205 c 1,44,45
 120 202 120 202 133 188 c 128,-1,46
 146 174 146 174 147 154 c 0,47,48
 147 132 147 132 132 117 c 128,-1,49
 117 102 117 102 95 102 c 256,50,51
 73 102 73 102 58.5 117 c 128,-1,52
 44 132 44 132 44 154 c 0,53,54
 44 174 44 174 58 188 c 0,55,56
 70 201 70 201 90 205 c 1,57,58
 70 207 70 207 58 221 c 0,59,60
 45 235 45 235 44 256 c 0,61,62
 44 276 44 276 58 291 c 0,63,64
 70 304 70 304 90 307 c 1,65,66
 70 309 70 309 58 324 c 0,67,68
 45 338 45 338 44 358 c 0,69,70
 44 378 44 378 58 393 c 0,71,72
 70 406 70 406 90 410 c 1,73,74
 70 412 70 412 58 426 c 0,75,76
 45 440 45 440 44 461 c 0,77,78
 44 481 44 481 58 496 c 0,79,80
 70 509 70 509 90 512 c 1,81,82
 70 514 70 514 58 528 c 0,83,84
 44 543 44 543 44 563 c 256,0,1
454 563 m 256,85,86
 454 583 454 583 467 598 c 0,87,88
 479 611 479 611 500 614 c 1,89,90
 480 616 480 616 467 631 c 0,91,92
 454 645 454 645 454 666 c 0,93,94
 454 688 454 688 468.5 702.5 c 128,-1,95
 483 717 483 717 505 717 c 256,96,97
 527 717 527 717 541.5 702 c 128,-1,98
 556 687 556 687 556 666 c 0,99,100
 556 646 556 646 543 631 c 128,-1,101
 530 616 530 616 510 614 c 1,102,103
 529 611 529 611 543 598 c 0,104,105
 556 584 556 584 556 563 c 0,106,107
 556 543 556 543 543 528.5 c 128,-1,108
 530 514 530 514 510 512 c 1,109,110
 529 509 529 509 543 496 c 0,111,112
 556 482 556 482 556 461 c 0,113,114
 556 441 556 441 543 426.5 c 128,-1,115
 530 412 530 412 510 410 c 1,116,117
 529 407 529 407 543 393 c 0,118,119
 556 379 556 379 556 358 c 0,120,121
 556 338 556 338 543 323.5 c 128,-1,122
 530 309 530 309 510 307 c 1,123,124
 529 304 529 304 543 291 c 0,125,126
 556 277 556 277 556 256 c 0,127,128
 556 236 556 236 543 221.5 c 128,-1,129
 530 207 530 207 510 205 c 1,130,131
 529 202 529 202 543 188 c 0,132,133
 556 174 556 174 556 154 c 0,134,135
 556 132 556 132 541.5 117 c 128,-1,136
 527 102 527 102 505 102 c 256,137,138
 483 102 483 102 468.5 117 c 128,-1,139
 454 132 454 132 454 154 c 0,140,141
 454 174 454 174 467 188 c 0,142,143
 479 201 479 201 500 205 c 1,144,145
 480 207 480 207 467 221 c 128,-1,146
 454 235 454 235 454 256 c 0,147,148
 454 276 454 276 467 291 c 0,149,150
 479 304 479 304 500 307 c 1,151,152
 480 309 480 309 467 324 c 0,153,154
 454 338 454 338 454 358 c 256,155,156
 454 378 454 378 467 393 c 0,157,158
 479 406 479 406 500 410 c 1,159,160
 480 412 480 412 467 426 c 128,-1,161
 454 440 454 440 454 461 c 0,162,163
 454 481 454 481 467 496 c 0,164,165
 479 509 479 509 500 512 c 1,166,167
 480 514 480 514 467 528 c 0,168,169
 454 543 454 543 454 563 c 256,85,86
147 51 m 256,170,171
 147 73 147 73 161.5 87.5 c 128,-1,172
 176 102 176 102 198 102 c 256,173,174
 220 102 220 102 234 87 c 0,175,176
 247 74 247 74 249 55 c 1,177,178
 250 73 250 73 263 87 c 0,179,180
 278 102 278 102 300 102 c 256,181,182
 322 102 322 102 336.5 87.5 c 128,-1,183
 351 73 351 73 351 51 c 1,184,185
 351 73 351 73 366 87.5 c 128,-1,186
 381 102 381 102 403 102 c 256,187,188
 425 102 425 102 439.5 87.5 c 128,-1,189
 454 73 454 73 454 51 c 256,190,191
 454 29 454 29 439 14.5 c 128,-1,192
 424 0 424 0 403 0 c 0,193,194
 383 0 383 0 368 13 c 0,195,196
 354 25 354 25 351 46 c 1,197,198
 348 26 348 26 335 13 c 0,199,200
 321 0 321 0 300 0 c 0,201,202
 280 0 280 0 265 13 c 0,203,204
 251 25 251 25 249 46 c 1,205,206
 246 26 246 26 233 13 c 0,207,208
 219 0 219 0 198 0 c 0,209,210
 176 0 176 0 161.5 14.5 c 128,-1,211
 147 29 147 29 147 51 c 256,170,171
EndSplineSet
EndChar

StartChar: V
Encoding: 86 86 35
Width: 600
VWidth: 1024
Flags: W
LayerCount: 2
Fore
SplineSet
44 563 m 256,0,1
 44 583 44 583 58 598 c 0,2,3
 70 611 70 611 90 614 c 1,4,5
 70 616 70 616 58 631 c 0,6,7
 45 645 45 645 44 666 c 0,8,9
 44 688 44 688 59 702.5 c 128,-1,10
 74 717 74 717 95 717 c 0,11,12
 117 717 117 717 132 702 c 128,-1,13
 147 687 147 687 147 666 c 0,14,15
 147 646 147 646 133.5 631 c 128,-1,16
 120 616 120 616 101 614 c 1,17,18
 120 611 120 611 133 598 c 0,19,20
 146 584 146 584 147 563 c 0,21,22
 147 543 147 543 133.5 528.5 c 128,-1,23
 120 514 120 514 101 512 c 1,24,25
 120 509 120 509 133 496 c 0,26,27
 146 482 146 482 147 461 c 0,28,29
 147 441 147 441 133.5 426.5 c 128,-1,30
 120 412 120 412 101 410 c 1,31,32
 120 407 120 407 133 393 c 128,-1,33
 146 379 146 379 147 358 c 0,34,35
 147 338 147 338 133.5 323.5 c 128,-1,36
 120 309 120 309 101 307 c 1,37,38
 120 304 120 304 133 291 c 0,39,40
 146 277 146 277 147 256 c 0,41,42
 147 234 147 234 132 219.5 c 128,-1,43
 117 205 117 205 95 205 c 256,44,45
 73 205 73 205 58.5 219.5 c 128,-1,46
 44 234 44 234 44 256 c 0,47,48
 44 276 44 276 58 291 c 0,49,50
 70 304 70 304 90 307 c 1,51,52
 70 309 70 309 58 324 c 0,53,54
 45 338 45 338 44 358 c 0,55,56
 44 378 44 378 58 393 c 0,57,58
 70 406 70 406 90 410 c 1,59,60
 70 412 70 412 58 426 c 0,61,62
 45 440 45 440 44 461 c 0,63,64
 44 481 44 481 58 496 c 0,65,66
 70 509 70 509 90 512 c 1,67,68
 70 514 70 514 58 528 c 0,69,70
 44 543 44 543 44 563 c 256,0,1
454 563 m 256,71,72
 454 583 454 583 467 598 c 0,73,74
 479 611 479 611 500 614 c 1,75,76
 480 616 480 616 467 631 c 0,77,78
 454 645 454 645 454 666 c 0,79,80
 454 688 454 688 468.5 702.5 c 128,-1,81
 483 717 483 717 505 717 c 256,82,83
 527 717 527 717 541.5 702 c 128,-1,84
 556 687 556 687 556 666 c 0,85,86
 556 646 556 646 543 631 c 128,-1,87
 530 616 530 616 510 614 c 1,88,89
 529 611 529 611 543 598 c 0,90,91
 556 584 556 584 556 563 c 0,92,93
 556 543 556 543 543 528.5 c 128,-1,94
 530 514 530 514 510 512 c 1,95,96
 529 509 529 509 543 496 c 0,97,98
 556 482 556 482 556 461 c 0,99,100
 556 441 556 441 543 426.5 c 128,-1,101
 530 412 530 412 510 410 c 1,102,103
 529 407 529 407 543 393 c 0,104,105
 556 379 556 379 556 358 c 0,106,107
 556 338 556 338 543 323.5 c 128,-1,108
 530 309 530 309 510 307 c 1,109,110
 529 304 529 304 543 291 c 0,111,112
 556 277 556 277 556 256 c 0,113,114
 556 234 556 234 541.5 219.5 c 128,-1,115
 527 205 527 205 505 205 c 256,116,117
 483 205 483 205 468.5 219.5 c 128,-1,118
 454 234 454 234 454 256 c 0,119,120
 454 276 454 276 467 291 c 0,121,122
 479 304 479 304 500 307 c 1,123,124
 480 309 480 309 467 324 c 0,125,126
 454 338 454 338 454 358 c 256,127,128
 454 378 454 378 467 393 c 0,129,130
 479 406 479 406 500 410 c 1,131,132
 480 412 480 412 467 426 c 128,-1,133
 454 440 454 440 454 461 c 0,134,135
 454 481 454 481 467 496 c 0,136,137
 479 509 479 509 500 512 c 1,138,139
 480 514 480 514 467 528 c 0,140,141
 454 543 454 543 454 563 c 256,71,72
351 154 m 256,142,143
 351 176 351 176 366 190.5 c 128,-1,144
 381 205 381 205 403 205 c 256,145,146
 425 205 425 205 439.5 190 c 128,-1,147
 454 175 454 175 454 154 c 0,148,149
 454 132 454 132 439 117 c 128,-1,150
 424 102 424 102 403 102 c 0,151,152
 381 102 381 102 366 117 c 128,-1,153
 351 132 351 132 351 154 c 256,142,143
249 51 m 256,154,155
 249 73 249 73 264 87.5 c 128,-1,156
 279 102 279 102 300 102 c 0,157,158
 322 102 322 102 336.5 87.5 c 128,-1,159
 351 73 351 73 351 51 c 256,160,161
 351 29 351 29 336.5 14.5 c 128,-1,162
 322 0 322 0 300 0 c 256,163,164
 278 0 278 0 263.5 14.5 c 128,-1,165
 249 29 249 29 249 51 c 256,154,155
147 154 m 256,166,167
 147 176 147 176 161.5 190.5 c 128,-1,168
 176 205 176 205 198 205 c 256,169,170
 220 205 220 205 234.5 190 c 128,-1,171
 249 175 249 175 249 154 c 0,172,173
 249 132 249 132 234 117 c 128,-1,174
 219 102 219 102 198 102 c 0,175,176
 176 102 176 102 161.5 117 c 128,-1,177
 147 132 147 132 147 154 c 256,166,167
EndSplineSet
EndChar

StartChar: W
Encoding: 87 87 36
Width: 600
VWidth: 1024
Flags: W
LayerCount: 2
Fore
SplineSet
44 563 m 256,0,1
 44 583 44 583 58 598 c 0,2,3
 70 611 70 611 90 614 c 1,4,5
 70 616 70 616 58 631 c 0,6,7
 45 645 45 645 44 666 c 0,8,9
 44 688 44 688 59 702.5 c 128,-1,10
 74 717 74 717 95 717 c 0,11,12
 117 717 117 717 132 702 c 128,-1,13
 147 687 147 687 147 666 c 0,14,15
 147 646 147 646 133.5 631 c 128,-1,16
 120 616 120 616 101 614 c 1,17,18
 120 611 120 611 133 598 c 0,19,20
 146 584 146 584 147 563 c 0,21,22
 147 543 147 543 133.5 528.5 c 128,-1,23
 120 514 120 514 101 512 c 1,24,25
 120 509 120 509 133 496 c 0,26,27
 146 482 146 482 147 461 c 0,28,29
 147 441 147 441 133.5 426.5 c 128,-1,30
 120 412 120 412 101 410 c 1,31,32
 120 407 120 407 133 393 c 128,-1,33
 146 379 146 379 147 358 c 0,34,35
 147 338 147 338 133.5 323.5 c 128,-1,36
 120 309 120 309 101 307 c 1,37,38
 120 304 120 304 133 291 c 0,39,40
 146 277 146 277 147 256 c 0,41,42
 147 236 147 236 133.5 221.5 c 128,-1,43
 120 207 120 207 101 205 c 1,44,45
 120 202 120 202 133 188 c 128,-1,46
 146 174 146 174 147 154 c 0,47,48
 147 132 147 132 132 117 c 128,-1,49
 117 102 117 102 95 102 c 256,50,51
 73 102 73 102 58.5 117 c 128,-1,52
 44 132 44 132 44 154 c 0,53,54
 44 174 44 174 58 188 c 0,55,56
 70 201 70 201 90 205 c 1,57,58
 70 207 70 207 58 221 c 0,59,60
 45 235 45 235 44 256 c 0,61,62
 44 276 44 276 58 291 c 0,63,64
 70 304 70 304 90 307 c 1,65,66
 70 309 70 309 58 324 c 0,67,68
 45 338 45 338 44 358 c 0,69,70
 44 378 44 378 58 393 c 0,71,72
 70 406 70 406 90 410 c 1,73,74
 70 412 70 412 58 426 c 0,75,76
 45 440 45 440 44 461 c 0,77,78
 44 481 44 481 58 496 c 0,79,80
 70 509 70 509 90 512 c 1,81,82
 70 514 70 514 58 528 c 0,83,84
 44 543 44 543 44 563 c 256,0,1
454 563 m 256,85,86
 454 583 454 583 467 598 c 0,87,88
 479 611 479 611 500 614 c 1,89,90
 480 616 480 616 467 631 c 0,91,92
 454 645 454 645 454 666 c 0,93,94
 454 688 454 688 468.5 702.5 c 128,-1,95
 483 717 483 717 505 717 c 256,96,97
 527 717 527 717 541.5 702 c 128,-1,98
 556 687 556 687 556 666 c 0,99,100
 556 646 556 646 543 631 c 128,-1,101
 530 616 530 616 510 614 c 1,102,103
 529 611 529 611 543 598 c 0,104,105
 556 584 556 584 556 563 c 0,106,107
 556 543 556 543 543 528.5 c 128,-1,108
 530 514 530 514 510 512 c 1,109,110
 529 509 529 509 543 496 c 0,111,112
 556 482 556 482 556 461 c 0,113,114
 556 441 556 441 543 426.5 c 128,-1,115
 530 412 530 412 510 410 c 1,116,117
 529 407 529 407 543 393 c 0,118,119
 556 379 556 379 556 358 c 0,120,121
 556 338 556 338 543 323.5 c 128,-1,122
 530 309 530 309 510 307 c 1,123,124
 529 304 529 304 543 291 c 0,125,126
 556 277 556 277 556 256 c 0,127,128
 556 236 556 236 543 221.5 c 128,-1,129
 530 207 530 207 510 205 c 1,130,131
 529 202 529 202 543 188 c 0,132,133
 556 174 556 174 556 154 c 0,134,135
 556 132 556 132 541.5 117 c 128,-1,136
 527 102 527 102 505 102 c 256,137,138
 483 102 483 102 468.5 117 c 128,-1,139
 454 132 454 132 454 154 c 0,140,141
 454 174 454 174 467 188 c 0,142,143
 479 201 479 201 500 205 c 1,144,145
 480 207 480 207 467 221 c 128,-1,146
 454 235 454 235 454 256 c 0,147,148
 454 276 454 276 467 291 c 0,149,150
 479 304 479 304 500 307 c 1,151,152
 480 309 480 309 467 324 c 0,153,154
 454 338 454 338 454 358 c 256,155,156
 454 378 454 378 467 393 c 0,157,158
 479 406 479 406 500 410 c 1,159,160
 480 412 480 412 467 426 c 128,-1,161
 454 440 454 440 454 461 c 0,162,163
 454 481 454 481 467 496 c 0,164,165
 479 509 479 509 500 512 c 1,166,167
 480 514 480 514 467 528 c 0,168,169
 454 543 454 543 454 563 c 256,85,86
249 154 m 0,170,171
 249 174 249 174 262 188 c 0,172,173
 274 201 274 201 295 205 c 1,174,175
 275 207 275 207 262 221 c 128,-1,176
 249 235 249 235 249 256 c 0,177,178
 249 278 249 278 264 292.5 c 128,-1,179
 279 307 279 307 300 307 c 0,180,181
 322 307 322 307 336.5 292.5 c 128,-1,182
 351 278 351 278 351 256 c 0,183,184
 351 236 351 236 338 221.5 c 128,-1,185
 325 207 325 207 305 205 c 1,186,187
 324 202 324 202 338 188 c 0,188,189
 351 174 351 174 351 154 c 0,190,191
 351 132 351 132 336.5 117 c 128,-1,192
 322 102 322 102 300 102 c 256,193,194
 278 102 278 102 263.5 117 c 128,-1,195
 249 132 249 132 249 154 c 0,170,171
351 51 m 256,196,197
 351 73 351 73 366 87.5 c 128,-1,198
 381 102 381 102 403 102 c 256,199,200
 425 102 425 102 439.5 87.5 c 128,-1,201
 454 73 454 73 454 51 c 256,202,203
 454 29 454 29 439 14.5 c 128,-1,204
 424 0 424 0 403 0 c 0,205,206
 381 0 381 0 366 14.5 c 128,-1,207
 351 29 351 29 351 51 c 256,196,197
147 51 m 256,208,209
 147 73 147 73 161.5 87.5 c 128,-1,210
 176 102 176 102 198 102 c 256,211,212
 220 102 220 102 234.5 87.5 c 128,-1,213
 249 73 249 73 249 51 c 256,214,215
 249 29 249 29 234 14.5 c 128,-1,216
 219 0 219 0 198 0 c 0,217,218
 176 0 176 0 161.5 14.5 c 128,-1,219
 147 29 147 29 147 51 c 256,208,209
EndSplineSet
EndChar

StartChar: X
Encoding: 88 88 37
Width: 600
VWidth: 1024
Flags: W
LayerCount: 2
Fore
SplineSet
44 563 m 0,0,1
 44 583 44 583 58 598 c 0,2,3
 70 611 70 611 90 614 c 1,4,5
 70 616 70 616 58 631 c 0,6,7
 45 645 45 645 44 666 c 0,8,9
 44 688 44 688 59 702.5 c 128,-1,10
 74 717 74 717 95 717 c 0,11,12
 117 717 117 717 132 702 c 128,-1,13
 147 687 147 687 147 666 c 0,14,15
 147 646 147 646 133.5 631 c 128,-1,16
 120 616 120 616 101 614 c 1,17,18
 120 611 120 611 133 598 c 0,19,20
 146 584 146 584 147 563 c 0,21,22
 147 541 147 541 132 526.5 c 128,-1,23
 117 512 117 512 95 512 c 256,24,25
 73 512 73 512 58.5 526.5 c 128,-1,26
 44 541 44 541 44 563 c 0,0,1
44 154 m 0,27,28
 44 176 44 176 59 190.5 c 128,-1,29
 74 205 74 205 95 205 c 0,30,31
 117 205 117 205 132 190 c 128,-1,32
 147 175 147 175 147 154 c 0,33,34
 147 134 147 134 133.5 119 c 128,-1,35
 120 104 120 104 101 102 c 1,36,37
 120 99 120 99 133 86 c 0,38,39
 146 72 146 72 147 51 c 0,40,41
 147 29 147 29 132 14.5 c 128,-1,42
 117 0 117 0 95 0 c 256,43,44
 73 0 73 0 58.5 15 c 128,-1,45
 44 30 44 30 44 51 c 0,46,47
 44 71 44 71 58 86 c 0,48,49
 70 99 70 99 90 102 c 1,50,51
 70 104 70 104 58 119 c 0,52,53
 44 134 44 134 44 154 c 0,27,28
454 51 m 0,54,55
 454 71 454 71 467 86 c 0,56,57
 479 99 479 99 500 102 c 1,58,59
 480 104 480 104 467 119 c 0,60,61
 454 133 454 133 454 154 c 0,62,63
 454 176 454 176 468.5 190.5 c 128,-1,64
 483 205 483 205 505 205 c 256,65,66
 527 205 527 205 541.5 190 c 128,-1,67
 556 175 556 175 556 154 c 0,68,69
 556 134 556 134 543 119 c 128,-1,70
 530 104 530 104 510 102 c 1,71,72
 529 99 529 99 543 86 c 0,73,74
 556 72 556 72 556 51 c 0,75,76
 556 29 556 29 541.5 14.5 c 128,-1,77
 527 0 527 0 505 0 c 256,78,79
 483 0 483 0 468.5 14.5 c 128,-1,80
 454 29 454 29 454 51 c 0,54,55
454 563 m 0,81,82
 454 583 454 583 467 598 c 0,83,84
 479 611 479 611 500 614 c 1,85,86
 480 616 480 616 467 631 c 0,87,88
 454 645 454 645 454 666 c 0,89,90
 454 688 454 688 468.5 702.5 c 128,-1,91
 483 717 483 717 505 717 c 256,92,93
 527 717 527 717 541.5 702 c 128,-1,94
 556 687 556 687 556 666 c 0,95,96
 556 646 556 646 543 631 c 128,-1,97
 530 616 530 616 510 614 c 1,98,99
 529 611 529 611 543 598 c 0,100,101
 556 584 556 584 556 563 c 0,102,103
 556 541 556 541 541.5 526.5 c 128,-1,104
 527 512 527 512 505 512 c 256,105,106
 483 512 483 512 468.5 526.5 c 128,-1,107
 454 541 454 541 454 563 c 0,81,82
351 256 m 256,108,109
 351 278 351 278 366 292.5 c 128,-1,110
 381 307 381 307 403 307 c 256,111,112
 425 307 425 307 439.5 292.5 c 128,-1,113
 454 278 454 278 454 256 c 256,114,115
 454 234 454 234 439 219.5 c 128,-1,116
 424 205 424 205 403 205 c 0,117,118
 381 205 381 205 366 219.5 c 128,-1,119
 351 234 351 234 351 256 c 256,108,109
147 256 m 256,120,121
 147 278 147 278 161.5 292.5 c 128,-1,122
 176 307 176 307 198 307 c 256,123,124
 220 307 220 307 234.5 292.5 c 128,-1,125
 249 278 249 278 249 256 c 256,126,127
 249 234 249 234 234 219.5 c 128,-1,128
 219 205 219 205 198 205 c 0,129,130
 176 205 176 205 161.5 219.5 c 128,-1,131
 147 234 147 234 147 256 c 256,120,121
249 358 m 256,132,133
 249 380 249 380 264 395 c 128,-1,134
 279 410 279 410 300 410 c 0,135,136
 322 410 322 410 336.5 395 c 128,-1,137
 351 380 351 380 351 358 c 256,138,139
 351 336 351 336 336.5 321.5 c 128,-1,140
 322 307 322 307 300 307 c 256,141,142
 278 307 278 307 263.5 321.5 c 128,-1,143
 249 336 249 336 249 358 c 256,132,133
351 461 m 256,144,145
 351 483 351 483 366 497.5 c 128,-1,146
 381 512 381 512 403 512 c 256,147,148
 425 512 425 512 439.5 497 c 128,-1,149
 454 482 454 482 454 461 c 0,150,151
 454 439 454 439 439 424.5 c 128,-1,152
 424 410 424 410 403 410 c 0,153,154
 381 410 381 410 366 424.5 c 128,-1,155
 351 439 351 439 351 461 c 256,144,145
147 461 m 256,156,157
 147 483 147 483 161.5 497.5 c 128,-1,158
 176 512 176 512 198 512 c 256,159,160
 220 512 220 512 234.5 497 c 128,-1,161
 249 482 249 482 249 461 c 0,162,163
 249 439 249 439 234 424.5 c 128,-1,164
 219 410 219 410 198 410 c 0,165,166
 176 410 176 410 161.5 424.5 c 128,-1,167
 147 439 147 439 147 461 c 256,156,157
EndSplineSet
EndChar

StartChar: Y
Encoding: 89 89 38
Width: 600
VWidth: 1024
Flags: W
LayerCount: 2
Fore
SplineSet
249 154 m 256,0,1
 249 174 249 174 262 188 c 0,2,3
 274 201 274 201 295 205 c 1,4,5
 275 207 275 207 262 221 c 128,-1,6
 249 235 249 235 249 256 c 0,7,8
 249 278 249 278 264 292.5 c 128,-1,9
 279 307 279 307 300 307 c 0,10,11
 322 307 322 307 336.5 292.5 c 128,-1,12
 351 278 351 278 351 256 c 0,13,14
 351 236 351 236 338 221.5 c 128,-1,15
 325 207 325 207 305 205 c 1,16,17
 324 202 324 202 338 188 c 0,18,19
 351 174 351 174 351 154 c 256,20,21
 351 134 351 134 338 119 c 128,-1,22
 325 104 325 104 305 102 c 1,23,24
 324 99 324 99 338 86 c 0,25,26
 351 72 351 72 351 51 c 0,27,28
 351 29 351 29 336.5 14.5 c 128,-1,29
 322 0 322 0 300 0 c 256,30,31
 278 0 278 0 263.5 15 c 128,-1,32
 249 30 249 30 249 51 c 0,33,34
 249 71 249 71 262 86 c 0,35,36
 274 99 274 99 295 102 c 1,37,38
 275 104 275 104 262 119 c 128,-1,39
 249 134 249 134 249 154 c 256,0,1
44 563 m 256,40,41
 44 583 44 583 58 598 c 0,42,43
 70 611 70 611 90 614 c 1,44,45
 70 616 70 616 58 631 c 0,46,47
 45 645 45 645 44 666 c 0,48,49
 44 688 44 688 59 702.5 c 128,-1,50
 74 717 74 717 95 717 c 0,51,52
 117 717 117 717 132 702 c 128,-1,53
 147 687 147 687 147 666 c 0,54,55
 147 646 147 646 133.5 631 c 128,-1,56
 120 616 120 616 101 614 c 1,57,58
 120 611 120 611 133 598 c 0,59,60
 146 584 146 584 147 563 c 0,61,62
 147 543 147 543 133.5 528.5 c 128,-1,63
 120 514 120 514 101 512 c 1,64,65
 120 509 120 509 133 496 c 0,66,67
 146 482 146 482 147 461 c 0,68,69
 147 439 147 439 132 424.5 c 128,-1,70
 117 410 117 410 95 410 c 256,71,72
 73 410 73 410 58.5 424.5 c 128,-1,73
 44 439 44 439 44 461 c 0,74,75
 44 481 44 481 58 496 c 0,76,77
 70 509 70 509 90 512 c 1,78,79
 70 514 70 514 58 528 c 0,80,81
 44 543 44 543 44 563 c 256,40,41
454 563 m 256,82,83
 454 583 454 583 467 598 c 0,84,85
 479 611 479 611 500 614 c 1,86,87
 480 616 480 616 467 631 c 0,88,89
 454 645 454 645 454 666 c 0,90,91
 454 688 454 688 468.5 702.5 c 128,-1,92
 483 717 483 717 505 717 c 256,93,94
 527 717 527 717 541.5 702 c 128,-1,95
 556 687 556 687 556 666 c 0,96,97
 556 646 556 646 543 631 c 128,-1,98
 530 616 530 616 510 614 c 1,99,100
 529 611 529 611 543 598 c 0,101,102
 556 584 556 584 556 563 c 0,103,104
 556 543 556 543 543 528.5 c 128,-1,105
 530 514 530 514 510 512 c 1,106,107
 529 509 529 509 543 496 c 0,108,109
 556 482 556 482 556 461 c 0,110,111
 556 439 556 439 541.5 424.5 c 128,-1,112
 527 410 527 410 505 410 c 256,113,114
 483 410 483 410 468.5 424.5 c 128,-1,115
 454 439 454 439 454 461 c 0,116,117
 454 481 454 481 467 496 c 0,118,119
 479 509 479 509 500 512 c 1,120,121
 480 514 480 514 467 528 c 0,122,123
 454 543 454 543 454 563 c 256,82,83
351 358 m 256,124,125
 351 380 351 380 366 395 c 128,-1,126
 381 410 381 410 403 410 c 256,127,128
 425 410 425 410 439.5 395 c 128,-1,129
 454 380 454 380 454 358 c 256,130,131
 454 336 454 336 439 321.5 c 128,-1,132
 424 307 424 307 403 307 c 0,133,134
 381 307 381 307 366 321.5 c 128,-1,135
 351 336 351 336 351 358 c 256,124,125
147 358 m 256,136,137
 147 380 147 380 161.5 395 c 128,-1,138
 176 410 176 410 198 410 c 256,139,140
 220 410 220 410 234.5 395 c 128,-1,141
 249 380 249 380 249 358 c 256,142,143
 249 336 249 336 234 321.5 c 128,-1,144
 219 307 219 307 198 307 c 0,145,146
 176 307 176 307 161.5 321.5 c 128,-1,147
 147 336 147 336 147 358 c 256,136,137
EndSplineSet
EndChar

StartChar: Z
Encoding: 90 90 39
Width: 600
VWidth: 1024
Flags: W
LayerCount: 2
Fore
SplineSet
44 154 m 0,0,1
 44 176 44 176 59 190.5 c 128,-1,2
 74 205 74 205 95 205 c 0,3,4
 117 205 117 205 132 190 c 128,-1,5
 147 175 147 175 147 154 c 0,6,7
 147 134 147 134 133.5 119 c 128,-1,8
 120 104 120 104 101 102 c 1,9,10
 120 99 120 99 133 86 c 0,11,12
 144 73 144 73 147 55 c 1,13,14
 148 73 148 73 161 87 c 0,15,16
 176 102 176 102 198 102 c 0,17,18
 218 102 218 102 232.5 89 c 128,-1,19
 247 76 247 76 249 55 c 1,20,21
 251 75 251 75 265.5 88.5 c 128,-1,22
 280 102 280 102 300 102 c 256,23,24
 320 102 320 102 335 89 c 0,25,26
 348 76 348 76 351 56 c 1,27,28
 353 75 353 75 367.5 88.5 c 128,-1,29
 382 102 382 102 403 102 c 0,30,31
 423 102 423 102 437 89 c 0,32,33
 450 76 450 76 454 56 c 1,34,35
 456 75 456 75 470.5 88.5 c 128,-1,36
 485 102 485 102 505 102 c 0,37,38
 527 102 527 102 541.5 87.5 c 128,-1,39
 556 73 556 73 556 51 c 256,40,41
 556 29 556 29 541.5 14.5 c 128,-1,42
 527 0 527 0 505 0 c 0,43,44
 485 0 485 0 470 13 c 0,45,46
 456 25 456 25 454 46 c 1,47,48
 451 26 451 26 437 13 c 128,-1,49
 423 0 423 0 403 0 c 256,50,51
 383 0 383 0 368 13 c 0,52,53
 354 25 354 25 351 46 c 1,54,55
 348 26 348 26 335 13 c 0,56,57
 321 0 321 0 300 0 c 0,58,59
 280 0 280 0 265 13 c 0,60,61
 251 25 251 25 249 46 c 1,62,63
 246 26 246 26 233 13 c 0,64,65
 219 0 219 0 198 0 c 0,66,67
 178 0 178 0 163 13 c 0,68,69
 149 25 149 25 147 46 c 1,70,71
 144 26 144 26 130 13 c 128,-1,72
 116 0 116 0 95 0 c 0,73,74
 73 0 73 0 58.5 15 c 128,-1,75
 44 30 44 30 44 51 c 0,76,77
 44 71 44 71 58 86 c 0,78,79
 70 99 70 99 90 102 c 1,80,81
 70 104 70 104 58 119 c 0,82,83
 44 134 44 134 44 154 c 0,0,1
454 563 m 0,84,85
 454 583 454 583 467 598 c 0,86,87
 479 611 479 611 500 614 c 1,88,89
 481 616 481 616 468.5 628.5 c 128,-1,90
 456 641 456 641 454 660 c 1,91,92
 451 640 451 640 437 628 c 0,93,94
 423 615 423 615 403 614 c 0,95,96
 383 614 383 614 368 628 c 0,97,98
 354 640 354 640 351 660 c 1,99,100
 348 640 348 640 335 628 c 0,101,102
 321 615 321 615 300 614 c 0,103,104
 280 614 280 614 265 628 c 0,105,106
 251 640 251 640 249 660 c 1,107,108
 246 640 246 640 233 628 c 0,109,110
 219 615 219 615 198 614 c 0,111,112
 178 614 178 614 163 628 c 0,113,114
 149 640 149 640 147 660 c 1,115,116
 144 640 144 640 130 628 c 0,117,118
 116 615 116 615 95 614 c 0,119,120
 73 614 73 614 58.5 629 c 128,-1,121
 44 644 44 644 44 666 c 256,122,123
 44 688 44 688 59 702.5 c 128,-1,124
 74 717 74 717 95 717 c 0,125,126
 115 717 115 717 130 703 c 0,127,128
 143 690 143 690 147 671 c 1,129,130
 149 690 149 690 163 703.5 c 128,-1,131
 177 717 177 717 198 717 c 0,132,133
 220 717 220 717 234.5 702 c 128,-1,134
 249 687 249 687 249 666 c 1,135,136
 249 688 249 688 264 702.5 c 128,-1,137
 279 717 279 717 300 717 c 0,138,139
 322 717 322 717 336 701 c 0,140,141
 349 688 349 688 351 670 c 1,142,143
 352 688 352 688 366 701 c 0,144,145
 381 716 381 716 403 717 c 0,146,147
 425 717 425 717 438 701 c 0,148,149
 451 688 451 688 454 670 c 1,150,151
 455 688 455 688 468 701 c 0,152,153
 483 716 483 716 505 717 c 0,154,155
 527 717 527 717 541.5 702 c 128,-1,156
 556 687 556 687 556 666 c 0,157,158
 556 646 556 646 543 631 c 128,-1,159
 530 616 530 616 510 614 c 1,160,161
 529 611 529 611 543 598 c 0,162,163
 556 584 556 584 556 563 c 0,164,165
 556 541 556 541 541.5 526.5 c 128,-1,166
 527 512 527 512 505 512 c 256,167,168
 483 512 483 512 468.5 526.5 c 128,-1,169
 454 541 454 541 454 563 c 0,84,85
147 256 m 256,170,171
 147 278 147 278 161.5 292.5 c 128,-1,172
 176 307 176 307 198 307 c 256,173,174
 220 307 220 307 234.5 292.5 c 128,-1,175
 249 278 249 278 249 256 c 256,176,177
 249 234 249 234 234 219.5 c 128,-1,178
 219 205 219 205 198 205 c 0,179,180
 176 205 176 205 161.5 219.5 c 128,-1,181
 147 234 147 234 147 256 c 256,170,171
351 461 m 256,182,183
 351 483 351 483 366 497.5 c 128,-1,184
 381 512 381 512 403 512 c 256,185,186
 425 512 425 512 439.5 497 c 128,-1,187
 454 482 454 482 454 461 c 0,188,189
 454 439 454 439 439 424.5 c 128,-1,190
 424 410 424 410 403 410 c 0,191,192
 381 410 381 410 366 424.5 c 128,-1,193
 351 439 351 439 351 461 c 256,182,183
249 358 m 256,194,195
 249 380 249 380 264 395 c 128,-1,196
 279 410 279 410 300 410 c 0,197,198
 322 410 322 410 336.5 395 c 128,-1,199
 351 380 351 380 351 358 c 256,200,201
 351 336 351 336 336.5 321.5 c 128,-1,202
 322 307 322 307 300 307 c 256,203,204
 278 307 278 307 263.5 321.5 c 128,-1,205
 249 336 249 336 249 358 c 256,194,195
EndSplineSet
EndChar

StartChar: bracketleft
Encoding: 91 91 40
Width: 600
VWidth: 1024
Flags: W
LayerCount: 2
Fore
SplineSet
147 666 m 0,0,1
 147 688 147 688 161 702.5 c 128,-1,2
 175 717 175 717 197 717 c 256,3,4
 219 717 219 717 234 702 c 128,-1,5
 249 687 249 687 249 666 c 1,6,7
 249 688 249 688 264 702.5 c 128,-1,8
 279 717 279 717 299 717 c 0,9,10
 321 717 321 717 335 701 c 0,11,12
 349 688 349 688 351 670 c 1,13,14
 351 688 351 688 365 701 c 0,15,16
 381 716 381 716 403 717 c 0,17,18
 425 717 425 717 439 702 c 128,-1,19
 453 687 453 687 453 666 c 0,20,21
 453 644 453 644 438 629 c 128,-1,22
 423 614 423 614 403 614 c 0,23,24
 383 614 383 614 367 628 c 0,25,26
 353 640 353 640 351 660 c 1,27,28
 349 640 349 640 335 628 c 0,29,30
 321 615 321 615 299 614 c 0,31,32
 279 614 279 614 265 628 c 0,33,34
 251 640 251 640 249 660 c 1,35,36
 246 641 246 641 232.5 628.5 c 128,-1,37
 219 616 219 616 203 614 c 1,38,39
 221 611 221 611 235 598 c 0,40,41
 249 584 249 584 249 563 c 0,42,43
 249 543 249 543 235 528.5 c 128,-1,44
 221 514 221 514 203 512 c 1,45,46
 221 509 221 509 235 496 c 0,47,48
 249 482 249 482 249 461 c 0,49,50
 249 441 249 441 235 426.5 c 128,-1,51
 221 412 221 412 203 410 c 1,52,53
 221 407 221 407 235 393 c 0,54,55
 249 379 249 379 249 358 c 0,56,57
 249 338 249 338 235 323.5 c 128,-1,58
 221 309 221 309 203 307 c 1,59,60
 221 304 221 304 235 291 c 0,61,62
 249 277 249 277 249 256 c 0,63,64
 249 236 249 236 235 221.5 c 128,-1,65
 221 207 221 207 203 205 c 1,66,67
 221 202 221 202 235 188 c 0,68,69
 249 174 249 174 249 154 c 256,70,71
 249 134 249 134 235 119 c 128,-1,72
 221 104 221 104 203 102 c 1,73,74
 221 99 221 99 235 86 c 0,75,76
 249 72 249 72 249 51 c 1,77,78
 249 73 249 73 264 87.5 c 128,-1,79
 279 102 279 102 299 102 c 0,80,81
 321 102 321 102 335 87 c 0,82,83
 349 74 349 74 351 55 c 1,84,85
 351 73 351 73 365 87 c 0,86,87
 381 102 381 102 403 102 c 256,88,89
 425 102 425 102 439 87.5 c 128,-1,90
 453 73 453 73 453 51 c 256,91,92
 453 29 453 29 438 14.5 c 128,-1,93
 423 0 423 0 403 0 c 0,94,95
 383 0 383 0 367 13 c 0,96,97
 353 25 353 25 351 46 c 1,98,99
 349 26 349 26 335 13 c 0,100,101
 321 0 321 0 299 0 c 0,102,103
 279 0 279 0 265 13 c 0,104,105
 251 25 251 25 249 46 c 1,106,107
 247 26 247 26 233 13 c 0,108,109
 219 0 219 0 197 0 c 0,110,111
 175 0 175 0 161 15 c 128,-1,112
 147 30 147 30 147 51 c 0,113,114
 147 71 147 71 159 86 c 0,115,116
 171 99 171 99 193 102 c 1,117,118
 173 104 173 104 159 119 c 0,119,120
 147 133 147 133 147 154 c 0,121,122
 147 174 147 174 159 188 c 0,123,124
 171 201 171 201 193 205 c 1,125,126
 173 207 173 207 160 221 c 128,-1,127
 147 235 147 235 147 256 c 0,128,129
 147 276 147 276 159 291 c 0,130,131
 171 304 171 304 193 307 c 1,132,133
 173 309 173 309 159 324 c 0,134,135
 147 338 147 338 147 358 c 256,136,137
 147 378 147 378 159 393 c 0,138,139
 171 406 171 406 193 410 c 1,140,141
 173 412 173 412 160 426 c 128,-1,142
 147 440 147 440 147 461 c 0,143,144
 147 481 147 481 159 496 c 0,145,146
 171 509 171 509 193 512 c 1,147,148
 173 514 173 514 160 528 c 128,-1,149
 147 542 147 542 147 563 c 0,150,151
 147 583 147 583 159 598 c 0,152,153
 171 611 171 611 193 614 c 1,154,155
 173 616 173 616 160 631 c 128,-1,156
 147 646 147 646 147 666 c 0,0,1
EndSplineSet
EndChar

StartChar: backslash
Encoding: 92 92 41
Width: 600
VWidth: 1024
Flags: W
LayerCount: 2
Fore
SplineSet
44 563 m 0,0,1
 44 583 44 583 58 598 c 0,2,3
 70 611 70 611 90 614 c 1,4,5
 70 616 70 616 58 631 c 0,6,7
 45 645 45 645 44 666 c 0,8,9
 44 688 44 688 59 702.5 c 128,-1,10
 74 717 74 717 95 717 c 0,11,12
 117 717 117 717 132 702 c 128,-1,13
 147 687 147 687 147 666 c 0,14,15
 147 646 147 646 133.5 631 c 128,-1,16
 120 616 120 616 101 614 c 1,17,18
 120 611 120 611 133 598 c 0,19,20
 146 584 146 584 147 563 c 0,21,22
 147 541 147 541 132 526.5 c 128,-1,23
 117 512 117 512 95 512 c 256,24,25
 73 512 73 512 58.5 526.5 c 128,-1,26
 44 541 44 541 44 563 c 0,0,1
454 51 m 0,27,28
 454 71 454 71 467 86 c 0,29,30
 479 99 479 99 500 102 c 1,31,32
 480 104 480 104 467 119 c 0,33,34
 454 133 454 133 454 154 c 0,35,36
 454 176 454 176 468.5 190.5 c 128,-1,37
 483 205 483 205 505 205 c 256,38,39
 527 205 527 205 541.5 190 c 128,-1,40
 556 175 556 175 556 154 c 0,41,42
 556 134 556 134 543 119 c 128,-1,43
 530 104 530 104 510 102 c 1,44,45
 529 99 529 99 543 86 c 0,46,47
 556 72 556 72 556 51 c 0,48,49
 556 29 556 29 541.5 14.5 c 128,-1,50
 527 0 527 0 505 0 c 256,51,52
 483 0 483 0 468.5 14.5 c 128,-1,53
 454 29 454 29 454 51 c 0,27,28
351 256 m 256,54,55
 351 278 351 278 366 292.5 c 128,-1,56
 381 307 381 307 403 307 c 256,57,58
 425 307 425 307 439.5 292.5 c 128,-1,59
 454 278 454 278 454 256 c 256,60,61
 454 234 454 234 439 219.5 c 128,-1,62
 424 205 424 205 403 205 c 0,63,64
 381 205 381 205 366 219.5 c 128,-1,65
 351 234 351 234 351 256 c 256,54,55
249 358 m 256,66,67
 249 380 249 380 264 395 c 128,-1,68
 279 410 279 410 300 410 c 0,69,70
 322 410 322 410 336.5 395 c 128,-1,71
 351 380 351 380 351 358 c 256,72,73
 351 336 351 336 336.5 321.5 c 128,-1,74
 322 307 322 307 300 307 c 256,75,76
 278 307 278 307 263.5 321.5 c 128,-1,77
 249 336 249 336 249 358 c 256,66,67
147 461 m 256,78,79
 147 483 147 483 161.5 497.5 c 128,-1,80
 176 512 176 512 198 512 c 256,81,82
 220 512 220 512 234.5 497 c 128,-1,83
 249 482 249 482 249 461 c 0,84,85
 249 439 249 439 234 424.5 c 128,-1,86
 219 410 219 410 198 410 c 0,87,88
 176 410 176 410 161.5 424.5 c 128,-1,89
 147 439 147 439 147 461 c 256,78,79
EndSplineSet
EndChar

StartChar: bracketright
Encoding: 93 93 42
Width: 600
VWidth: 1024
Flags: W
LayerCount: 2
Fore
SplineSet
351 563 m 256,0,1
 351 583 351 583 365 598 c 0,2,3
 377 611 377 611 397 614 c 1,4,5
 378 616 378 616 365.5 628.5 c 128,-1,6
 353 641 353 641 351 660 c 1,7,8
 349 640 349 640 335 628 c 0,9,10
 321 615 321 615 299 614 c 0,11,12
 279 614 279 614 265 628 c 0,13,14
 251 640 251 640 249 660 c 1,15,16
 247 640 247 640 233 628 c 0,17,18
 219 615 219 615 197 614 c 0,19,20
 175 614 175 614 161 629 c 128,-1,21
 147 644 147 644 147 666 c 256,22,23
 147 688 147 688 161 702.5 c 128,-1,24
 175 717 175 717 197 717 c 256,25,26
 219 717 219 717 234 702 c 128,-1,27
 249 687 249 687 249 666 c 1,28,29
 249 688 249 688 264 702.5 c 128,-1,30
 279 717 279 717 299 717 c 0,31,32
 321 717 321 717 336 702 c 128,-1,33
 351 687 351 687 351 666 c 1,34,35
 351 688 351 688 366 702.5 c 128,-1,36
 381 717 381 717 403 717 c 256,37,38
 425 717 425 717 439 702 c 128,-1,39
 453 687 453 687 453 666 c 0,40,41
 453 646 453 646 440 631 c 128,-1,42
 427 616 427 616 407 614 c 1,43,44
 425 611 425 611 439 598 c 0,45,46
 451 584 451 584 453 563 c 0,47,48
 453 543 453 543 440 528.5 c 128,-1,49
 427 514 427 514 407 512 c 1,50,51
 425 509 425 509 439 496 c 0,52,53
 451 482 451 482 453 461 c 0,54,55
 453 441 453 441 440 426.5 c 128,-1,56
 427 412 427 412 407 410 c 1,57,58
 426 407 426 407 439.5 393 c 128,-1,59
 453 379 453 379 453 358 c 0,60,61
 453 338 453 338 440 323.5 c 128,-1,62
 427 309 427 309 407 307 c 1,63,64
 425 304 425 304 439 291 c 0,65,66
 451 277 451 277 453 256 c 0,67,68
 453 236 453 236 440 221.5 c 128,-1,69
 427 207 427 207 407 205 c 1,70,71
 426 202 426 202 439.5 188 c 128,-1,72
 453 174 453 174 453 154 c 0,73,74
 453 134 453 134 440 119 c 128,-1,75
 427 104 427 104 407 102 c 1,76,77
 425 99 425 99 439 86 c 0,78,79
 451 72 451 72 453 51 c 0,80,81
 453 29 453 29 438 14.5 c 128,-1,82
 423 0 423 0 403 0 c 0,83,84
 383 0 383 0 367 13 c 0,85,86
 353 25 353 25 351 46 c 1,87,88
 349 26 349 26 335 13 c 0,89,90
 321 0 321 0 299 0 c 0,91,92
 279 0 279 0 265 13 c 0,93,94
 251 25 251 25 249 46 c 1,95,96
 247 26 247 26 233 13 c 0,97,98
 219 0 219 0 197 0 c 0,99,100
 175 0 175 0 161 15 c 128,-1,101
 147 30 147 30 147 51 c 0,102,103
 147 73 147 73 161 87.5 c 128,-1,104
 175 102 175 102 197 102 c 256,105,106
 219 102 219 102 234 87.5 c 128,-1,107
 249 73 249 73 249 51 c 1,108,109
 249 73 249 73 264 87.5 c 128,-1,110
 279 102 279 102 299 102 c 0,111,112
 319 102 319 102 335 89 c 0,113,114
 349 76 349 76 351 56 c 1,115,116
 353 73 353 73 365 86 c 128,-1,117
 377 99 377 99 397 102 c 1,118,119
 377 104 377 104 365 119 c 0,120,121
 353 133 353 133 351 154 c 0,122,123
 351 174 351 174 365 188 c 0,124,125
 377 201 377 201 397 205 c 1,126,127
 377 207 377 207 365 221 c 0,128,129
 353 235 353 235 351 256 c 0,130,131
 351 276 351 276 365 291 c 0,132,133
 377 304 377 304 397 307 c 1,134,135
 377 309 377 309 365 324 c 0,136,137
 353 338 353 338 351 358 c 0,138,139
 351 378 351 378 365 393 c 0,140,141
 377 406 377 406 397 410 c 1,142,143
 377 412 377 412 365 426 c 0,144,145
 353 440 353 440 351 461 c 0,146,147
 351 481 351 481 365 496 c 0,148,149
 377 509 377 509 397 512 c 1,150,151
 377 514 377 514 365 528 c 0,152,153
 351 543 351 543 351 563 c 256,0,1
EndSplineSet
EndChar

StartChar: asciicircum
Encoding: 94 94 43
Width: 600
VWidth: 1024
Flags: W
LayerCount: 2
Fore
SplineSet
249 666 m 256,0,1
 249 688 249 688 264 702.5 c 128,-1,2
 279 717 279 717 300 717 c 0,3,4
 322 717 322 717 336.5 702 c 128,-1,5
 351 687 351 687 351 666 c 0,6,7
 351 644 351 644 336.5 629 c 128,-1,8
 322 614 322 614 300 614 c 256,9,10
 278 614 278 614 263.5 629 c 128,-1,11
 249 644 249 644 249 666 c 256,0,1
44 461 m 256,12,13
 44 483 44 483 59 497.5 c 128,-1,14
 74 512 74 512 95 512 c 0,15,16
 117 512 117 512 132 497 c 128,-1,17
 147 482 147 482 147 461 c 0,18,19
 147 439 147 439 132 424.5 c 128,-1,20
 117 410 117 410 95 410 c 256,21,22
 73 410 73 410 58.5 424.5 c 128,-1,23
 44 439 44 439 44 461 c 256,12,13
351 563 m 256,24,25
 351 585 351 585 366 599.5 c 128,-1,26
 381 614 381 614 403 614 c 256,27,28
 425 614 425 614 439.5 599.5 c 128,-1,29
 454 585 454 585 454 563 c 256,30,31
 454 541 454 541 439 526.5 c 128,-1,32
 424 512 424 512 403 512 c 0,33,34
 381 512 381 512 366 526.5 c 128,-1,35
 351 541 351 541 351 563 c 256,24,25
454 461 m 256,36,37
 454 483 454 483 468.5 497.5 c 128,-1,38
 483 512 483 512 505 512 c 256,39,40
 527 512 527 512 541.5 497 c 128,-1,41
 556 482 556 482 556 461 c 0,42,43
 556 439 556 439 541.5 424.5 c 128,-1,44
 527 410 527 410 505 410 c 256,45,46
 483 410 483 410 468.5 424.5 c 128,-1,47
 454 439 454 439 454 461 c 256,36,37
147 563 m 256,48,49
 147 585 147 585 161.5 599.5 c 128,-1,50
 176 614 176 614 198 614 c 256,51,52
 220 614 220 614 234.5 599.5 c 128,-1,53
 249 585 249 585 249 563 c 256,54,55
 249 541 249 541 234 526.5 c 128,-1,56
 219 512 219 512 198 512 c 0,57,58
 176 512 176 512 161.5 526.5 c 128,-1,59
 147 541 147 541 147 563 c 256,48,49
EndSplineSet
EndChar

StartChar: underscore
Encoding: 95 95 44
Width: 600
VWidth: 1024
Flags: W
LayerCount: 2
Fore
SplineSet
44 51 m 256,0,1
 44 73 44 73 59 87.5 c 128,-1,2
 74 102 74 102 95 102 c 0,3,4
 117 102 117 102 132 87.5 c 128,-1,5
 147 73 147 73 147 51 c 1,6,7
 147 73 147 73 161.5 87.5 c 128,-1,8
 176 102 176 102 198 102 c 256,9,10
 220 102 220 102 234.5 87.5 c 128,-1,11
 249 73 249 73 249 51 c 1,12,13
 249 73 249 73 264 87.5 c 128,-1,14
 279 102 279 102 300 102 c 0,15,16
 320 102 320 102 334.5 89 c 128,-1,17
 349 76 349 76 351 55 c 1,18,19
 353 75 353 75 367.5 88.5 c 128,-1,20
 382 102 382 102 403 102 c 0,21,22
 423 102 423 102 437 89 c 0,23,24
 450 76 450 76 454 56 c 1,25,26
 456 75 456 75 470.5 88.5 c 128,-1,27
 485 102 485 102 505 102 c 0,28,29
 527 102 527 102 541.5 87.5 c 128,-1,30
 556 73 556 73 556 51 c 256,31,32
 556 29 556 29 541.5 14.5 c 128,-1,33
 527 0 527 0 505 0 c 0,34,35
 485 0 485 0 470 13 c 0,36,37
 456 25 456 25 454 46 c 1,38,39
 451 26 451 26 437 13 c 128,-1,40
 423 0 423 0 403 0 c 256,41,42
 383 0 383 0 368 13 c 0,43,44
 354 25 354 25 351 46 c 1,45,46
 348 26 348 26 335 13 c 0,47,48
 321 0 321 0 300 0 c 0,49,50
 280 0 280 0 265 13 c 0,51,52
 251 25 251 25 249 46 c 1,53,54
 246 26 246 26 233 13 c 0,55,56
 219 0 219 0 198 0 c 0,57,58
 178 0 178 0 163 13 c 0,59,60
 149 25 149 25 147 46 c 1,61,62
 144 26 144 26 130 13 c 128,-1,63
 116 0 116 0 95 0 c 0,64,65
 73 0 73 0 58.5 14.5 c 128,-1,66
 44 29 44 29 44 51 c 256,0,1
EndSplineSet
EndChar

StartChar: grave
Encoding: 96 96 45
Width: 600
VWidth: 1024
Flags: W
LayerCount: 2
Fore
SplineSet
299 563 m 256,0,1
 299 585 299 585 314 599.5 c 128,-1,2
 329 614 329 614 351 614 c 0,3,4
 373 614 373 614 388 599.5 c 128,-1,5
 403 585 403 585 403 563 c 256,6,7
 403 541 403 541 388 526.5 c 128,-1,8
 373 512 373 512 351 512 c 256,9,10
 329 512 329 512 314 526.5 c 128,-1,11
 299 541 299 541 299 563 c 256,0,1
197 666 m 256,12,13
 197 688 197 688 212 702.5 c 128,-1,14
 227 717 227 717 249 717 c 256,15,16
 271 717 271 717 285 702 c 128,-1,17
 299 687 299 687 299 666 c 0,18,19
 299 644 299 644 285 629 c 128,-1,20
 271 614 271 614 249 614 c 256,21,22
 227 614 227 614 212 629 c 128,-1,23
 197 644 197 644 197 666 c 256,12,13
EndSplineSet
EndChar

StartChar: a
Encoding: 97 97 46
Width: 600
VWidth: 1024
Flags: W
LayerCount: 2
Fore
SplineSet
454 154 m 256,0,1
 454 174 454 174 467 188 c 0,2,3
 479 201 479 201 500 205 c 1,4,5
 481 207 481 207 468.5 219 c 128,-1,6
 456 231 456 231 454 251 c 1,7,8
 451 231 451 231 437 218 c 128,-1,9
 423 205 423 205 403 205 c 256,10,11
 383 205 383 205 368 218 c 0,12,13
 354 230 354 230 351 251 c 1,14,15
 348 231 348 231 335 218 c 0,16,17
 321 205 321 205 300 205 c 0,18,19
 280 205 280 205 265 218 c 0,20,21
 251 230 251 230 249 251 c 1,22,23
 246 231 246 231 233 218 c 0,24,25
 219 205 219 205 198 205 c 0,26,27
 176 205 176 205 161.5 219.5 c 128,-1,28
 147 234 147 234 147 256 c 256,29,30
 147 278 147 278 161.5 292.5 c 128,-1,31
 176 307 176 307 198 307 c 256,32,33
 220 307 220 307 234.5 292.5 c 128,-1,34
 249 278 249 278 249 256 c 1,35,36
 249 278 249 278 264 292.5 c 128,-1,37
 279 307 279 307 300 307 c 0,38,39
 322 307 322 307 336.5 292.5 c 128,-1,40
 351 278 351 278 351 256 c 1,41,42
 351 278 351 278 366 292.5 c 128,-1,43
 381 307 381 307 403 307 c 0,44,45
 423 307 423 307 437.5 294 c 128,-1,46
 452 281 452 281 454 260 c 1,47,48
 456 278 456 278 468 292 c 0,49,50
 480 304 480 304 500 307 c 1,51,52
 480 309 480 309 467 324 c 0,53,54
 454 338 454 338 454 358 c 0,55,56
 454 380 454 380 468.5 395 c 128,-1,57
 483 410 483 410 505 410 c 256,58,59
 527 410 527 410 541.5 395 c 128,-1,60
 556 380 556 380 556 358 c 0,61,62
 556 338 556 338 543 323.5 c 128,-1,63
 530 309 530 309 510 307 c 1,64,65
 529 304 529 304 543 291 c 0,66,67
 556 277 556 277 556 256 c 0,68,69
 556 236 556 236 543 221.5 c 128,-1,70
 530 207 530 207 510 205 c 1,71,72
 529 202 529 202 543 188 c 0,73,74
 556 174 556 174 556 154 c 256,75,76
 556 134 556 134 543 119 c 128,-1,77
 530 104 530 104 510 102 c 1,78,79
 529 99 529 99 543 86 c 0,80,81
 556 72 556 72 556 51 c 0,82,83
 556 29 556 29 541.5 14.5 c 128,-1,84
 527 0 527 0 505 0 c 0,85,86
 485 0 485 0 470 13 c 0,87,88
 456 25 456 25 454 46 c 1,89,90
 451 26 451 26 437 13 c 128,-1,91
 423 0 423 0 403 0 c 256,92,93
 383 0 383 0 368 13 c 0,94,95
 354 25 354 25 351 46 c 1,96,97
 348 26 348 26 335 13 c 0,98,99
 321 0 321 0 300 0 c 0,100,101
 280 0 280 0 265 13 c 0,102,103
 251 25 251 25 249 46 c 1,104,105
 246 26 246 26 233 13 c 0,106,107
 219 0 219 0 198 0 c 0,108,109
 176 0 176 0 161.5 15 c 128,-1,110
 147 30 147 30 147 51 c 0,111,112
 147 73 147 73 161.5 87.5 c 128,-1,113
 176 102 176 102 198 102 c 0,114,115
 218 102 218 102 232.5 89 c 128,-1,116
 247 76 247 76 249 55 c 1,117,118
 251 75 251 75 265.5 88.5 c 128,-1,119
 280 102 280 102 300 102 c 0,120,121
 322 102 322 102 336 87 c 0,122,123
 349 74 349 74 351 55 c 1,124,125
 352 73 352 73 366 87 c 0,126,127
 381 102 381 102 403 102 c 256,128,129
 425 102 425 102 438 87 c 0,130,131
 451 74 451 74 454 55 c 1,132,133
 455 72 455 72 467 86 c 0,134,135
 479 99 479 99 500 102 c 1,136,137
 480 104 480 104 467 119 c 128,-1,138
 454 134 454 134 454 154 c 256,0,1
147 461 m 256,139,140
 147 483 147 483 161.5 497.5 c 128,-1,141
 176 512 176 512 198 512 c 256,142,143
 220 512 220 512 234.5 497 c 128,-1,144
 249 482 249 482 249 461 c 1,145,146
 249 483 249 483 264 497.5 c 128,-1,147
 279 512 279 512 300 512 c 0,148,149
 322 512 322 512 336 497 c 0,150,151
 349 484 349 484 351 465 c 1,152,153
 352 483 352 483 366 497 c 0,154,155
 381 512 381 512 403 512 c 256,156,157
 425 512 425 512 439.5 497 c 128,-1,158
 454 482 454 482 454 461 c 0,159,160
 454 439 454 439 439 424.5 c 128,-1,161
 424 410 424 410 403 410 c 0,162,163
 383 410 383 410 368 423 c 0,164,165
 354 435 354 435 351 456 c 1,166,167
 348 436 348 436 335 423 c 0,168,169
 321 410 321 410 300 410 c 0,170,171
 280 410 280 410 265 423 c 0,172,173
 251 435 251 435 249 456 c 1,174,175
 246 436 246 436 233 423 c 0,176,177
 219 410 219 410 198 410 c 0,178,179
 176 410 176 410 161.5 424.5 c 128,-1,180
 147 439 147 439 147 461 c 256,139,140
44 154 m 256,181,182
 44 176 44 176 59 190.5 c 128,-1,183
 74 205 74 205 95 205 c 0,184,185
 117 205 117 205 132 190 c 128,-1,186
 147 175 147 175 147 154 c 0,187,188
 147 132 147 132 132 117 c 128,-1,189
 117 102 117 102 95 102 c 256,190,191
 73 102 73 102 58.5 117 c 128,-1,192
 44 132 44 132 44 154 c 256,181,182
EndSplineSet
EndChar

StartChar: b
Encoding: 98 98 47
Width: 600
VWidth: 1024
Flags: W
LayerCount: 2
Fore
SplineSet
44 563 m 256,0,1
 44 583 44 583 58 598 c 0,2,3
 70 611 70 611 90 614 c 1,4,5
 70 616 70 616 58 631 c 0,6,7
 45 645 45 645 44 666 c 0,8,9
 44 688 44 688 59 702.5 c 128,-1,10
 74 717 74 717 95 717 c 0,11,12
 117 717 117 717 132 702 c 128,-1,13
 147 687 147 687 147 666 c 0,14,15
 147 646 147 646 133.5 631 c 128,-1,16
 120 616 120 616 101 614 c 1,17,18
 120 611 120 611 133 598 c 0,19,20
 146 584 146 584 147 563 c 0,21,22
 147 543 147 543 133.5 528.5 c 128,-1,23
 120 514 120 514 101 512 c 1,24,25
 120 509 120 509 133 496 c 0,26,27
 146 482 146 482 147 461 c 0,28,29
 147 441 147 441 133.5 426.5 c 128,-1,30
 120 412 120 412 101 410 c 1,31,32
 120 407 120 407 133 393 c 0,33,34
 144 380 144 380 147 362 c 1,35,36
 148 380 148 380 161 394 c 0,37,38
 176 409 176 409 198 410 c 0,39,40
 220 410 220 410 234.5 395 c 128,-1,41
 249 380 249 380 249 358 c 256,42,43
 249 336 249 336 234 321.5 c 128,-1,44
 219 307 219 307 198 307 c 0,45,46
 178 307 178 307 163 321 c 0,47,48
 149 333 149 333 147 353 c 1,49,50
 144 334 144 334 131 321.5 c 128,-1,51
 118 309 118 309 101 307 c 1,52,53
 120 304 120 304 133 291 c 0,54,55
 146 277 146 277 147 256 c 0,56,57
 147 236 147 236 133.5 221.5 c 128,-1,58
 120 207 120 207 101 205 c 1,59,60
 118 202 118 202 131 189 c 128,-1,61
 144 176 144 176 147 158 c 1,62,63
 149 178 149 178 163 191.5 c 128,-1,64
 177 205 177 205 198 205 c 0,65,66
 220 205 220 205 234.5 190 c 128,-1,67
 249 175 249 175 249 154 c 0,68,69
 249 132 249 132 234 117 c 128,-1,70
 219 102 219 102 198 102 c 0,71,72
 178 102 178 102 163 116 c 0,73,74
 149 128 149 128 147 148 c 1,75,76
 144 129 144 129 131 116.5 c 128,-1,77
 118 104 118 104 101 102 c 1,78,79
 120 99 120 99 133 86 c 0,80,81
 146 72 146 72 147 51 c 0,82,83
 147 29 147 29 132 14.5 c 128,-1,84
 117 0 117 0 95 0 c 256,85,86
 73 0 73 0 58.5 15 c 128,-1,87
 44 30 44 30 44 51 c 0,88,89
 44 71 44 71 58 86 c 0,90,91
 70 99 70 99 90 102 c 1,92,93
 70 104 70 104 58 119 c 0,94,95
 45 133 45 133 44 154 c 0,96,97
 44 174 44 174 58 188 c 0,98,99
 70 201 70 201 90 205 c 1,100,101
 70 207 70 207 58 221 c 0,102,103
 45 235 45 235 44 256 c 0,104,105
 44 276 44 276 58 291 c 0,106,107
 70 304 70 304 90 307 c 1,108,109
 70 309 70 309 58 324 c 0,110,111
 45 338 45 338 44 358 c 0,112,113
 44 378 44 378 58 393 c 0,114,115
 70 406 70 406 90 410 c 1,116,117
 70 412 70 412 58 426 c 0,118,119
 45 440 45 440 44 461 c 0,120,121
 44 481 44 481 58 496 c 0,122,123
 70 509 70 509 90 512 c 1,124,125
 70 514 70 514 58 528 c 0,126,127
 44 543 44 543 44 563 c 256,0,1
454 256 m 256,128,129
 454 276 454 276 467 291 c 0,130,131
 479 304 479 304 500 307 c 1,132,133
 480 309 480 309 467 324 c 0,134,135
 454 338 454 338 454 358 c 0,136,137
 454 380 454 380 468.5 395 c 128,-1,138
 483 410 483 410 505 410 c 256,139,140
 527 410 527 410 541.5 395 c 128,-1,141
 556 380 556 380 556 358 c 0,142,143
 556 338 556 338 543 323.5 c 128,-1,144
 530 309 530 309 510 307 c 1,145,146
 529 304 529 304 543 291 c 0,147,148
 556 277 556 277 556 256 c 0,149,150
 556 236 556 236 543 221.5 c 128,-1,151
 530 207 530 207 510 205 c 1,152,153
 529 202 529 202 543 188 c 0,154,155
 556 174 556 174 556 154 c 0,156,157
 556 132 556 132 541.5 117 c 128,-1,158
 527 102 527 102 505 102 c 256,159,160
 483 102 483 102 468.5 117 c 128,-1,161
 454 132 454 132 454 154 c 0,162,163
 454 174 454 174 467 188 c 0,164,165
 479 201 479 201 500 205 c 1,166,167
 480 207 480 207 467 221 c 0,168,169
 454 236 454 236 454 256 c 256,128,129
249 461 m 256,170,171
 249 483 249 483 264 497.5 c 128,-1,172
 279 512 279 512 300 512 c 0,173,174
 322 512 322 512 336 497 c 0,175,176
 349 484 349 484 351 465 c 1,177,178
 352 483 352 483 366 497 c 0,179,180
 381 512 381 512 403 512 c 256,181,182
 425 512 425 512 439.5 497 c 128,-1,183
 454 482 454 482 454 461 c 0,184,185
 454 439 454 439 439 424.5 c 128,-1,186
 424 410 424 410 403 410 c 0,187,188
 383 410 383 410 368 423 c 0,189,190
 354 435 354 435 351 456 c 1,191,192
 348 436 348 436 335 423 c 0,193,194
 321 410 321 410 300 410 c 0,195,196
 278 410 278 410 263.5 424.5 c 128,-1,197
 249 439 249 439 249 461 c 256,170,171
249 51 m 256,198,199
 249 73 249 73 264 87.5 c 128,-1,200
 279 102 279 102 300 102 c 0,201,202
 322 102 322 102 336 87 c 0,203,204
 349 74 349 74 351 55 c 1,205,206
 352 73 352 73 366 87 c 0,207,208
 381 102 381 102 403 102 c 256,209,210
 425 102 425 102 439.5 87.5 c 128,-1,211
 454 73 454 73 454 51 c 256,212,213
 454 29 454 29 439 14.5 c 128,-1,214
 424 0 424 0 403 0 c 0,215,216
 383 0 383 0 368 13 c 0,217,218
 354 25 354 25 351 46 c 1,219,220
 348 26 348 26 335 13 c 0,221,222
 321 0 321 0 300 0 c 0,223,224
 278 0 278 0 263.5 14.5 c 128,-1,225
 249 29 249 29 249 51 c 256,198,199
EndSplineSet
EndChar

StartChar: c
Encoding: 99 99 48
Width: 600
VWidth: 1024
Flags: W
LayerCount: 2
Fore
SplineSet
147 461 m 256,0,1
 147 483 147 483 161.5 497.5 c 128,-1,2
 176 512 176 512 198 512 c 256,3,4
 220 512 220 512 234 497 c 0,5,6
 247 484 247 484 249 465 c 1,7,8
 250 483 250 483 263 497 c 0,9,10
 278 512 278 512 300 512 c 256,11,12
 322 512 322 512 336 497 c 0,13,14
 349 484 349 484 351 465 c 1,15,16
 352 483 352 483 366 497 c 0,17,18
 381 512 381 512 403 512 c 256,19,20
 425 512 425 512 439.5 497 c 128,-1,21
 454 482 454 482 454 461 c 0,22,23
 454 439 454 439 439 424.5 c 128,-1,24
 424 410 424 410 403 410 c 0,25,26
 383 410 383 410 368 423 c 0,27,28
 354 435 354 435 351 456 c 1,29,30
 348 436 348 436 335 423 c 0,31,32
 321 410 321 410 300 410 c 0,33,34
 280 410 280 410 265 423 c 0,35,36
 251 435 251 435 249 456 c 1,37,38
 246 436 246 436 233 423 c 0,39,40
 219 410 219 410 198 410 c 0,41,42
 176 410 176 410 161.5 424.5 c 128,-1,43
 147 439 147 439 147 461 c 256,0,1
147 51 m 256,44,45
 147 73 147 73 161.5 87.5 c 128,-1,46
 176 102 176 102 198 102 c 256,47,48
 220 102 220 102 234 87 c 0,49,50
 247 74 247 74 249 55 c 1,51,52
 250 73 250 73 263 87 c 0,53,54
 278 102 278 102 300 102 c 256,55,56
 322 102 322 102 336 87 c 0,57,58
 349 74 349 74 351 55 c 1,59,60
 352 73 352 73 366 87 c 0,61,62
 381 102 381 102 403 102 c 256,63,64
 425 102 425 102 439.5 87.5 c 128,-1,65
 454 73 454 73 454 51 c 256,66,67
 454 29 454 29 439 14.5 c 128,-1,68
 424 0 424 0 403 0 c 0,69,70
 383 0 383 0 368 13 c 0,71,72
 354 25 354 25 351 46 c 1,73,74
 348 26 348 26 335 13 c 0,75,76
 321 0 321 0 300 0 c 0,77,78
 280 0 280 0 265 13 c 0,79,80
 251 25 251 25 249 46 c 1,81,82
 246 26 246 26 233 13 c 0,83,84
 219 0 219 0 198 0 c 0,85,86
 176 0 176 0 161.5 14.5 c 128,-1,87
 147 29 147 29 147 51 c 256,44,45
44 256 m 256,88,89
 44 276 44 276 58 291 c 0,90,91
 70 304 70 304 90 307 c 1,92,93
 70 309 70 309 58 324 c 0,94,95
 45 338 45 338 44 358 c 0,96,97
 44 380 44 380 59 395 c 128,-1,98
 74 410 74 410 95 410 c 0,99,100
 117 410 117 410 132 395 c 128,-1,101
 147 380 147 380 147 358 c 0,102,103
 147 338 147 338 133.5 323.5 c 128,-1,104
 120 309 120 309 101 307 c 1,105,106
 120 304 120 304 133 291 c 0,107,108
 146 277 146 277 147 256 c 0,109,110
 147 236 147 236 133.5 221.5 c 128,-1,111
 120 207 120 207 101 205 c 1,112,113
 120 202 120 202 133 188 c 128,-1,114
 146 174 146 174 147 154 c 0,115,116
 147 132 147 132 132 117 c 128,-1,117
 117 102 117 102 95 102 c 256,118,119
 73 102 73 102 58.5 117 c 128,-1,120
 44 132 44 132 44 154 c 0,121,122
 44 174 44 174 58 188 c 0,123,124
 70 201 70 201 90 205 c 1,125,126
 70 207 70 207 58 221 c 0,127,128
 44 236 44 236 44 256 c 256,88,89
454 358 m 256,129,130
 454 380 454 380 468.5 395 c 128,-1,131
 483 410 483 410 505 410 c 256,132,133
 527 410 527 410 541.5 395 c 128,-1,134
 556 380 556 380 556 358 c 256,135,136
 556 336 556 336 541.5 321.5 c 128,-1,137
 527 307 527 307 505 307 c 256,138,139
 483 307 483 307 468.5 321.5 c 128,-1,140
 454 336 454 336 454 358 c 256,129,130
454 154 m 256,141,142
 454 176 454 176 468.5 190.5 c 128,-1,143
 483 205 483 205 505 205 c 256,144,145
 527 205 527 205 541.5 190 c 128,-1,146
 556 175 556 175 556 154 c 0,147,148
 556 132 556 132 541.5 117 c 128,-1,149
 527 102 527 102 505 102 c 256,150,151
 483 102 483 102 468.5 117 c 128,-1,152
 454 132 454 132 454 154 c 256,141,142
EndSplineSet
EndChar

StartChar: d
Encoding: 100 100 49
Width: 600
VWidth: 1024
Flags: W
LayerCount: 2
Fore
SplineSet
454 256 m 256,0,1
 454 276 454 276 467 291 c 0,2,3
 479 304 479 304 500 307 c 1,4,5
 481 309 481 309 468.5 321.5 c 128,-1,6
 456 334 456 334 454 353 c 1,7,8
 451 333 451 333 437 321 c 0,9,10
 423 308 423 308 403 307 c 0,11,12
 381 307 381 307 366 322 c 128,-1,13
 351 337 351 337 351 358 c 0,14,15
 351 380 351 380 366 395 c 128,-1,16
 381 410 381 410 403 410 c 256,17,18
 425 410 425 410 438 394 c 0,19,20
 451 381 451 381 454 362 c 1,21,22
 455 379 455 379 467 393 c 0,23,24
 479 406 479 406 500 410 c 1,25,26
 480 412 480 412 467 426 c 128,-1,27
 454 440 454 440 454 461 c 0,28,29
 454 481 454 481 467 496 c 0,30,31
 479 509 479 509 500 512 c 1,32,33
 480 514 480 514 467 528 c 128,-1,34
 454 542 454 542 454 563 c 0,35,36
 454 583 454 583 467 598 c 0,37,38
 479 611 479 611 500 614 c 1,39,40
 480 616 480 616 467 631 c 0,41,42
 454 645 454 645 454 666 c 0,43,44
 454 688 454 688 468.5 702.5 c 128,-1,45
 483 717 483 717 505 717 c 256,46,47
 527 717 527 717 541.5 702 c 128,-1,48
 556 687 556 687 556 666 c 0,49,50
 556 646 556 646 543 631 c 128,-1,51
 530 616 530 616 510 614 c 1,52,53
 529 611 529 611 543 598 c 0,54,55
 556 584 556 584 556 563 c 0,56,57
 556 543 556 543 543 528.5 c 128,-1,58
 530 514 530 514 510 512 c 1,59,60
 529 509 529 509 543 496 c 0,61,62
 556 482 556 482 556 461 c 0,63,64
 556 441 556 441 543 426.5 c 128,-1,65
 530 412 530 412 510 410 c 1,66,67
 529 407 529 407 543 393 c 0,68,69
 556 379 556 379 556 358 c 0,70,71
 556 338 556 338 543 323.5 c 128,-1,72
 530 309 530 309 510 307 c 1,73,74
 529 304 529 304 543 291 c 0,75,76
 556 277 556 277 556 256 c 0,77,78
 556 236 556 236 543 221.5 c 128,-1,79
 530 207 530 207 510 205 c 1,80,81
 529 202 529 202 543 188 c 0,82,83
 556 174 556 174 556 154 c 256,84,85
 556 134 556 134 543 119 c 128,-1,86
 530 104 530 104 510 102 c 1,87,88
 529 99 529 99 543 86 c 0,89,90
 556 72 556 72 556 51 c 0,91,92
 556 29 556 29 541.5 14.5 c 128,-1,93
 527 0 527 0 505 0 c 256,94,95
 483 0 483 0 468.5 15 c 128,-1,96
 454 30 454 30 454 51 c 0,97,98
 454 71 454 71 467 86 c 0,99,100
 479 99 479 99 500 102 c 1,101,102
 481 104 481 104 468.5 116.5 c 128,-1,103
 456 129 456 129 454 148 c 1,104,105
 451 128 451 128 437 116 c 0,106,107
 423 103 423 103 403 102 c 0,108,109
 381 102 381 102 366 117 c 128,-1,110
 351 132 351 132 351 154 c 256,111,112
 351 176 351 176 366 190.5 c 128,-1,113
 381 205 381 205 403 205 c 0,114,115
 423 205 423 205 437 191 c 0,116,117
 450 178 450 178 454 159 c 1,118,119
 456 176 456 176 468 189 c 128,-1,120
 480 202 480 202 500 205 c 1,121,122
 480 207 480 207 467 221 c 0,123,124
 454 236 454 236 454 256 c 256,0,1
44 256 m 256,125,126
 44 276 44 276 58 291 c 0,127,128
 70 304 70 304 90 307 c 1,129,130
 70 309 70 309 58 324 c 0,131,132
 45 338 45 338 44 358 c 0,133,134
 44 380 44 380 59 395 c 128,-1,135
 74 410 74 410 95 410 c 0,136,137
 117 410 117 410 132 395 c 128,-1,138
 147 380 147 380 147 358 c 0,139,140
 147 338 147 338 133.5 323.5 c 128,-1,141
 120 309 120 309 101 307 c 1,142,143
 120 304 120 304 133 291 c 0,144,145
 146 277 146 277 147 256 c 0,146,147
 147 236 147 236 133.5 221.5 c 128,-1,148
 120 207 120 207 101 205 c 1,149,150
 120 202 120 202 133 188 c 128,-1,151
 146 174 146 174 147 154 c 0,152,153
 147 132 147 132 132 117 c 128,-1,154
 117 102 117 102 95 102 c 256,155,156
 73 102 73 102 58.5 117 c 128,-1,157
 44 132 44 132 44 154 c 0,158,159
 44 174 44 174 58 188 c 0,160,161
 70 201 70 201 90 205 c 1,162,163
 70 207 70 207 58 221 c 0,164,165
 44 236 44 236 44 256 c 256,125,126
147 461 m 256,166,167
 147 483 147 483 161.5 497.5 c 128,-1,168
 176 512 176 512 198 512 c 256,169,170
 220 512 220 512 234.5 497 c 128,-1,171
 249 482 249 482 249 461 c 1,172,173
 249 483 249 483 264 497.5 c 128,-1,174
 279 512 279 512 300 512 c 0,175,176
 322 512 322 512 336.5 497 c 128,-1,177
 351 482 351 482 351 461 c 0,178,179
 351 439 351 439 336.5 424.5 c 128,-1,180
 322 410 322 410 300 410 c 0,181,182
 280 410 280 410 265 423 c 0,183,184
 251 435 251 435 249 456 c 1,185,186
 246 436 246 436 233 423 c 0,187,188
 219 410 219 410 198 410 c 0,189,190
 176 410 176 410 161.5 424.5 c 128,-1,191
 147 439 147 439 147 461 c 256,166,167
147 51 m 256,192,193
 147 73 147 73 161.5 87.5 c 128,-1,194
 176 102 176 102 198 102 c 256,195,196
 220 102 220 102 234 87 c 0,197,198
 247 74 247 74 249 55 c 1,199,200
 250 73 250 73 263 87 c 0,201,202
 278 102 278 102 300 102 c 256,203,204
 322 102 322 102 336.5 87.5 c 128,-1,205
 351 73 351 73 351 51 c 256,206,207
 351 29 351 29 336.5 14.5 c 128,-1,208
 322 0 322 0 300 0 c 0,209,210
 280 0 280 0 265 13 c 0,211,212
 251 25 251 25 249 46 c 1,213,214
 246 26 246 26 233 13 c 0,215,216
 219 0 219 0 198 0 c 0,217,218
 176 0 176 0 161.5 14.5 c 128,-1,219
 147 29 147 29 147 51 c 256,192,193
EndSplineSet
EndChar

